  0
SECTION
  2
HEADER
  9
$ACADVER
  1
AC1027
  9
$ACADMAINTVER
 70
   125
  9
$DWGCODEPAGE
  3
ANSI_1252
  9
$REQUIREDVERSIONS
160
                 0
  9
$INSBASE
 10
0.0
 20
0.0
 30
0.0
  9
$EXTMIN
 10
1.000000000000000E+20
 20
1.000000000000000E+20
 30
1.000000000000000E+20
  9
$EXTMAX
 10
-1.000000000000000E+20
 20
-1.000000000000000E+20
 30
-1.000000000000000E+20
  9
$LIMMIN
 10
0.0
 20
0.0
  9
$LIMMAX
 10
12.0
 20
9.0
  9
$ORTHOMODE
 70
     0
  9
$REGENMODE
 70
     1
  9
$FILLMODE
 70
     1
  9
$QTEXTMODE
 70
     0
  9
$MIRRTEXT
 70
     0
  9
$LTSCALE
 40
1.0
  9
$ATTMODE
 70
     1
  9
$TEXTSIZE
 40
0.2
  9
$TRACEWID
 40
0.05
  9
$TEXTSTYLE
  7
Standard
  9
$CLAYER
  8
0
  9
$CELTYPE
  6
ByLayer
  9
$CECOLOR
 62
   256
  9
$CELTSCALE
 40
1.0
  9
$DISPSILH
 70
     0
  9
$DIMSCALE
 40
1.0
  9
$DIMASZ
 40
0.18
  9
$DIMEXO
 40
0.0625
  9
$DIMDLI
 40
0.38
  9
$DIMRND
 40
0.0
  9
$DIMDLE
 40
0.0
  9
$DIMEXE
 40
0.18
  9
$DIMTP
 40
0.0
  9
$DIMTM
 40
0.0
  9
$DIMTXT
 40
0.18
  9
$DIMCEN
 40
0.09
  9
$DIMTSZ
 40
0.0
  9
$DIMTOL
 70
     0
  9
$DIMLIM
 70
     0
  9
$DIMTIH
 70
     1
  9
$DIMTOH
 70
     1
  9
$DIMSE1
 70
     0
  9
$DIMSE2
 70
     0
  9
$DIMTAD
 70
     0
  9
$DIMZIN
 70
     0
  9
$DIMBLK
  1

  9
$DIMASO
 70
     1
  9
$DIMSHO
 70
     1
  9
$DIMPOST
  1

  9
$DIMAPOST
  1

  9
$DIMALT
 70
     0
  9
$DIMALTD
 70
     2
  9
$DIMALTF
 40
25.4
  9
$DIMLFAC
 40
1.0
  9
$DIMTOFL
 70
     0
  9
$DIMTVP
 40
0.0
  9
$DIMTIX
 70
     0
  9
$DIMSOXD
 70
     0
  9
$DIMSAH
 70
     0
  9
$DIMBLK1
  1

  9
$DIMBLK2
  1

  9
$DIMSTYLE
  2
Standard
  9
$DIMCLRD
 70
     0
  9
$DIMCLRE
 70
     0
  9
$DIMCLRT
 70
     0
  9
$DIMTFAC
 40
1.0
  9
$DIMGAP
 40
0.09
  9
$DIMJUST
 70
     0
  9
$DIMSD1
 70
     0
  9
$DIMSD2
 70
     0
  9
$DIMTOLJ
 70
     1
  9
$DIMTZIN
 70
     0
  9
$DIMALTZ
 70
     0
  9
$DIMALTTZ
 70
     0
  9
$DIMUPT
 70
     0
  9
$DIMDEC
 70
     4
  9
$DIMTDEC
 70
     4
  9
$DIMALTU
 70
     2
  9
$DIMALTTD
 70
     2
  9
$DIMTXSTY
  7
Standard
  9
$DIMAUNIT
 70
     0
  9
$DIMADEC
 70
     0
  9
$DIMALTRND
 40
0.0
  9
$DIMAZIN
 70
     0
  9
$DIMDSEP
 70
    46
  9
$DIMATFIT
 70
     3
  9
$DIMFRAC
 70
     0
  9
$DIMLDRBLK
  1

  9
$DIMLUNIT
 70
     2
  9
$DIMLWD
 70
    -2
  9
$DIMLWE
 70
    -2
  9
$DIMTMOVE
 70
     0
  9
$DIMFXL
 40
1.0
  9
$DIMFXLON
 70
     0
  9
$DIMJOGANG
 40
0.7853981633974483
  9
$DIMTFILL
 70
     0
  9
$DIMTFILLCLR
 70
     0
  9
$DIMARCSYM
 70
     0
  9
$DIMLTYPE
  6

  9
$DIMLTEX1
  6

  9
$DIMLTEX2
  6

  9
$DIMTXTDIRECTION
 70
     0
  9
$LUNITS
 70
     2
  9
$LUPREC
 70
     4
  9
$SKETCHINC
 40
0.1
  9
$FILLETRAD
 40
0.0
  9
$AUNITS
 70
     0
  9
$AUPREC
 70
     0
  9
$MENU
  1
.
  9
$ELEVATION
 40
0.0
  9
$PELEVATION
 40
0.0
  9
$THICKNESS
 40
0.0
  9
$LIMCHECK
 70
     0
  9
$CHAMFERA
 40
0.0
  9
$CHAMFERB
 40
0.0
  9
$CHAMFERC
 40
0.0
  9
$CHAMFERD
 40
0.0
  9
$SKPOLY
 70
     0
  9
$TDCREATE
 40
2461169.530000000
  9
$TDUCREATE
 40
2461169.530000000
  9
$TDUPDATE
 40
2461169.530000000
  9
$TDUUPDATE
 40
2461169.530000000
  9
$TDINDWG
 40
0.0000000000
  9
$TDUSRTIMER
 40
0.0000000000
  9
$USRTIMER
 70
     1
  9
$ANGBASE
 50
0.0
  9
$ANGDIR
 70
     0
  9
$PDMODE
 70
     0
  9
$PDSIZE
 40
0.0
  9
$PLINEWID
 40
0.0
  9
$SPLFRAME
 70
     0
  9
$SPLINETYPE
 70
     6
  9
$SPLINESEGS
 70
     8
  9
$HANDSEED
  5
20D
  9
$SURFTAB1
 70
     6
  9
$SURFTAB2
 70
     6
  9
$SURFTYPE
 70
     6
  9
$SURFU
 70
     6
  9
$SURFV
 70
     6
  9
$UCSBASE
  2

  9
$UCSNAME
  2

  9
$UCSORG
 10
0.0
 20
0.0
 30
0.0
  9
$UCSXDIR
 10
1.0
 20
0.0
 30
0.0
  9
$UCSYDIR
 10
0.0
 20
1.0
 30
0.0
  9
$UCSORTHOREF
  2

  9
$UCSORTHOVIEW
 70
     0
  9
$UCSORGTOP
 10
0.0
 20
0.0
 30
0.0
  9
$UCSORGBOTTOM
 10
0.0
 20
0.0
 30
0.0
  9
$UCSORGLEFT
 10
0.0
 20
0.0
 30
0.0
  9
$UCSORGRIGHT
 10
0.0
 20
0.0
 30
0.0
  9
$UCSORGFRONT
 10
0.0
 20
0.0
 30
0.0
  9
$UCSORGBACK
 10
0.0
 20
0.0
 30
0.0
  9
$PUCSBASE
  2

  9
$PUCSNAME
  2

  9
$PUCSORG
 10
0.0
 20
0.0
 30
0.0
  9
$PUCSXDIR
 10
1.0
 20
0.0
 30
0.0
  9
$PUCSYDIR
 10
0.0
 20
1.0
 30
0.0
  9
$PUCSORTHOREF
  2

  9
$PUCSORTHOVIEW
 70
     0
  9
$PUCSORGTOP
 10
0.0
 20
0.0
 30
0.0
  9
$PUCSORGBOTTOM
 10
0.0
 20
0.0
 30
0.0
  9
$PUCSORGLEFT
 10
0.0
 20
0.0
 30
0.0
  9
$PUCSORGRIGHT
 10
0.0
 20
0.0
 30
0.0
  9
$PUCSORGFRONT
 10
0.0
 20
0.0
 30
0.0
  9
$PUCSORGBACK
 10
0.0
 20
0.0
 30
0.0
  9
$USERI1
 70
     0
  9
$USERI2
 70
     0
  9
$USERI3
 70
     0
  9
$USERI4
 70
     0
  9
$USERI5
 70
     0
  9
$USERR1
 40
0.0
  9
$USERR2
 40
0.0
  9
$USERR3
 40
0.0
  9
$USERR4
 40
0.0
  9
$USERR5
 40
0.0
  9
$WORLDVIEW
 70
     1
  9
$SHADEDGE
 70
     3
  9
$SHADEDIF
 70
    70
  9
$TILEMODE
 70
     1
  9
$MAXACTVP
 70
    64
  9
$PINSBASE
 10
0.0
 20
0.0
 30
0.0
  9
$PLIMCHECK
 70
     0
  9
$PEXTMIN
 10
1.000000000000000E+20
 20
1.000000000000000E+20
 30
1.000000000000000E+20
  9
$PEXTMAX
 10
-1.000000000000000E+20
 20
-1.000000000000000E+20
 30
-1.000000000000000E+20
  9
$PLIMMIN
 10
0.0
 20
0.0
  9
$PLIMMAX
 10
12.0
 20
9.0
  9
$UNITMODE
 70
     0
  9
$VISRETAIN
 70
     1
  9
$PLINEGEN
 70
     0
  9
$PSLTSCALE
 70
     1
  9
$TREEDEPTH
 70
  3020
  9
$CMLSTYLE
  2
Standard
  9
$CMLJUST
 70
     0
  9
$CMLSCALE
 40
1.0
  9
$PROXYGRAPHICS
 70
     1
  9
$MEASUREMENT
 70
     0
  9
$CELWEIGHT
370
    -1
  9
$ENDCAPS
280
     0
  9
$JOINSTYLE
280
     0
  9
$LWDISPLAY
290
     0
  9
$INSUNITS
 70
     4
  9
$HYPERLINKBASE
  1

  9
$STYLESHEET
  1

  9
$XEDIT
290
     1
  9
$CEPSNTYPE
380
     0
  9
$PSTYLEMODE
290
     1
  9
$FINGERPRINTGUID
  2
{4261EE7E-57C4-6B46-8116-2A738FEB4C0B}
  9
$VERSIONGUID
  2
{AEBDA5E6-1EBC-6C43-AB72-16B4E220D4D3}
  9
$EXTNAMES
290
     1
  9
$PSVPSCALE
 40
0.0
  9
$OLESTARTUP
290
     0
  9
$SORTENTS
280
   127
  9
$INDEXCTL
280
     0
  9
$HIDETEXT
280
     1
  9
$XCLIPFRAME
280
     2
  9
$HALOGAP
280
     0
  9
$OBSCOLOR
 70
   257
  9
$OBSLTYPE
280
     0
  9
$INTERSECTIONDISPLAY
280
     0
  9
$INTERSECTIONCOLOR
 70
   257
  9
$DIMASSOC
280
     2
  9
$PROJECTNAME
  1

  9
$CAMERADISPLAY
290
     0
  9
$LENSLENGTH
 40
50.0
  9
$CAMERAHEIGHT
 40
0.0
  9
$STEPSPERSEC
 40
2.0
  9
$STEPSIZE
 40
6.0
  9
$3DDWFPREC
 40
2.0
  9
$PSOLWIDTH
 40
0.25
  9
$PSOLHEIGHT
 40
4.0
  9
$LOFTANG1
 40
1.570796326794896
  9
$LOFTANG2
 40
1.570796326794896
  9
$LOFTMAG1
 40
0.0
  9
$LOFTMAG2
 40
0.0
  9
$LOFTPARAM
 70
     7
  9
$LOFTNORMALS
280
     1
  9
$LATITUDE
 40
37.795
  9
$LONGITUDE
 40
-122.394
  9
$NORTHDIRECTION
 40
0.0
  9
$TIMEZONE
 70
 -8000
  9
$LIGHTGLYPHDISPLAY
280
     1
  9
$TILEMODELIGHTSYNCH
280
     1
  9
$CMATERIAL
347
11
  9
$SOLIDHIST
280
     0
  9
$SHOWHIST
280
     1
  9
$DWFFRAME
280
     2
  9
$DGNFRAME
280
     0
  9
$REALWORLDSCALE
290
     1
  9
$INTERFERECOLOR
 62
     1
  9
$INTERFEREOBJVS
345
33
  9
$INTERFEREVPVS
346
30
  9
$CSHADOW
280
     0
  9
$SHADOWPLANELOCATION
 40
0.0
  0
ENDSEC
  0
SECTION
  2
CLASSES
  0
CLASS
  1
ACDBDICTIONARYWDFLT
  2
AcDbDictionaryWithDefault
  3
ObjectDBX Classes
 90
        0
 91
        1
280
     0
281
     0
  0
CLASS
  1
MATERIAL
  2
AcDbMaterial
  3
ObjectDBX Classes
 90
     1153
 91
        3
280
     0
281
     0
  0
CLASS
  1
VISUALSTYLE
  2
AcDbVisualStyle
  3
ObjectDBX Classes
 90
     4095
 91
       24
280
     0
281
     0
  0
CLASS
  1
SCALE
  2
AcDbScale
  3
ObjectDBX Classes
 90
     1153
 91
       17
280
     0
281
     0
  0
CLASS
  1
TABLESTYLE
  2
AcDbTableStyle
  3
ObjectDBX Classes
 90
     4095
 91
        1
280
     0
281
     0
  0
CLASS
  1
MLEADERSTYLE
  2
AcDbMLeaderStyle
  3
ACDB_MLEADERSTYLE_CLASS
 90
     4095
 91
        1
280
     0
281
     0
  0
CLASS
  1
ACDBSECTIONVIEWSTYLE
  2
AcDbSectionViewStyle
  3
ObjectDBX Classes
 90
     1025
 91
        1
280
     0
281
     0
  0
CLASS
  1
ACDBDETAILVIEWSTYLE
  2
AcDbDetailViewStyle
  3
ObjectDBX Classes
 90
     1025
 91
        1
280
     0
281
     0
  0
CLASS
  1
DICTIONARYVAR
  2
AcDbDictionaryVar
  3
ObjectDBX Classes
 90
        0
 91
        5
280
     0
281
     0
  0
CLASS
  1
CELLSTYLEMAP
  2
AcDbCellStyleMap
  3
ObjectDBX Classes
 90
     1152
 91
        1
280
     0
281
     0
  0
ENDSEC
  0
SECTION
  2
TABLES
  0
TABLE
  2
VPORT
  5
8
330
0
100
AcDbSymbolTable
 70
     1
1001
ACAD
1000
DbSaveVer
1071
      471
  0
VPORT
  5
57
330
8
100
AcDbSymbolTableRecord
100
AcDbViewportTableRecord
  2
*Active
 70
     0
 10
0.0
 20
0.0
 11
1.0
 21
1.0
 12
500.0
 22
500.0
 13
0.0
 23
0.0
 14
1.0
 24
1.0
 15
0.0
 25
0.0
 16
0.0
 26
0.0
 36
1.0
 17
0.0
 27
0.0
 37
0.0
 40
12.0
 41
1.0
 42
50.0
 43
0.0
 44
0.0
 50
0.0
 51
0.0
 71
     0
 72
   100
 73
     1
 74
     1
 75
     0
 76
     0
 77
     0
 78
     0
281
     0
 65
     1
110
0.0
120
0.0
130
0.0
111
1.0
121
0.0
131
0.0
112
0.0
122
1.0
132
0.0
 79
     0
146
0.0
 60
     3
 61
     5
292
     1
282
     1
141
0.0
142
0.0
 63
   250
421
  3355443
  0
ENDTAB
  0
TABLE
  2
LTYPE
  5
5
330
0
100
AcDbSymbolTable
 70
     1
  0
LTYPE
  5
5B
330
5
100
AcDbSymbolTableRecord
100
AcDbLinetypeTableRecord
  2
ByBlock
 70
     0
  3

 72
    65
 73
     0
 40
0.0
  0
LTYPE
  5
5C
330
5
100
AcDbSymbolTableRecord
100
AcDbLinetypeTableRecord
  2
ByLayer
 70
     0
  3

 72
    65
 73
     0
 40
0.0
  0
LTYPE
  5
5D
330
5
100
AcDbSymbolTableRecord
100
AcDbLinetypeTableRecord
  2
Continuous
 70
     0
  3
Solid line
 72
    65
 73
     0
 40
0.0
  0
ENDTAB
  0
TABLE
  2
LAYER
  5
2
330
0
100
AcDbSymbolTable
 70
    51
  0
LAYER
  5
54
330
2
100
AcDbSymbolTableRecord
100
AcDbLayerTableRecord
  2
0
 70
     0
 62
     7
  6
Continuous
370
    -3
390
F
347
21
348
0
  0
LAYER
  5
7A
330
2
100
AcDbSymbolTableRecord
100
AcDbLayerTableRecord
  2
plateau v8_plateau_pick_and_place (1)
 70
     0
 62
     7
  6
Continuous
370
    -3
390
F
347
21
348
0
1001
NFusion_SketchTransform
1000
1.000000;0.000000;0.000000;0.000000;0.000000;1.000000;0.000000;0.000000;0.000000;0.000000;1.000000;0.000000;0.000000;0.000000;0.000000;1.000000
  0
LAYER
  5
80
330
2
100
AcDbSymbolTableRecord
100
AcDbLayerTableRecord
  2
plateau v8_Sketch2
 70
     0
 62
     7
  6
Continuous
370
    -3
390
F
347
21
348
0
1001
NFusion_SketchTransform
1000
1.000000;0.000000;0.000000;0.000000;0.000000;1.000000;0.000000;0.000000;0.000000;0.000000;1.000000;0.000000;0.000000;0.000000;0.000000;1.000000
  0
LAYER
  5
82
330
2
100
AcDbSymbolTableRecord
100
AcDbLayerTableRecord
  2
plateau v8_Sketch3
 70
     0
 62
     7
  6
Continuous
370
    -3
390
F
347
21
348
0
1001
NFusion_SketchTransform
1000
1.000000;0.000000;0.000000;0.000000;0.000000;1.000000;0.000000;0.000000;0.000000;0.000000;1.000000;0.000000;0.000000;0.000000;0.000000;1.000000
  0
LAYER
  5
84
330
2
100
AcDbSymbolTableRecord
100
AcDbLayerTableRecord
  2
plateau v8_Sketch4
 70
     0
 62
     7
  6
Continuous
370
    -3
390
F
347
21
348
0
1001
NFusion_SketchTransform
1000
1.000000;0.000000;0.000000;0.000000;0.000000;1.000000;0.000000;0.000000;0.000000;0.000000;1.000000;0.000000;0.000000;0.000000;0.000000;1.000000
  0
LAYER
  5
86
330
2
100
AcDbSymbolTableRecord
100
AcDbLayerTableRecord
  2
plateau v8_Sketch5
 70
     0
 62
     7
  6
Continuous
370
    -3
390
F
347
21
348
0
1001
NFusion_SketchTransform
1000
1.000000;0.000000;0.000000;0.000000;0.000000;1.000000;0.000000;0.000000;0.000000;0.000000;1.000000;0.000000;0.000000;0.000000;0.000000;1.000000
  0
LAYER
  5
8A
330
2
100
AcDbSymbolTableRecord
100
AcDbLayerTableRecord
  2
plateau v8_Sketch6
 70
     0
 62
     7
  6
Continuous
370
    -3
390
F
347
21
348
0
1001
NFusion_SketchTransform
1000
1.000000;0.000000;0.000000;0.000000;0.000000;1.000000;0.000000;0.000000;0.000000;0.000000;1.000000;0.000000;0.000000;0.000000;0.000000;1.000000
  0
LAYER
  5
8D
330
2
100
AcDbSymbolTableRecord
100
AcDbLayerTableRecord
  2
plateau v8_Sketch7
 70
     0
 62
     7
  6
Continuous
370
    -3
390
F
347
21
348
0
1001
NFusion_SketchTransform
1000
1.000000;0.000000;0.000000;0.000000;0.000000;1.000000;0.000000;0.000000;0.000000;0.000000;1.000000;0.000000;0.000000;0.000000;0.000000;1.000000
  0
LAYER
  5
8F
330
2
100
AcDbSymbolTableRecord
100
AcDbLayerTableRecord
  2
plateau v8_Sketch8
 70
     0
 62
     7
  6
Continuous
370
    -3
390
F
347
21
348
0
1001
NFusion_SketchTransform
1000
1.000000;0.000000;0.000000;0.000000;0.000000;1.000000;0.000000;0.000000;0.000000;0.000000;1.000000;0.000000;0.000000;0.000000;0.000000;1.000000
  0
LAYER
  5
91
330
2
100
AcDbSymbolTableRecord
100
AcDbLayerTableRecord
  2
plateau v8_Sketch9
 70
     0
 62
     7
  6
Continuous
370
    -3
390
F
347
21
348
0
1001
NFusion_SketchTransform
1000
1.000000;0.000000;0.000000;0.000000;0.000000;1.000000;0.000000;0.000000;0.000000;0.000000;1.000000;0.000000;0.000000;0.000000;0.000000;1.000000
  0
LAYER
  5
93
330
2
100
AcDbSymbolTableRecord
100
AcDbLayerTableRecord
  2
plateau v8_Sketch10
 70
     0
 62
     7
  6
Continuous
370
    -3
390
F
347
21
348
0
1001
NFusion_SketchTransform
1000
1.000000;0.000000;0.000000;0.000000;0.000000;1.000000;0.000000;0.000000;0.000000;0.000000;1.000000;0.000000;0.000000;0.000000;0.000000;1.000000
  0
LAYER
  5
95
330
2
100
AcDbSymbolTableRecord
100
AcDbLayerTableRecord
  2
plateau v8_Sketch11
 70
     0
 62
     7
  6
Continuous
370
    -3
390
F
347
21
348
0
1001
NFusion_SketchTransform
1000
1.000000;0.000000;0.000000;0.000000;0.000000;1.000000;0.000000;0.000000;0.000000;0.000000;1.000000;0.000000;0.000000;0.000000;0.000000;1.000000
  0
LAYER
  5
97
330
2
100
AcDbSymbolTableRecord
100
AcDbLayerTableRecord
  2
plateau v8_Sketch12
 70
     0
 62
     7
  6
Continuous
370
    -3
390
F
347
21
348
0
1001
NFusion_SketchTransform
1000
1.000000;0.000000;0.000000;0.000000;0.000000;1.000000;0.000000;0.000000;0.000000;0.000000;1.000000;0.000000;0.000000;0.000000;0.000000;1.000000
  0
LAYER
  5
9C
330
2
100
AcDbSymbolTableRecord
100
AcDbLayerTableRecord
  2
plateau v8_Sketch13
 70
     0
 62
     7
  6
Continuous
370
    -3
390
F
347
21
348
0
1001
NFusion_SketchTransform
1000
1.000000;0.000000;0.000000;0.000000;0.000000;1.000000;0.000000;0.000000;0.000000;0.000000;1.000000;0.000000;0.000000;0.000000;0.000000;1.000000
  0
LAYER
  5
A0
330
2
100
AcDbSymbolTableRecord
100
AcDbLayerTableRecord
  2
plateau v8_Sketch14
 70
     0
 62
     7
  6
Continuous
370
    -3
390
F
347
21
348
0
1001
NFusion_SketchTransform
1000
1.000000;0.000000;0.000000;0.000000;0.000000;1.000000;0.000000;0.000000;0.000000;0.000000;1.000000;0.000000;0.000000;0.000000;0.000000;1.000000
  0
LAYER
  5
A3
330
2
100
AcDbSymbolTableRecord
100
AcDbLayerTableRecord
  2
plateau v8_Sketch15
 70
     0
 62
     7
  6
Continuous
370
    -3
390
F
347
21
348
0
1001
NFusion_SketchTransform
1000
1.000000;0.000000;0.000000;0.000000;0.000000;1.000000;0.000000;0.000000;0.000000;0.000000;1.000000;0.000000;0.000000;0.000000;0.000000;1.000000
  0
LAYER
  5
A7
330
2
100
AcDbSymbolTableRecord
100
AcDbLayerTableRecord
  2
plateau v8_Sketch16
 70
     0
 62
     7
  6
Continuous
370
    -3
390
F
347
21
348
0
1001
NFusion_SketchTransform
1000
1.000000;0.000000;0.000000;0.000000;0.000000;1.000000;0.000000;0.000000;0.000000;0.000000;1.000000;0.000000;0.000000;0.000000;0.000000;1.000000
  0
LAYER
  5
AC
330
2
100
AcDbSymbolTableRecord
100
AcDbLayerTableRecord
  2
plateau v8_Sketch17
 70
     0
 62
     7
  6
Continuous
370
    -3
390
F
347
21
348
0
1001
NFusion_SketchTransform
1000
1.000000;0.000000;0.000000;0.000000;0.000000;1.000000;0.000000;0.000000;0.000000;0.000000;1.000000;0.000000;0.000000;0.000000;0.000000;1.000000
  0
LAYER
  5
B1
330
2
100
AcDbSymbolTableRecord
100
AcDbLayerTableRecord
  2
plateau v8_Sketch18
 70
     0
 62
     7
  6
Continuous
370
    -3
390
F
347
21
348
0
1001
NFusion_SketchTransform
1000
1.000000;0.000000;0.000000;0.000000;0.000000;1.000000;0.000000;0.000000;0.000000;0.000000;1.000000;0.000000;0.000000;0.000000;0.000000;1.000000
  0
LAYER
  5
B3
330
2
100
AcDbSymbolTableRecord
100
AcDbLayerTableRecord
  2
plateau v8_Sketch19
 70
     0
 62
     7
  6
Continuous
370
    -3
390
F
347
21
348
0
1001
NFusion_SketchTransform
1000
1.000000;0.000000;0.000000;0.000000;0.000000;1.000000;0.000000;0.000000;0.000000;0.000000;1.000000;0.000000;0.000000;0.000000;0.000000;1.000000
  0
LAYER
  5
B5
330
2
100
AcDbSymbolTableRecord
100
AcDbLayerTableRecord
  2
plateau v8_Sketch20
 70
     0
 62
     7
  6
Continuous
370
    -3
390
F
347
21
348
0
1001
NFusion_SketchTransform
1000
1.000000;0.000000;0.000000;0.000000;0.000000;1.000000;0.000000;0.000000;0.000000;0.000000;1.000000;0.000000;0.000000;0.000000;0.000000;1.000000
  0
LAYER
  5
B7
330
2
100
AcDbSymbolTableRecord
100
AcDbLayerTableRecord
  2
plateau v8_Sketch21
 70
     0
 62
     7
  6
Continuous
370
    -3
390
F
347
21
348
0
1001
NFusion_SketchTransform
1000
1.000000;0.000000;0.000000;0.000000;0.000000;1.000000;0.000000;0.000000;0.000000;0.000000;1.000000;0.000000;0.000000;0.000000;0.000000;1.000000
  0
LAYER
  5
B9
330
2
100
AcDbSymbolTableRecord
100
AcDbLayerTableRecord
  2
plateau v8_Sketch22
 70
     0
 62
     7
  6
Continuous
370
    -3
390
F
347
21
348
0
1001
NFusion_SketchTransform
1000
1.000000;0.000000;0.000000;0.000000;0.000000;1.000000;0.000000;0.000000;0.000000;0.000000;1.000000;0.000000;0.000000;0.000000;0.000000;1.000000
  0
LAYER
  5
BB
330
2
100
AcDbSymbolTableRecord
100
AcDbLayerTableRecord
  2
plateau v8_Sketch24
 70
     0
 62
     7
  6
Continuous
370
    -3
390
F
347
21
348
0
1001
NFusion_SketchTransform
1000
1.000000;0.000000;0.000000;0.000000;0.000000;1.000000;0.000000;0.000000;0.000000;0.000000;1.000000;0.000000;0.000000;0.000000;0.000000;1.000000
  0
LAYER
  5
BE
330
2
100
AcDbSymbolTableRecord
100
AcDbLayerTableRecord
  2
plateau v8_Sketch25
 70
     0
 62
     7
  6
Continuous
370
    -3
390
F
347
21
348
0
1001
NFusion_SketchTransform
1000
1.000000;0.000000;0.000000;0.000000;0.000000;1.000000;0.000000;0.000000;0.000000;0.000000;1.000000;0.000000;0.000000;0.000000;0.000000;1.000000
  0
LAYER
  5
C2
330
2
100
AcDbSymbolTableRecord
100
AcDbLayerTableRecord
  2
plateau v8_Sketch26
 70
     0
 62
     7
  6
Continuous
370
    -3
390
F
347
21
348
0
1001
NFusion_SketchTransform
1000
1.000000;0.000000;0.000000;0.000000;0.000000;1.000000;0.000000;0.000000;0.000000;0.000000;1.000000;0.000000;0.000000;0.000000;0.000000;1.000000
  0
LAYER
  5
C6
330
2
100
AcDbSymbolTableRecord
100
AcDbLayerTableRecord
  2
plateau v8_Sketch27
 70
     0
 62
     7
  6
Continuous
370
    -3
390
F
347
21
348
0
1001
NFusion_SketchTransform
1000
1.000000;0.000000;0.000000;0.000000;0.000000;1.000000;0.000000;0.000000;0.000000;0.000000;1.000000;0.000000;0.000000;0.000000;0.000000;1.000000
  0
LAYER
  5
C9
330
2
100
AcDbSymbolTableRecord
100
AcDbLayerTableRecord
  2
plateau v8_Sketch28
 70
     0
 62
     7
  6
Continuous
370
    -3
390
F
347
21
348
0
1001
NFusion_SketchTransform
1000
1.000000;0.000000;0.000000;0.000000;0.000000;1.000000;0.000000;0.000000;0.000000;0.000000;1.000000;0.000000;0.000000;0.000000;0.000000;1.000000
  0
LAYER
  5
CE
330
2
100
AcDbSymbolTableRecord
100
AcDbLayerTableRecord
  2
plateau v8_Sketch29
 70
     0
 62
     7
  6
Continuous
370
    -3
390
F
347
21
348
0
1001
NFusion_SketchTransform
1000
1.000000;0.000000;0.000000;0.000000;0.000000;1.000000;0.000000;0.000000;0.000000;0.000000;1.000000;0.000000;0.000000;0.000000;0.000000;1.000000
  0
LAYER
  5
D2
330
2
100
AcDbSymbolTableRecord
100
AcDbLayerTableRecord
  2
plateau v8_Sketch30
 70
     0
 62
     7
  6
Continuous
370
    -3
390
F
347
21
348
0
1001
NFusion_SketchTransform
1000
1.000000;0.000000;0.000000;0.000000;0.000000;1.000000;0.000000;0.000000;0.000000;0.000000;1.000000;0.000000;0.000000;0.000000;0.000000;1.000000
  0
LAYER
  5
D7
330
2
100
AcDbSymbolTableRecord
100
AcDbLayerTableRecord
  2
plateau v8_Sketch31
 70
     0
 62
     7
  6
Continuous
370
    -3
390
F
347
21
348
0
1001
NFusion_SketchTransform
1000
1.000000;0.000000;0.000000;0.000000;0.000000;1.000000;0.000000;0.000000;0.000000;0.000000;1.000000;0.000000;0.000000;0.000000;0.000000;1.000000
  0
LAYER
  5
DB
330
2
100
AcDbSymbolTableRecord
100
AcDbLayerTableRecord
  2
plateau v8_Sketch32
 70
     0
 62
     7
  6
Continuous
370
    -3
390
F
347
21
348
0
1001
NFusion_SketchTransform
1000
1.000000;0.000000;0.000000;0.000000;0.000000;1.000000;0.000000;0.000000;0.000000;0.000000;1.000000;0.000000;0.000000;0.000000;0.000000;1.000000
  0
LAYER
  5
E0
330
2
100
AcDbSymbolTableRecord
100
AcDbLayerTableRecord
  2
plateau v8_Sketch33
 70
     0
 62
     7
  6
Continuous
370
    -3
390
F
347
21
348
0
1001
NFusion_SketchTransform
1000
1.000000;0.000000;0.000000;0.000000;0.000000;1.000000;0.000000;0.000000;0.000000;0.000000;1.000000;0.000000;0.000000;0.000000;0.000000;1.000000
  0
LAYER
  5
E4
330
2
100
AcDbSymbolTableRecord
100
AcDbLayerTableRecord
  2
plateau v8_Sketch34
 70
     0
 62
     7
  6
Continuous
370
    -3
390
F
347
21
348
0
1001
NFusion_SketchTransform
1000
1.000000;0.000000;0.000000;0.000000;0.000000;1.000000;0.000000;0.000000;0.000000;0.000000;1.000000;0.000000;0.000000;0.000000;0.000000;1.000000
  0
LAYER
  5
E9
330
2
100
AcDbSymbolTableRecord
100
AcDbLayerTableRecord
  2
plateau v8_Sketch35
 70
     0
 62
     7
  6
Continuous
370
    -3
390
F
347
21
348
0
1001
NFusion_SketchTransform
1000
1.000000;0.000000;0.000000;0.000000;0.000000;1.000000;0.000000;0.000000;0.000000;0.000000;1.000000;0.000000;0.000000;0.000000;0.000000;1.000000
  0
LAYER
  5
ED
330
2
100
AcDbSymbolTableRecord
100
AcDbLayerTableRecord
  2
plateau v8_Sketch36
 70
     0
 62
     7
  6
Continuous
370
    -3
390
F
347
21
348
0
1001
NFusion_SketchTransform
1000
1.000000;0.000000;0.000000;0.000000;0.000000;1.000000;0.000000;0.000000;0.000000;0.000000;1.000000;0.000000;0.000000;0.000000;0.000000;1.000000
  0
LAYER
  5
F2
330
2
100
AcDbSymbolTableRecord
100
AcDbLayerTableRecord
  2
plateau v8_Sketch37
 70
     0
 62
     7
  6
Continuous
370
    -3
390
F
347
21
348
0
1001
NFusion_SketchTransform
1000
1.000000;0.000000;0.000000;0.000000;0.000000;1.000000;0.000000;0.000000;0.000000;0.000000;1.000000;0.000000;0.000000;0.000000;0.000000;1.000000
  0
LAYER
  5
F6
330
2
100
AcDbSymbolTableRecord
100
AcDbLayerTableRecord
  2
plateau v8_Sketch38
 70
     0
 62
     7
  6
Continuous
370
    -3
390
F
347
21
348
0
1001
NFusion_SketchTransform
1000
1.000000;0.000000;0.000000;0.000000;0.000000;1.000000;0.000000;0.000000;0.000000;0.000000;1.000000;0.000000;0.000000;0.000000;0.000000;1.000000
  0
LAYER
  5
FB
330
2
100
AcDbSymbolTableRecord
100
AcDbLayerTableRecord
  2
plateau v8_Sketch39
 70
     0
 62
     7
  6
Continuous
370
    -3
390
F
347
21
348
0
1001
NFusion_SketchTransform
1000
1.000000;0.000000;0.000000;0.000000;0.000000;1.000000;0.000000;0.000000;0.000000;0.000000;1.000000;0.000000;0.000000;0.000000;0.000000;1.000000
  0
LAYER
  5
FD
330
2
100
AcDbSymbolTableRecord
100
AcDbLayerTableRecord
  2
plateau v8_Sketch40
 70
     0
 62
     7
  6
Continuous
370
    -3
390
F
347
21
348
0
1001
NFusion_SketchTransform
1000
1.000000;0.000000;0.000000;0.000000;0.000000;1.000000;0.000000;0.000000;0.000000;0.000000;1.000000;0.000000;0.000000;0.000000;0.000000;1.000000
  0
LAYER
  5
1E1
330
2
100
AcDbSymbolTableRecord
100
AcDbLayerTableRecord
  2
plateau v8_Sketch41
 70
     0
 62
     7
  6
Continuous
370
    -3
390
F
347
21
348
0
1001
NFusion_SketchTransform
1000
1.000000;0.000000;0.000000;0.000000;0.000000;1.000000;0.000000;0.000000;0.000000;0.000000;1.000000;0.000000;0.000000;0.000000;0.000000;1.000000
  0
LAYER
  5
1E3
330
2
100
AcDbSymbolTableRecord
100
AcDbLayerTableRecord
  2
plateau v8_Sketch42
 70
     0
 62
     7
  6
Continuous
370
    -3
390
F
347
21
348
0
1001
NFusion_SketchTransform
1000
1.000000;0.000000;0.000000;0.000000;0.000000;1.000000;0.000000;0.000000;0.000000;0.000000;1.000000;0.000000;0.000000;0.000000;0.000000;1.000000
  0
LAYER
  5
1E5
330
2
100
AcDbSymbolTableRecord
100
AcDbLayerTableRecord
  2
plateau v8_Sketch43
 70
     0
 62
     7
  6
Continuous
370
    -3
390
F
347
21
348
0
1001
NFusion_SketchTransform
1000
1.000000;0.000000;0.000000;0.000000;0.000000;1.000000;0.000000;0.000000;0.000000;0.000000;1.000000;0.000000;0.000000;0.000000;0.000000;1.000000
  0
LAYER
  5
1E7
330
2
100
AcDbSymbolTableRecord
100
AcDbLayerTableRecord
  2
plateau v8_Sketch44
 70
     0
 62
     7
  6
Continuous
370
    -3
390
F
347
21
348
0
1001
NFusion_SketchTransform
1000
1.000000;0.000000;0.000000;0.000000;0.000000;1.000000;0.000000;0.000000;0.000000;0.000000;1.000000;0.000000;0.000000;0.000000;0.000000;1.000000
  0
LAYER
  5
1E9
330
2
100
AcDbSymbolTableRecord
100
AcDbLayerTableRecord
  2
plateau v8_Sketch45
 70
     0
 62
     7
  6
Continuous
370
    -3
390
F
347
21
348
0
1001
NFusion_SketchTransform
1000
1.000000;0.000000;0.000000;0.000000;0.000000;1.000000;0.000000;0.000000;0.000000;0.000000;1.000000;0.000000;0.000000;0.000000;0.000000;1.000000
  0
LAYER
  5
1EB
330
2
100
AcDbSymbolTableRecord
100
AcDbLayerTableRecord
  2
plateau v8_Sketch46
 70
     0
 62
     7
  6
Continuous
370
    -3
390
F
347
21
348
0
1001
NFusion_SketchTransform
1000
1.000000;0.000000;0.000000;0.000000;0.000000;1.000000;0.000000;0.000000;0.000000;0.000000;1.000000;0.000000;0.000000;0.000000;0.000000;1.000000
  0
LAYER
  5
1ED
330
2
100
AcDbSymbolTableRecord
100
AcDbLayerTableRecord
  2
plateau v8_Sketch47
 70
     0
 62
     7
  6
Continuous
370
    -3
390
F
347
21
348
0
1001
NFusion_SketchTransform
1000
1.000000;0.000000;0.000000;0.000000;0.000000;1.000000;0.000000;0.000000;0.000000;0.000000;1.000000;0.000000;0.000000;0.000000;0.000000;1.000000
  0
LAYER
  5
1F1
330
2
100
AcDbSymbolTableRecord
100
AcDbLayerTableRecord
  2
plateau v8_Sketch48
 70
     0
 62
     7
  6
Continuous
370
    -3
390
F
347
21
348
0
1001
NFusion_SketchTransform
1000
1.000000;0.000000;0.000000;0.000000;0.000000;1.000000;0.000000;0.000000;0.000000;0.000000;1.000000;0.000000;0.000000;0.000000;0.000000;1.000000
  0
LAYER
  5
1F5
330
2
100
AcDbSymbolTableRecord
100
AcDbLayerTableRecord
  2
plateau v8_Sketch49
 70
     0
 62
     7
  6
Continuous
370
    -3
390
F
347
21
348
0
1001
NFusion_SketchTransform
1000
1.000000;0.000000;0.000000;0.000000;0.000000;1.000000;0.000000;0.000000;0.000000;0.000000;1.000000;0.000000;0.000000;0.000000;0.000000;1.000000
  0
LAYER
  5
1F7
330
2
100
AcDbSymbolTableRecord
100
AcDbLayerTableRecord
  2
plateau v8_Sketch50
 70
     0
 62
     7
  6
Continuous
370
    -3
390
F
347
21
348
0
1001
NFusion_SketchTransform
1000
1.000000;0.000000;0.000000;0.000000;0.000000;1.000000;0.000000;0.000000;0.000000;0.000000;1.000000;0.000000;0.000000;0.000000;0.000000;1.000000
  0
LAYER
  5
1FB
330
2
100
AcDbSymbolTableRecord
100
AcDbLayerTableRecord
  2
plateau v8_Sketch51
 70
     0
 62
     7
  6
Continuous
370
    -3
390
F
347
21
348
0
1001
NFusion_SketchTransform
1000
1.000000;0.000000;0.000000;0.000000;0.000000;1.000000;0.000000;0.000000;0.000000;0.000000;1.000000;0.000000;0.000000;0.000000;0.000000;1.000000
  0
ENDTAB
  0
TABLE
  2
STYLE
  5
3
330
0
100
AcDbSymbolTable
 70
     2
  0
STYLE
  5
55
330
3
100
AcDbSymbolTableRecord
100
AcDbTextStyleTableRecord
  2
Standard
 70
     0
 40
0.0
 41
1.0
 50
0.0
 71
     0
 42
0.2
  3
txt
  4

  0
STYLE
  5
5A
330
3
100
AcDbSymbolTableRecord
100
AcDbTextStyleTableRecord
  2
Annotative
 70
     0
 40
0.0
 41
1.0
 50
0.0
 71
     0
 42
0.2
  3
txt
  4

1001
AcadAnnotative
1000
AnnotativeData
1002
{
1070
     1
1070
     1
1002
}
  0
ENDTAB
  0
TABLE
  2
VIEW
  5
6
330
0
100
AcDbSymbolTable
 70
     0
  0
ENDTAB
  0
TABLE
  2
UCS
  5
7
330
0
100
AcDbSymbolTable
 70
     0
  0
ENDTAB
  0
TABLE
  2
APPID
  5
9
330
0
100
AcDbSymbolTable
 70
     4
  0
APPID
  5
56
330
9
100
AcDbSymbolTableRecord
100
AcDbRegAppTableRecord
  2
ACAD
 70
     0
  0
APPID
  5
5E
330
9
100
AcDbSymbolTableRecord
100
AcDbRegAppTableRecord
  2
AcadAnnotative
 70
     0
  0
APPID
  5
78
330
9
100
AcDbSymbolTableRecord
100
AcDbRegAppTableRecord
  2
EDIT_IN_FUSION_ACAD_ADDIN
 70
     0
  0
APPID
  5
79
330
9
100
AcDbSymbolTableRecord
100
AcDbRegAppTableRecord
  2
NFusion_SketchTransform
 70
     0
  0
ENDTAB
  0
TABLE
  2
DIMSTYLE
  5
A
330
0
100
AcDbSymbolTable
 70
     2
100
AcDbDimStyleTable
 71
     0
  0
DIMSTYLE
105
58
330
A
100
AcDbSymbolTableRecord
100
AcDbDimStyleTableRecord
  2
Standard
 70
     0
340
55
  0
DIMSTYLE
105
59
330
A
100
AcDbSymbolTableRecord
100
AcDbDimStyleTableRecord
  2
Annotative
 70
     0
340
55
1001
AcadAnnotative
1000
AnnotativeData
1002
{
1070
     1
1070
     1
1002
}
  0
ENDTAB
  0
TABLE
  2
BLOCK_RECORD
  5
1
330
0
100
AcDbSymbolTable
 70
     1
  0
BLOCK_RECORD
  5
70
330
1
100
AcDbSymbolTableRecord
100
AcDbBlockTableRecord
  2
*Model_Space
340
73
 70
     0
280
     1
281
     0
  0
BLOCK_RECORD
  5
6C
330
1
100
AcDbSymbolTableRecord
100
AcDbBlockTableRecord
  2
*Paper_Space
340
6F
 70
     0
280
     1
281
     0
  0
BLOCK_RECORD
  5
74
330
1
100
AcDbSymbolTableRecord
100
AcDbBlockTableRecord
  2
*Paper_Space0
340
77
 70
     0
280
     1
281
     0
  0
ENDTAB
  0
ENDSEC
  0
SECTION
  2
BLOCKS
  0
BLOCK
  5
71
330
70
100
AcDbEntity
  8
0
100
AcDbBlockBegin
  2
*Model_Space
 70
     0
 10
0.0
 20
0.0
 30
0.0
  3
*Model_Space
  1

  0
ENDBLK
  5
72
330
70
100
AcDbEntity
  8
0
100
AcDbBlockEnd
  0
BLOCK
  5
6D
330
6C
100
AcDbEntity
 67
     1
  8
0
100
AcDbBlockBegin
  2
*Paper_Space
 70
     0
 10
0.0
 20
0.0
 30
0.0
  3
*Paper_Space
  1

  0
ENDBLK
  5
6E
330
6C
100
AcDbEntity
 67
     1
  8
0
100
AcDbBlockEnd
  0
BLOCK
  5
75
330
74
100
AcDbEntity
 67
     1
  8
0
100
AcDbBlockBegin
  2
*Paper_Space0
 70
     0
 10
0.0
 20
0.0
 30
0.0
  3
*Paper_Space0
  1

  0
ENDBLK
  5
76
330
74
100
AcDbEntity
 67
     1
  8
0
100
AcDbBlockEnd
  0
ENDSEC
  0
SECTION
  2
ENTITIES
  0
CIRCLE
  5
7B
330
70
100
AcDbEntity
  8
plateau v8_plateau_pick_and_place (1)
100
AcDbCircle
 10
220.0000000000003
 20
5.107387750592845
 30
0.0
 40
1.6
  0
LINE
  5
7C
330
70
100
AcDbEntity
  8
plateau v8_plateau_pick_and_place (1)
100
AcDbLine
 10
0.0
 20
224.9443325729711
 30
0.0
 11
0.0
 21
0.0
 31
0.0
  0
LINE
  5
7D
330
70
100
AcDbEntity
  8
plateau v8_plateau_pick_and_place (1)
100
AcDbLine
 10
225.5193219853596
 20
224.9443325729712
 30
0.0
 11
0.0
 21
224.9443325729711
 31
0.0
  0
LINE
  5
7E
330
70
100
AcDbEntity
  8
plateau v8_plateau_pick_and_place (1)
100
AcDbLine
 10
0.0
 20
0.0
 30
0.0
 11
225.5193219853595
 21
0.0749759180311249
 31
0.0
  0
LINE
  5
7F
330
70
100
AcDbEntity
  8
plateau v8_plateau_pick_and_place (1)
100
AcDbLine
 10
225.5193219853595
 20
0.0749759180311249
 30
0.0
 11
225.5193219853596
 21
224.9443325729712
 31
0.0
  0
POINT
  5
81
330
70
100
AcDbEntity
  8
plateau v8_Sketch2
100
AcDbPoint
 10
0.0
 20
0.0
 30
0.0
  0
POINT
  5
83
330
70
100
AcDbEntity
  8
plateau v8_Sketch3
100
AcDbPoint
 10
0.0
 20
0.0
 30
0.0
  0
POINT
  5
85
330
70
100
AcDbEntity
  8
plateau v8_Sketch4
100
AcDbPoint
 10
0.0
 20
0.0
 30
0.0
  0
POINT
  5
87
330
70
100
AcDbEntity
  8
plateau v8_Sketch5
100
AcDbPoint
 10
0.0
 20
0.0
 30
0.0
  0
CIRCLE
  5
88
330
70
100
AcDbEntity
  8
plateau v8_Sketch5
100
AcDbCircle
 10
149.314547107191
 20
121.7616314000585
 30
0.0
 40
1.500000000000003
  0
CIRCLE
  5
89
330
70
100
AcDbEntity
  8
plateau v8_Sketch5
100
AcDbCircle
 10
175.8675957376349
 20
121.758494444034
 30
0.0
 40
1.500000000000002
  0
POINT
  5
8B
330
70
100
AcDbEntity
  8
plateau v8_Sketch6
100
AcDbPoint
 10
0.0
 20
0.0
 30
0.0
  0
CIRCLE
  5
8C
330
70
100
AcDbEntity
  8
plateau v8_Sketch6
100
AcDbCircle
 10
175.867597227751
 20
100.2584956361272
 30
0.0
 40
1.500000000000003
  0
POINT
  5
8E
330
70
100
AcDbEntity
  8
plateau v8_Sketch7
100
AcDbPoint
 10
0.0
 20
0.0
 30
0.0
  0
POINT
  5
90
330
70
100
AcDbEntity
  8
plateau v8_Sketch8
100
AcDbPoint
 10
0.0
 20
0.0
 30
0.0
  0
POINT
  5
92
330
70
100
AcDbEntity
  8
plateau v8_Sketch9
100
AcDbPoint
 10
0.0
 20
0.0
 30
0.0
  0
POINT
  5
94
330
70
100
AcDbEntity
  8
plateau v8_Sketch10
100
AcDbPoint
 10
0.0
 20
0.0
 30
0.0
  0
POINT
  5
96
330
70
100
AcDbEntity
  8
plateau v8_Sketch11
100
AcDbPoint
 10
0.0
 20
0.0
 30
0.0
  0
POINT
  5
98
330
70
100
AcDbEntity
  8
plateau v8_Sketch12
100
AcDbPoint
 10
0.0
 20
0.0
 30
0.0
  0
POINT
  5
99
330
70
100
AcDbEntity
  8
plateau v8_Sketch12
100
AcDbPoint
 10
175.867597227751
 20
100.2584956361272
 30
0.0
  0
POINT
  5
9A
330
70
100
AcDbEntity
  8
plateau v8_Sketch12
100
AcDbPoint
 10
149.314547107191
 20
121.7616314000585
 30
0.0
  0
CIRCLE
  5
9B
330
70
100
AcDbEntity
  8
plateau v8_Sketch12
100
AcDbCircle
 10
149.314547107191
 20
100.2584956361272
 30
0.0
 40
1.5
  0
POINT
  5
9D
330
70
100
AcDbEntity
  8
plateau v8_Sketch13
100
AcDbPoint
 10
0.0
 20
0.0
 30
0.0
  0
POINT
  5
9E
330
70
100
AcDbEntity
  8
plateau v8_Sketch13
100
AcDbPoint
 10
220.0000000000003
 20
5.107387750592845
 30
0.0
  0
CIRCLE
  5
9F
330
70
100
AcDbEntity
  8
plateau v8_Sketch13
100
AcDbCircle
 10
5.000000074505805
 20
5.107387750592845
 30
0.0
 40
1.6
  0
POINT
  5
A1
330
70
100
AcDbEntity
  8
plateau v8_Sketch14
100
AcDbPoint
 10
5.000000074505805
 20
5.107387750592845
 30
0.0
  0
POINT
  5
A2
330
70
100
AcDbEntity
  8
plateau v8_Sketch14
100
AcDbPoint
 10
0.0
 20
0.0
 30
0.0
  0
POINT
  5
A4
330
70
100
AcDbEntity
  8
plateau v8_Sketch15
100
AcDbPoint
 10
0.0
 20
0.0
 30
0.0
  0
POINT
  5
A5
330
70
100
AcDbEntity
  8
plateau v8_Sketch15
100
AcDbPoint
 10
5.000000074505805
 20
5.107387750592845
 30
0.0
  0
CIRCLE
  5
A6
330
70
100
AcDbEntity
  8
plateau v8_Sketch15
100
AcDbCircle
 10
5.000000074505805
 20
215.1070032484531
 30
0.0
 40
1.600000000000003
  0
POINT
  5
A8
330
70
100
AcDbEntity
  8
plateau v8_Sketch16
100
AcDbPoint
 10
0.0
 20
0.0
 30
0.0
  0
POINT
  5
A9
330
70
100
AcDbEntity
  8
plateau v8_Sketch16
100
AcDbPoint
 10
220.0000000000003
 20
5.107387750592845
 30
0.0
  0
POINT
  5
AA
330
70
100
AcDbEntity
  8
plateau v8_Sketch16
100
AcDbPoint
 10
5.000000074505805
 20
215.1070032484531
 30
0.0
  0
CIRCLE
  5
AB
330
70
100
AcDbEntity
  8
plateau v8_Sketch16
100
AcDbCircle
 10
220.0000000000003
 20
215.1070032484531
 30
0.0
 40
1.600000000000004
  0
POINT
  5
AD
330
70
100
AcDbEntity
  8
plateau v8_Sketch17
100
AcDbPoint
 10
0.0
 20
0.0
 30
0.0
  0
CIRCLE
  5
AE
330
70
100
AcDbEntity
  8
plateau v8_Sketch17
100
AcDbCircle
 10
17.00000000000002
 20
200.231
 30
0.0
 40
1.599999999999997
  0
LINE
  5
AF
330
70
100
AcDbEntity
  8
plateau v8_Sketch17
100
AcDbLine
 10
0.0
 20
224.9443325729711
 30
0.0
 11
0.0
 21
0.0
 31
0.0
  0
CIRCLE
  5
B0
330
70
100
AcDbEntity
  8
plateau v8_Sketch17
100
AcDbCircle
 10
17.0
 20
170.0
 30
0.0
 40
1.6
  0
POINT
  5
B2
330
70
100
AcDbEntity
  8
plateau v8_Sketch18
100
AcDbPoint
 10
0.0
 20
0.0
 30
0.0
  0
POINT
  5
B4
330
70
100
AcDbEntity
  8
plateau v8_Sketch19
100
AcDbPoint
 10
0.0
 20
0.0
 30
0.0
  0
POINT
  5
B6
330
70
100
AcDbEntity
  8
plateau v8_Sketch20
100
AcDbPoint
 10
0.0
 20
0.0
 30
0.0
  0
POINT
  5
B8
330
70
100
AcDbEntity
  8
plateau v8_Sketch21
100
AcDbPoint
 10
0.0
 20
0.0
 30
0.0
  0
POINT
  5
BA
330
70
100
AcDbEntity
  8
plateau v8_Sketch22
100
AcDbPoint
 10
0.0
 20
0.0
 30
0.0
  0
POINT
  5
BC
330
70
100
AcDbEntity
  8
plateau v8_Sketch24
100
AcDbPoint
 10
0.0
 20
0.0
 30
0.0
  0
CIRCLE
  5
BD
330
70
100
AcDbEntity
  8
plateau v8_Sketch24
100
AcDbCircle
 10
222.0
 20
35.00000000000001
 30
0.0
 40
1.25
  0
POINT
  5
BF
330
70
100
AcDbEntity
  8
plateau v8_Sketch25
100
AcDbPoint
 10
222.0
 20
35.00000000000001
 30
0.0
  0
POINT
  5
C0
330
70
100
AcDbEntity
  8
plateau v8_Sketch25
100
AcDbPoint
 10
0.0
 20
0.0
 30
0.0
  0
CIRCLE
  5
C1
330
70
100
AcDbEntity
  8
plateau v8_Sketch25
100
AcDbCircle
 10
222.0000000000005
 20
65.52829517867968
 30
0.0
 40
1.25
  0
POINT
  5
C3
330
70
100
AcDbEntity
  8
plateau v8_Sketch26
100
AcDbPoint
 10
222.0
 20
35.00000000000001
 30
0.0
  0
POINT
  5
C4
330
70
100
AcDbEntity
  8
plateau v8_Sketch26
100
AcDbPoint
 10
0.0
 20
0.0
 30
0.0
  0
CIRCLE
  5
C5
330
70
100
AcDbEntity
  8
plateau v8_Sketch26
100
AcDbCircle
 10
206.9432348053118
 20
35.00000000000001
 30
0.0
 40
1.249999999999998
  0
POINT
  5
C7
330
70
100
AcDbEntity
  8
plateau v8_Sketch27
100
AcDbPoint
 10
206.9432348053118
 20
35.00000000000001
 30
0.0
  0
POINT
  5
C8
330
70
100
AcDbEntity
  8
plateau v8_Sketch27
100
AcDbPoint
 10
0.0
 20
0.0
 30
0.0
  0
POINT
  5
CA
330
70
100
AcDbEntity
  8
plateau v8_Sketch28
100
AcDbPoint
 10
206.9432348053118
 20
35.00000000000001
 30
0.0
  0
POINT
  5
CB
330
70
100
AcDbEntity
  8
plateau v8_Sketch28
100
AcDbPoint
 10
222.0000000000005
 20
65.52829517867968
 30
0.0
  0
POINT
  5
CC
330
70
100
AcDbEntity
  8
plateau v8_Sketch28
100
AcDbPoint
 10
0.0
 20
0.0
 30
0.0
  0
CIRCLE
  5
CD
330
70
100
AcDbEntity
  8
plateau v8_Sketch28
100
AcDbCircle
 10
206.9432348053118
 20
65.52829517867968
 30
0.0
 40
1.249999999999986
  0
POINT
  5
CF
330
70
100
AcDbEntity
  8
plateau v8_Sketch29
100
AcDbPoint
 10
0.0
 20
0.0
 30
0.0
  0
POINT
  5
D0
330
70
100
AcDbEntity
  8
plateau v8_Sketch29
100
AcDbPoint
 10
17.00000000000002
 20
200.231
 30
0.0
  0
CIRCLE
  5
D1
330
70
100
AcDbEntity
  8
plateau v8_Sketch29
100
AcDbCircle
 10
53.99999999999999
 20
200.231
 30
0.0
 40
1.599999999999995
  0
POINT
  5
D3
330
70
100
AcDbEntity
  8
plateau v8_Sketch30
100
AcDbPoint
 10
17.0
 20
170.0
 30
0.0
  0
POINT
  5
D4
330
70
100
AcDbEntity
  8
plateau v8_Sketch30
100
AcDbPoint
 10
53.99999999999999
 20
200.231
 30
0.0
  0
POINT
  5
D5
330
70
100
AcDbEntity
  8
plateau v8_Sketch30
100
AcDbPoint
 10
0.0
 20
0.0
 30
0.0
  0
CIRCLE
  5
D6
330
70
100
AcDbEntity
  8
plateau v8_Sketch30
100
AcDbCircle
 10
53.99999999999999
 20
170.0
 30
0.0
 40
1.600000000000008
  0
POINT
  5
D8
330
70
100
AcDbEntity
  8
plateau v8_Sketch31
100
AcDbPoint
 10
0.0
 20
0.0
 30
0.0
  0
POINT
  5
D9
330
70
100
AcDbEntity
  8
plateau v8_Sketch31
100
AcDbPoint
 10
53.99999999999999
 20
200.231
 30
0.0
  0
CIRCLE
  5
DA
330
70
100
AcDbEntity
  8
plateau v8_Sketch31
100
AcDbCircle
 10
91.00000000000001
 20
200.231
 30
0.0
 40
1.600000000000004
  0
POINT
  5
DC
330
70
100
AcDbEntity
  8
plateau v8_Sketch32
100
AcDbPoint
 10
0.0
 20
0.0
 30
0.0
  0
POINT
  5
DD
330
70
100
AcDbEntity
  8
plateau v8_Sketch32
100
AcDbPoint
 10
53.99999999999999
 20
170.0
 30
0.0
  0
POINT
  5
DE
330
70
100
AcDbEntity
  8
plateau v8_Sketch32
100
AcDbPoint
 10
91.00000000000001
 20
200.231
 30
0.0
  0
CIRCLE
  5
DF
330
70
100
AcDbEntity
  8
plateau v8_Sketch32
100
AcDbCircle
 10
91.00000000000001
 20
170.0
 30
0.0
 40
1.599999999999992
  0
POINT
  5
E1
330
70
100
AcDbEntity
  8
plateau v8_Sketch33
100
AcDbPoint
 10
0.0
 20
0.0
 30
0.0
  0
POINT
  5
E2
330
70
100
AcDbEntity
  8
plateau v8_Sketch33
100
AcDbPoint
 10
91.00000000000001
 20
200.231
 30
0.0
  0
CIRCLE
  5
E3
330
70
100
AcDbEntity
  8
plateau v8_Sketch33
100
AcDbCircle
 10
128.0
 20
200.231
 30
0.0
 40
1.6
  0
POINT
  5
E5
330
70
100
AcDbEntity
  8
plateau v8_Sketch34
100
AcDbPoint
 10
128.0
 20
200.231
 30
0.0
  0
POINT
  5
E6
330
70
100
AcDbEntity
  8
plateau v8_Sketch34
100
AcDbPoint
 10
0.0
 20
0.0
 30
0.0
  0
POINT
  5
E7
330
70
100
AcDbEntity
  8
plateau v8_Sketch34
100
AcDbPoint
 10
91.00000000000001
 20
170.0
 30
0.0
  0
CIRCLE
  5
E8
330
70
100
AcDbEntity
  8
plateau v8_Sketch34
100
AcDbCircle
 10
128.0
 20
170.0
 30
0.0
 40
1.600000000000001
  0
POINT
  5
EA
330
70
100
AcDbEntity
  8
plateau v8_Sketch35
100
AcDbPoint
 10
0.0
 20
0.0
 30
0.0
  0
POINT
  5
EB
330
70
100
AcDbEntity
  8
plateau v8_Sketch35
100
AcDbPoint
 10
128.0
 20
200.231
 30
0.0
  0
CIRCLE
  5
EC
330
70
100
AcDbEntity
  8
plateau v8_Sketch35
100
AcDbCircle
 10
164.9999999999999
 20
200.231
 30
0.0
 40
1.599999999999994
  0
POINT
  5
EE
330
70
100
AcDbEntity
  8
plateau v8_Sketch36
100
AcDbPoint
 10
128.0
 20
170.0
 30
0.0
  0
POINT
  5
EF
330
70
100
AcDbEntity
  8
plateau v8_Sketch36
100
AcDbPoint
 10
0.0
 20
0.0
 30
0.0
  0
POINT
  5
F0
330
70
100
AcDbEntity
  8
plateau v8_Sketch36
100
AcDbPoint
 10
164.9999999999999
 20
200.231
 30
0.0
  0
CIRCLE
  5
F1
330
70
100
AcDbEntity
  8
plateau v8_Sketch36
100
AcDbCircle
 10
164.9999999999999
 20
170.0
 30
0.0
 40
1.599999999999999
  0
POINT
  5
F3
330
70
100
AcDbEntity
  8
plateau v8_Sketch37
100
AcDbPoint
 10
0.0
 20
0.0
 30
0.0
  0
POINT
  5
F4
330
70
100
AcDbEntity
  8
plateau v8_Sketch37
100
AcDbPoint
 10
164.9999999999999
 20
200.231
 30
0.0
  0
CIRCLE
  5
F5
330
70
100
AcDbEntity
  8
plateau v8_Sketch37
100
AcDbCircle
 10
202.0
 20
200.231
 30
0.0
 40
1.599999999999991
  0
POINT
  5
F7
330
70
100
AcDbEntity
  8
plateau v8_Sketch38
100
AcDbPoint
 10
202.0
 20
200.231
 30
0.0
  0
POINT
  5
F8
330
70
100
AcDbEntity
  8
plateau v8_Sketch38
100
AcDbPoint
 10
0.0
 20
0.0
 30
0.0
  0
POINT
  5
F9
330
70
100
AcDbEntity
  8
plateau v8_Sketch38
100
AcDbPoint
 10
164.9999999999999
 20
170.0
 30
0.0
  0
CIRCLE
  5
FA
330
70
100
AcDbEntity
  8
plateau v8_Sketch38
100
AcDbCircle
 10
202.0
 20
170.0
 30
0.0
 40
1.60000000000001
  0
POINT
  5
FC
330
70
100
AcDbEntity
  8
plateau v8_Sketch39
100
AcDbPoint
 10
0.0
 20
0.0
 30
0.0
  0
POINT
  5
FE
330
70
100
AcDbEntity
  8
plateau v8_Sketch40
100
AcDbPoint
 10
0.0
 20
0.0
 30
0.0
  0
SPLINE
  5
FF
330
70
100
AcDbEntity
  8
plateau v8_Sketch40
100
AcDbSpline
210
0.0
220
0.0
230
1.0
 70
     8
 71
     2
 72
     6
 73
     3
 74
     0
 42
0.000000001
 43
0.0000000001
 40
0.0
 40
0.0
 40
0.0
 40
1.0
 40
1.0
 40
1.0
 10
18.51179826688082
 20
19.77489094315522
 30
0.0
 10
18.16504228543551
 20
19.46914891777986
 30
0.0
 10
18.16504228543551
 20
18.98443560181611
 30
0.0
  0
LINE
  5
100
330
70
100
AcDbEntity
  8
plateau v8_Sketch40
100
AcDbLine
 10
15.02559426855357
 20
9.789805217370926
 30
0.0
 11
15.02559426855357
 21
14.00307874260896
 31
0.0
  0
LINE
  5
101
330
70
100
AcDbEntity
  8
plateau v8_Sketch40
100
AcDbLine
 10
15.40590744149001
 20
14.00307874260896
 30
0.0
 11
15.40590744149001
 21
13.95833711205476
 31
0.0
  0
SPLINE
  5
102
330
70
100
AcDbEntity
  8
plateau v8_Sketch40
100
AcDbSpline
210
0.0
220
0.0
230
1.0
 70
     8
 71
     2
 72
     6
 73
     3
 74
     0
 42
0.000000001
 43
0.0000000001
 40
0.0
 40
0.0
 40
0.0
 40
1.0
 40
1.0
 40
1.0
 10
21.72208893727572
 20
19.28272049008363
 30
0.0
 10
20.5960636181763
 20
20.08063296853059
 30
0.0
 10
19.41783893536837
 20
20.08063296853059
 30
0.0
  0
SPLINE
  5
103
330
70
100
AcDbEntity
  8
plateau v8_Sketch40
100
AcDbSpline
210
0.0
220
0.0
230
1.0
 70
     8
 71
     2
 72
     6
 73
     3
 74
     0
 42
0.000000001
 43
0.0000000001
 40
0.0
 40
0.0
 40
0.0
 40
1.0
 40
1.0
 40
1.0
 10
15.79740632008822
 20
12.2096417385196
 30
0.0
 10
16.18890512418063
 20
11.49748663483613
 30
0.0
 10
17.02037427257807
 20
10.93447427330964
 30
0.0
  0
SPLINE
  5
104
330
70
100
AcDbEntity
  8
plateau v8_Sketch40
100
AcDbSpline
210
0.0
220
0.0
230
1.0
 70
     8
 71
     2
 72
     6
 73
     3
 74
     0
 42
0.000000001
 43
0.0000000001
 40
0.0
 40
0.0
 40
0.0
 40
1.0
 40
1.0
 40
1.0
 10
16.47227588724406
 20
19.48033432541841
 30
0.0
 10
17.56847250890048
 20
20.47586063920015
 30
0.0
 10
19.2090390963486
 20
20.47586063920015
 30
0.0
  0
LINE
  5
105
330
70
100
AcDbEntity
  8
plateau v8_Sketch40
100
AcDbLine
 10
33.82499683331759
 20
18.78309409199708
 30
0.0
 11
30.51403510998996
 21
10.19994716225617
 31
0.0
  0
SPLINE
  5
106
330
70
100
AcDbEntity
  8
plateau v8_Sketch40
100
AcDbSpline
210
0.0
220
0.0
230
1.0
 70
     8
 71
     2
 72
     6
 73
     3
 74
     0
 42
0.000000001
 43
0.0000000001
 40
0.0
 40
0.0
 40
0.0
 40
1.0
 40
1.0
 40
1.0
 10
19.73103809785159
 20
12.59741167603486
 30
0.0
 10
19.39546752404482
 20
12.81739692269319
 30
0.0
 10
18.17995655965121
 20
13.45125178872102
 30
0.0
  0
LINE
  5
107
330
70
100
AcDbEntity
  8
plateau v8_Sketch40
100
AcDbLine
 10
29.53715312909396
 20
10.19994716225617
 30
0.0
 11
26.14416230153354
 21
18.76817981778138
 31
0.0
  0
SPLINE
  5
108
330
70
100
AcDbEntity
  8
plateau v8_Sketch40
100
AcDbSpline
210
0.0
220
0.0
230
1.0
 70
     8
 71
     2
 72
     6
 73
     3
 74
     0
 42
0.000000001
 43
0.0000000001
 40
0.0
 40
0.0
 40
0.0
 40
1.0
 40
1.0
 40
1.0
 10
20.37980723809512
 20
20.34163217125886
 30
0.0
 10
21.00620556306155
 20
20.20740370331758
 30
0.0
 10
21.86377454232486
 20
19.67049102364534
 30
0.0
  0
SPLINE
  5
109
330
70
100
AcDbEntity
  8
plateau v8_Sketch40
100
AcDbSpline
210
0.0
220
0.0
230
1.0
 70
     8
 71
     2
 72
     6
 73
     3
 74
     0
 42
0.000000001
 43
0.0000000001
 40
0.0
 40
0.0
 40
0.0
 40
1.0
 40
1.0
 40
1.0
 10
18.99278271626742
 20
9.894205136880811
 30
0.0
 10
17.59084392022402
 20
9.894205136880813
 30
0.0
 10
16.36787611674578
 20
10.84125976143831
 30
0.0
  0
SPLINE
  5
10A
330
70
100
AcDbEntity
  8
plateau v8_Sketch40
100
AcDbSpline
210
0.0
220
0.0
230
1.0
 70
     8
 71
     2
 72
     6
 73
     3
 74
     0
 42
0.000000001
 43
0.0000000001
 40
0.0
 40
0.0
 40
0.0
 40
1.0
 40
1.0
 40
1.0
 10
18.71686923932345
 20
10.37146071969026
 30
0.0
 10
19.49986684750826
 20
10.37146071969026
 30
0.0
 10
19.98085129689486
 20
10.69584588585847
 30
0.0
  0
SPLINE
  5
10B
330
70
100
AcDbEntity
  8
plateau v8_Sketch40
100
AcDbSpline
210
0.0
220
0.0
230
1.0
 70
     8
 71
     2
 72
     6
 73
     3
 74
     0
 42
0.000000001
 43
0.0000000001
 40
0.0
 40
0.0
 40
0.0
 40
1.0
 40
1.0
 40
1.0
 10
19.2090390963486
 20
20.47586063920015
 30
0.0
 10
19.75340950917513
 20
20.47586063920015
 30
0.0
 10
20.37980723809512
 20
20.34163217125886
 30
0.0
  0
LINE
  5
10C
330
70
100
AcDbEntity
  8
plateau v8_Sketch40
100
AcDbLine
 10
33.85482538174899
 20
18.78309409199708
 30
0.0
 11
33.82499683331759
 21
18.78309409199708
 31
0.0
  0
SPLINE
  5
10D
330
70
100
AcDbEntity
  8
plateau v8_Sketch40
100
AcDbSpline
210
0.0
220
0.0
230
1.0
 70
     8
 71
     2
 72
     6
 73
     3
 74
     0
 42
0.000000001
 43
0.0000000001
 40
0.0
 40
0.0
 40
0.0
 40
1.0
 40
1.0
 40
1.0
 10
26.81530344914706
 20
10.93447308121675
 30
0.0
 10
27.15833056401522
 20
10.55043201027864
 30
0.0
 10
27.85184371899874
 20
10.55043201027864
 30
0.0
  0
LINE
  5
10E
330
70
100
AcDbEntity
  8
plateau v8_Sketch40
100
AcDbLine
 10
27.85184371899875
 20
10.55043201027864
 30
0.0
 11
28.02335727643283
 21
10.55043201027864
 31
0.0
  0
SPLINE
  5
10F
330
70
100
AcDbEntity
  8
plateau v8_Sketch40
100
AcDbSpline
210
0.0
220
0.0
230
1.0
 70
     8
 71
     2
 72
     6
 73
     3
 74
     0
 42
0.000000001
 43
0.0000000001
 40
0.0
 40
0.0
 40
0.0
 40
1.0
 40
1.0
 40
1.0
 10
18.38502753209384
 20
18.37295214711183
 30
0.0
 10
18.60501277875216
 20
18.13432375966066
 30
0.0
 10
19.23141050767214
 20
17.79129664479249
 30
0.0
  0
SPLINE
  5
110
330
70
100
AcDbEntity
  8
plateau v8_Sketch40
100
AcDbSpline
210
0.0
220
0.0
230
1.0
 70
     8
 71
     2
 72
     6
 73
     3
 74
     0
 42
0.000000001
 43
0.0000000001
 40
0.0
 40
0.0
 40
0.0
 40
1.0
 40
1.0
 40
1.0
 10
19.98085129689486
 20
10.69584588585847
 30
0.0
 10
20.46183574628146
 20
11.02023105202668
 30
0.0
 10
20.46183574628146
 20
11.54222945748323
 30
0.0
  0
LINE
  5
111
330
70
100
AcDbEntity
  8
plateau v8_Sketch40
100
AcDbLine
 10
24.1754822773865
 20
10.19994716225617
 30
0.0
 11
24.1754822773865
 21
10.55043201027864
 31
0.0
  0
LINE
  5
112
330
70
100
AcDbEntity
  8
plateau v8_Sketch40
100
AcDbLine
 10
28.02335727643283
 20
10.19994716225617
 30
0.0
 11
24.1754822773865
 21
10.19994716225617
 31
0.0
  0
SPLINE
  5
113
330
70
100
AcDbEntity
  8
plateau v8_Sketch40
100
AcDbSpline
210
0.0
220
0.0
230
1.0
 70
     8
 71
     2
 72
     6
 73
     3
 74
     0
 42
0.000000001
 43
0.0000000001
 40
0.0
 40
0.0
 40
0.0
 40
1.0
 40
1.0
 40
1.0
 10
17.02037427257807
 20
10.93447427330964
 30
0.0
 10
17.85184312295229
 20
10.37146071969026
 30
0.0
 10
18.71686923932345
 20
10.37146071969026
 30
0.0
  0
SPLINE
  5
114
330
70
100
AcDbEntity
  8
plateau v8_Sketch40
100
AcDbSpline
210
0.0
220
0.0
230
1.0
 70
     8
 71
     2
 72
     6
 73
     3
 74
     0
 42
0.000000001
 43
0.0000000001
 40
0.0
 40
0.0
 40
0.0
 40
1.0
 40
1.0
 40
1.0
 10
24.1754822773865
 20
10.55043201027864
 30
0.0
 10
24.95102274846347
 20
10.55043201027864
 30
0.0
 10
25.33506501149447
 20
11.37071470795625
 30
0.0
  0
LINE
  5
115
330
70
100
AcDbEntity
  8
plateau v8_Sketch40
100
AcDbLine
 10
23.23588478993686
 20
17.00829844056123
 30
0.0
 11
22.8704856676987
 21
17.00829844056123
 31
0.0
  0
LINE
  5
116
330
70
100
AcDbEntity
  8
plateau v8_Sketch40
100
AcDbLine
 10
32.60202873181613
 20
10.55043201027864
 30
0.0
 11
33.85482538174899
 21
10.55043201027864
 31
0.0
  0
SPLINE
  5
117
330
70
100
AcDbEntity
  8
plateau v8_Sketch40
100
AcDbSpline
210
0.0
220
0.0
230
1.0
 70
     8
 71
     2
 72
     6
 73
     3
 74
     0
 42
0.000000001
 43
0.0000000001
 40
0.0
 40
0.0
 40
0.0
 40
1.0
 40
1.0
 40
1.0
 10
22.15833056401522
 20
16.02395872651094
 30
0.0
 10
22.8704856676987
 20
15.4870460468387
 30
0.0
 10
23.14639914464267
 20
14.88301972924226
 30
0.0
  0
SPLINE
  5
118
330
70
100
AcDbEntity
  8
plateau v8_Sketch40
100
AcDbSpline
210
0.0
220
0.0
230
1.0
 70
     8
 71
     2
 72
     6
 73
     3
 74
     0
 42
0.000000001
 43
0.0000000001
 40
0.0
 40
0.0
 40
0.0
 40
1.0
 40
1.0
 40
1.0
 10
19.23141050767214
 20
17.79129664479249
 30
0.0
 10
21.44617546033175
 20
16.56087140618318
 30
0.0
 10
22.15833056401522
 20
16.02395872651094
 30
0.0
  0
SPLINE
  5
119
330
70
100
AcDbEntity
  8
plateau v8_Sketch40
100
AcDbSpline
210
0.0
220
0.0
230
1.0
 70
     8
 71
     2
 72
     6
 73
     3
 74
     0
 42
0.000000001
 43
0.0000000001
 40
0.0
 40
0.0
 40
0.0
 40
1.0
 40
1.0
 40
1.0
 10
15.40590744149001
 20
13.95833711205476
 30
0.0
 10
15.40590744149001
 20
12.92179684220308
 30
0.0
 10
15.79740632008822
 20
12.2096417385196
 30
0.0
  0
LINE
  5
11A
330
70
100
AcDbEntity
  8
plateau v8_Sketch40
100
AcDbLine
 10
21.86377454232485
 20
19.67049102364534
 30
0.0
 11
23.23588478993686
 21
20.70703129349702
 31
0.0
  0
SPLINE
  5
11B
330
70
100
AcDbEntity
  8
plateau v8_Sketch40
100
AcDbSpline
210
0.0
220
0.0
230
1.0
 70
     8
 71
     2
 72
     6
 73
     3
 74
     0
 42
0.000000001
 43
0.0000000001
 40
0.0
 40
0.0
 40
0.0
 40
1.0
 40
1.0
 40
1.0
 10
23.42231262158664
 20
13.48108033715242
 30
0.0
 10
23.42231262158664
 20
12.25811223565095
 30
0.0
 10
22.77354348134311
 20
11.44528607903474
 30
0.0
  0
LINE
  5
11C
330
70
100
AcDbEntity
  8
plateau v8_Sketch40
100
AcDbLine
 10
33.85482538174899
 20
10.55043201027864
 30
0.0
 11
33.85482538174899
 21
18.78309409199708
 31
0.0
  0
SPLINE
  5
11D
330
70
100
AcDbEntity
  8
plateau v8_Sketch40
100
AcDbSpline
210
0.0
220
0.0
230
1.0
 70
     8
 71
     2
 72
     6
 73
     3
 74
     0
 42
0.000000001
 43
0.0000000001
 40
0.0
 40
0.0
 40
0.0
 40
1.0
 40
1.0
 40
1.0
 10
21.00993383359225
 20
10.26333312569612
 30
0.0
 10
19.89509451817782
 20
9.894205136880811
 30
0.0
 10
18.99278271626742
 20
9.894205136880811
 30
0.0
  0
SPLINE
  5
11E
330
70
100
AcDbEntity
  8
plateau v8_Sketch40
100
AcDbSpline
210
0.0
220
0.0
230
1.0
 70
     8
 71
     2
 72
     6
 73
     3
 74
     0
 42
0.000000001
 43
0.0000000001
 40
0.0
 40
0.0
 40
0.0
 40
1.0
 40
1.0
 40
1.0
 10
20.26422191094668
 20
12.11269836007112
 30
0.0
 10
20.0666080756119
 20
12.37742642937654
 30
0.0
 10
19.73103809785159
 20
12.59741167603486
 30
0.0
  0
LINE
  5
11F
330
70
100
AcDbEntity
  8
plateau v8_Sketch40
100
AcDbLine
 10
23.23588478993686
 20
20.70703129349702
 30
0.0
 11
23.23588478993686
 21
17.00829844056123
 31
0.0
  0
SPLINE
  5
120
330
70
100
AcDbEntity
  8
plateau v8_Sketch40
100
AcDbSpline
210
0.0
220
0.0
230
1.0
 70
     8
 71
     2
 72
     6
 73
     3
 74
     0
 42
0.000000001
 43
0.0000000001
 40
0.0
 40
0.0
 40
0.0
 40
1.0
 40
1.0
 40
1.0
 10
23.14639914464267
 20
14.88301972924226
 30
0.0
 10
23.42231262158664
 20
14.27899221955293
 30
0.0
 10
23.42231262158664
 20
13.48108033715242
 30
0.0
  0
SPLINE
  5
121
330
70
100
AcDbEntity
  8
plateau v8_Sketch40
100
AcDbSpline
210
0.0
220
0.0
230
1.0
 70
     8
 71
     2
 72
     6
 73
     3
 74
     0
 42
0.000000001
 43
0.0000000001
 40
0.0
 40
0.0
 40
0.0
 40
1.0
 40
1.0
 40
1.0
 10
18.17995655965121
 20
13.45125178872102
 30
0.0
 10
15.37607896756442
 20
14.92776255188936
 30
0.0
 10
15.37607896756442
 20
16.99338476239198
 30
0.0
  0
SPLINE
  5
122
330
70
100
AcDbEntity
  8
plateau v8_Sketch40
100
AcDbSpline
210
0.0
220
0.0
230
1.0
 70
     8
 71
     2
 72
     6
 73
     3
 74
     0
 42
0.000000001
 43
0.0000000001
 40
0.0
 40
0.0
 40
0.0
 40
1.0
 40
1.0
 40
1.0
 10
20.46183574628146
 20
11.54222945748323
 30
0.0
 10
20.46183574628146
 20
11.84797148285859
 30
0.0
 10
20.26422191094668
 20
12.11269836007112
 30
0.0
  0
SPLINE
  5
123
330
70
100
AcDbEntity
  8
plateau v8_Sketch40
100
AcDbSpline
210
0.0
220
0.0
230
1.0
 70
     8
 71
     2
 72
     6
 73
     3
 74
     0
 42
0.000000001
 43
0.0000000001
 40
0.0
 40
0.0
 40
0.0
 40
1.0
 40
1.0
 40
1.0
 10
15.37607896756442
 20
16.99338476239198
 30
0.0
 10
15.37607896756442
 20
18.48480860768312
 30
0.0
 10
16.47227588724406
 20
19.48033432541841
 30
0.0
  0
SPLINE
  5
124
330
70
100
AcDbEntity
  8
plateau v8_Sketch40
100
AcDbSpline
210
0.0
220
0.0
230
1.0
 70
     8
 71
     2
 72
     6
 73
     3
 74
     0
 42
0.000000001
 43
0.0000000001
 40
0.0
 40
0.0
 40
0.0
 40
1.0
 40
1.0
 40
1.0
 10
19.41783893536837
 20
20.08063296853059
 30
0.0
 10
18.85855484437258
 20
20.08063296853059
 30
0.0
 10
18.51179826688082
 20
19.77489094315522
 30
0.0
  0
LINE
  5
125
330
70
100
AcDbEntity
  8
plateau v8_Sketch40
100
AcDbLine
 10
15.02559426855357
 20
14.00307874260896
 30
0.0
 11
15.40590744149001
 21
14.00307874260896
 31
0.0
  0
LINE
  5
126
330
70
100
AcDbEntity
  8
plateau v8_Sketch40
100
AcDbLine
 10
39.35072410535128
 20
10.19994716225617
 30
0.0
 11
32.60202873181613
 21
10.19994716225617
 31
0.0
  0
SPLINE
  5
127
330
70
100
AcDbEntity
  8
plateau v8_Sketch40
100
AcDbSpline
210
0.0
220
0.0
230
1.0
 70
     8
 71
     2
 72
     6
 73
     3
 74
     0
 42
0.000000001
 43
0.0000000001
 40
0.0
 40
0.0
 40
0.0
 40
1.0
 40
1.0
 40
1.0
 10
18.16504228543551
 20
18.98443560181611
 30
0.0
 10
18.16504228543551
 20
18.61157993851655
 30
0.0
 10
18.38502753209384
 20
18.37295214711183
 30
0.0
  0
LINE
  5
128
330
70
100
AcDbEntity
  8
plateau v8_Sketch40
100
AcDbLine
 10
32.60202873181613
 20
10.19994716225617
 30
0.0
 11
32.60202873181613
 21
10.55043201027864
 31
0.0
  0
LINE
  5
129
330
70
100
AcDbEntity
  8
plateau v8_Sketch40
100
AcDbLine
 10
26.14416230153354
 20
18.76817981778138
 30
0.0
 11
26.14416230153354
 21
13.46616606293672
 31
0.0
  0
SPLINE
  5
12A
330
70
100
AcDbEntity
  8
plateau v8_Sketch40
100
AcDbSpline
210
0.0
220
0.0
230
1.0
 70
     8
 71
     2
 72
     6
 73
     3
 74
     0
 42
0.000000001
 43
0.0000000001
 40
0.0
 40
0.0
 40
0.0
 40
1.0
 40
1.0
 40
1.0
 10
26.14416230153354
 20
13.46616606293672
 30
0.0
 10
26.14416230153354
 20
12.727911277399
 30
0.0
 10
26.30821931790622
 20
12.02321271477693
 30
0.0
  0
LINE
  5
12B
330
70
100
AcDbEntity
  8
plateau v8_Sketch40
100
AcDbLine
 10
28.02335727643283
 20
10.55043201027864
 30
0.0
 11
28.02335727643283
 21
10.19994716225617
 31
0.0
  0
SPLINE
  5
12C
330
70
100
AcDbEntity
  8
plateau v8_Sketch40
100
AcDbSpline
210
0.0
220
0.0
230
1.0
 70
     8
 71
     2
 72
     6
 73
     3
 74
     0
 42
0.000000001
 43
0.0000000001
 40
0.0
 40
0.0
 40
0.0
 40
1.0
 40
1.0
 40
1.0
 10
22.8704856676987
 20
17.00829844056123
 30
0.0
 10
22.84811425637515
 20
18.48480860768312
 30
0.0
 10
21.72208893727572
 20
19.28272049008363
 30
0.0
  0
SPLINE
  5
12D
330
70
100
AcDbEntity
  8
plateau v8_Sketch40
100
AcDbSpline
210
0.0
220
0.0
230
1.0
 70
     8
 71
     2
 72
     6
 73
     3
 74
     0
 42
0.000000001
 43
0.0000000001
 40
0.0
 40
0.0
 40
0.0
 40
1.0
 40
1.0
 40
1.0
 10
25.33506501149447
 20
11.37071470795625
 30
0.0
 10
25.71910608243258
 20
12.19099859772676
 30
0.0
 10
25.71910608243258
 20
13.24245194970125
 30
0.0
  0
LINE
  5
12E
330
70
100
AcDbEntity
  8
plateau v8_Sketch40
100
AcDbLine
 10
30.51403510998996
 20
10.19994716225617
 30
0.0
 11
29.53715312909396
 21
10.19994716225617
 31
0.0
  0
LINE
  5
12F
330
70
100
AcDbEntity
  8
plateau v8_Sketch40
100
AcDbLine
 10
25.71910608243258
 20
13.24245194970125
 30
0.0
 11
25.71910608243258
 21
19.25289253769868
 31
0.0
  0
LINE
  5
130
330
70
100
AcDbEntity
  8
plateau v8_Sketch40
100
AcDbLine
 10
16.36787611674578
 20
10.84125976143831
 30
0.0
 11
15.02559426855357
 21
9.789805217370926
 31
0.0
  0
SPLINE
  5
131
330
70
100
AcDbEntity
  8
plateau v8_Sketch40
100
AcDbSpline
210
0.0
220
0.0
230
1.0
 70
     8
 71
     2
 72
     6
 73
     3
 74
     0
 42
0.000000001
 43
0.0000000001
 40
0.0
 40
0.0
 40
0.0
 40
1.0
 40
1.0
 40
1.0
 10
22.77354348134311
 20
11.44528607903474
 30
0.0
 10
22.12477374505313
 20
10.63245992241853
 30
0.0
 10
21.00993383359225
 20
10.26333312569612
 30
0.0
  0
LINE
  5
132
330
70
100
AcDbEntity
  8
plateau v8_Sketch40
100
AcDbLine
 10
25.71910608243258
 20
19.25289253769868
 30
0.0
 11
25.36862123441012
 21
19.84946231423371
 31
0.0
  0
SPLINE
  5
133
330
70
100
AcDbEntity
  8
plateau v8_Sketch40
100
AcDbSpline
210
0.0
220
0.0
230
1.0
 70
     8
 71
     2
 72
     6
 73
     3
 74
     0
 42
0.000000001
 43
0.0000000001
 40
0.0
 40
0.0
 40
0.0
 40
1.0
 40
1.0
 40
1.0
 10
26.30821931790622
 20
12.02321271477693
 30
0.0
 10
26.472275142186
 20
11.31851534424775
 30
0.0
 10
26.81530344914706
 20
10.93447308121675
 30
0.0
  0
LINE
  5
134
330
70
100
AcDbEntity
  8
plateau v8_Sketch40
100
AcDbLine
 10
53.95922649335177
 20
15.19621829567902
 30
0.0
 11
53.92939794492037
 21
15.22604684411042
 31
0.0
  0
SPLINE
  5
135
330
70
100
AcDbEntity
  8
plateau v8_Sketch40
100
AcDbSpline
210
0.0
220
0.0
230
1.0
 70
     8
 71
     2
 72
     6
 73
     3
 74
     0
 42
0.000000001
 43
0.0000000001
 40
0.0
 40
0.0
 40
0.0
 40
1.0
 40
1.0
 40
1.0
 10
44.44393623303683
 20
15.71448843060486
 30
0.0
 10
44.29479349087984
 20
15.93447367726319
 30
0.0
 10
43.98905265759737
 20
16.04633073388093
 30
0.0
  0
LINE
  5
136
330
70
100
AcDbEntity
  8
plateau v8_Sketch40
100
AcDbLine
 10
38.13521373700412
 20
10.55043201027863
 30
0.0
 11
39.35072410535128
 21
10.55043201027863
 31
0.0
  0
SPLINE
  5
137
330
70
100
AcDbEntity
  8
plateau v8_Sketch40
100
AcDbSpline
210
0.0
220
0.0
230
1.0
 70
     8
 71
     2
 72
     6
 73
     3
 74
     0
 42
0.000000001
 43
0.0000000001
 40
0.0
 40
0.0
 40
0.0
 40
1.0
 40
1.0
 40
1.0
 10
44.59307897519381
 20
14.89047627030365
 30
0.0
 10
44.59307897519381
 20
15.49450377999298
 30
0.0
 10
44.44393623303683
 20
15.71448843060486
 30
0.0
  0
SPLINE
  5
138
330
70
100
AcDbEntity
  8
plateau v8_Sketch40
100
AcDbSpline
210
0.0
220
0.0
230
1.0
 70
     8
 71
     2
 72
     6
 73
     3
 74
     0
 42
0.000000001
 43
0.0000000001
 40
0.0
 40
0.0
 40
0.0
 40
1.0
 40
1.0
 40
1.0
 10
43.98905265759737
 20
16.04633073388093
 30
0.0
 10
43.68330944012911
 20
16.15818719445222
 30
0.0
 10
43.31045377682955
 20
16.15818719445222
 30
0.0
  0
SPLINE
  5
139
330
70
100
AcDbEntity
  8
plateau v8_Sketch40
100
AcDbSpline
210
0.0
220
0.0
230
1.0
 70
     8
 71
     2
 72
     6
 73
     3
 74
     0
 42
0.000000001
 43
0.0000000001
 40
0.0
 40
0.0
 40
0.0
 40
1.0
 40
1.0
 40
1.0
 10
55.15236366223605
 20
13.72716526566498
 30
0.0
 10
54.61544979047091
 20
13.72716526566498
 30
0.0
 10
54.26496732663424
 20
14.06646470604889
 30
0.0
  0
LINE
  5
13A
330
70
100
AcDbEntity
  8
plateau v8_Sketch40
100
AcDbLine
 10
54.27988040875704
 20
10.19994716225617
 30
0.0
 11
48.94803989362032
 21
10.19994716225617
 31
0.0
  0
LINE
  5
13B
330
70
100
AcDbEntity
  8
plateau v8_Sketch40
100
AcDbLine
 10
48.53789556454928
 20
11.52731518326752
 30
0.0
 11
48.80635250043185
 21
11.39308671532624
 31
0.0
  0
SPLINE
  5
13C
330
70
100
AcDbEntity
  8
plateau v8_Sketch40
100
AcDbSpline
210
0.0
220
0.0
230
1.0
 70
     8
 71
     2
 72
     6
 73
     3
 74
     0
 42
0.000000001
 43
0.0000000001
 40
0.0
 40
0.0
 40
0.0
 40
1.0
 40
1.0
 40
1.0
 10
43.7504242701462
 20
10.61008910714142
 30
0.0
 10
44.01888120602877
 20
10.61008910714142
 30
0.0
 10
44.59307897519381
 20
10.93074540673249
 30
0.0
  0
LINE
  5
13D
330
70
100
AcDbEntity
  8
plateau v8_Sketch40
100
AcDbLine
 10
25.36862123441012
 20
19.84946231423371
 30
0.0
 11
24.42156720589907
 21
19.84946231423371
 31
0.0
  0
SPLINE
  5
13E
330
70
100
AcDbEntity
  8
plateau v8_Sketch40
100
AcDbSpline
210
0.0
220
0.0
230
1.0
 70
     8
 71
     2
 72
     6
 73
     3
 74
     0
 42
0.000000001
 43
0.0000000001
 40
0.0
 40
0.0
 40
0.0
 40
1.0
 40
1.0
 40
1.0
 10
47.97115552853854
 20
11.39308671532624
 30
0.0
 10
47.97115552853854
 20
11.16191606102936
 30
0.0
 10
47.98979747723849
 20
11.08734468995087
 30
0.0
  0
LINE
  5
13F
330
70
100
AcDbEntity
  8
plateau v8_Sketch40
100
AcDbLine
 10
34.02633893918307
 20
20.19994716225617
 30
0.0
 11
39.35072410535128
 21
20.19994716225617
 31
0.0
  0
SPLINE
  5
140
330
70
100
AcDbEntity
  8
plateau v8_Sketch40
100
AcDbSpline
210
0.0
220
0.0
230
1.0
 70
     8
 71
     2
 72
     6
 73
     3
 74
     0
 42
0.000000001
 43
0.0000000001
 40
0.0
 40
0.0
 40
0.0
 40
1.0
 40
1.0
 40
1.0
 10
43.41485488843233
 20
14.97996191559784
 30
0.0
 10
43.41485488843233
 20
14.4281349617099
 30
0.0
 10
43.08674085568697
 20
14.10002212105744
 30
0.0
  0
SPLINE
  5
141
330
70
100
AcDbEntity
  8
plateau v8_Sketch40
100
AcDbSpline
210
0.0
220
0.0
230
1.0
 70
     8
 71
     2
 72
     6
 73
     3
 74
     0
 42
0.000000001
 43
0.0000000001
 40
0.0
 40
0.0
 40
0.0
 40
1.0
 40
1.0
 40
1.0
 10
40.0889776987961
 20
11.78831438599579
 30
0.0
 10
40.0889776987961
 20
12.6607976394748
 30
0.0
 10
40.82723367642672
 20
13.1566951709842
 30
0.0
  0
SPLINE
  5
142
330
70
100
AcDbEntity
  8
plateau v8_Sketch40
100
AcDbSpline
210
0.0
220
0.0
230
1.0
 70
     8
 71
     2
 72
     6
 73
     3
 74
     0
 42
0.000000001
 43
0.0000000001
 40
0.0
 40
0.0
 40
0.0
 40
1.0
 40
1.0
 40
1.0
 10
42.21425760220797
 20
13.77190808831208
 30
0.0
 10
41.64005983304293
 20
13.77190808831208
 30
0.0
 10
41.28584611844332
 20
14.10747866211884
 30
0.0
  0
SPLINE
  5
143
330
70
100
AcDbEntity
  8
plateau v8_Sketch40
100
AcDbSpline
210
0.0
220
0.0
230
1.0
 70
     8
 71
     2
 72
     6
 73
     3
 74
     0
 42
0.000000001
 43
0.0000000001
 40
0.0
 40
0.0
 40
0.0
 40
1.0
 40
1.0
 40
1.0
 10
48.09046972226412
 20
11.01277331887238
 30
0.0
 10
48.23215473126681
 20
11.01277331887238
 30
0.0
 10
48.53789556454928
 20
11.52731518326752
 30
0.0
  0
LINE
  5
144
330
70
100
AcDbEntity
  8
plateau v8_Sketch40
100
AcDbLine
 10
24.42156720589907
 20
20.19994716225618
 30
0.0
 11
30.0666080756119
 21
20.19994716225617
 31
0.0
  0
SPLINE
  5
145
330
70
100
AcDbEntity
  8
plateau v8_Sketch40
100
AcDbSpline
210
0.0
220
0.0
230
1.0
 70
     8
 71
     2
 72
     6
 73
     3
 74
     0
 42
0.000000001
 43
0.0000000001
 40
0.0
 40
0.0
 40
0.0
 40
1.0
 40
1.0
 40
1.0
 10
43.84736764859469
 20
13.25736741600983
 30
0.0
 10
43.54908216428072
 20
13.25736741600983
 30
0.0
 10
43.42231023740084
 20
13.10822467385285
 30
0.0
  0
SPLINE
  5
146
330
70
100
AcDbEntity
  8
plateau v8_Sketch40
100
AcDbSpline
210
0.0
220
0.0
230
1.0
 70
     8
 71
     2
 72
     6
 73
     3
 74
     0
 42
0.000000001
 43
0.0000000001
 40
0.0
 40
0.0
 40
0.0
 40
1.0
 40
1.0
 40
1.0
 10
40.79367626141817
 20
10.50941805420869
 30
0.0
 10
40.0889776987961
 20
11.02023105202668
 30
0.0
 10
40.0889776987961
 20
11.78831438599579
 30
0.0
  0
SPLINE
  5
147
330
70
100
AcDbEntity
  8
plateau v8_Sketch40
100
AcDbSpline
210
0.0
220
0.0
230
1.0
 70
     8
 71
     2
 72
     6
 73
     3
 74
     0
 42
0.000000001
 43
0.0000000001
 40
0.0
 40
0.0
 40
0.0
 40
1.0
 40
1.0
 40
1.0
 10
56.17772090863497
 20
16.09107296048157
 30
0.0
 10
56.50956142377169
 20
15.74804524956696
 30
0.0
 10
56.50956142377169
 20
15.16638974724762
 30
0.0
  0
LINE
  5
148
330
70
100
AcDbEntity
  8
plateau v8_Sketch40
100
AcDbLine
 10
32.10240233372958
 20
15.22604684411042
 30
0.0
 11
34.02633893918307
 21
20.19994716225617
 31
0.0
  0
SPLINE
  5
149
330
70
100
AcDbEntity
  8
plateau v8_Sketch40
100
AcDbSpline
210
0.0
220
0.0
230
1.0
 70
     8
 71
     2
 72
     6
 73
     3
 74
     0
 42
0.000000001
 43
0.0000000001
 40
0.0
 40
0.0
 40
0.0
 40
1.0
 40
1.0
 40
1.0
 10
41.64378631543429
 20
16.10971610127442
 30
0.0
 10
42.35594261121065
 20
16.50867204247468
 30
0.0
 10
43.66093862485201
 20
16.50867204247468
 30
0.0
  0
SPLINE
  5
14A
330
70
100
AcDbEntity
  8
plateau v8_Sketch40
100
AcDbSpline
210
0.0
220
0.0
230
1.0
 70
     8
 71
     2
 72
     6
 73
     3
 74
     0
 42
0.000000001
 43
0.0000000001
 40
0.0
 40
0.0
 40
0.0
 40
1.0
 40
1.0
 40
1.0
 10
54.26496732663424
 20
14.06646470604889
 30
0.0
 10
53.91448247861178
 20
14.40576355038636
 30
0.0
 10
53.91448247861178
 20
14.92030481873505
 30
0.0
  0
LINE
  5
14B
330
70
100
AcDbEntity
  8
plateau v8_Sketch40
100
AcDbLine
 10
53.28808534573824
 20
10.50568918763153
 30
0.0
 11
54.27988040875704
 21
10.50568918763153
 31
0.0
  0
LINE
  5
14C
330
70
100
AcDbEntity
  8
plateau v8_Sketch40
100
AcDbLine
 10
48.94803989362032
 20
10.19994716225617
 30
0.0
 11
48.94803989362032
 21
10.50568918763153
 31
0.0
  0
LINE
  5
14D
330
70
100
AcDbEntity
  8
plateau v8_Sketch40
100
AcDbLine
 10
48.94803989362032
 20
10.50568918763153
 30
0.0
 11
49.89509332608492
 21
10.50568918763153
 31
0.0
  0
LINE
  5
14E
330
70
100
AcDbEntity
  8
plateau v8_Sketch40
100
AcDbLine
 10
39.35072410535128
 20
19.84946231423371
 30
0.0
 11
38.13521373700412
 21
19.84946231423371
 31
0.0
  0
SPLINE
  5
14F
330
70
100
AcDbEntity
  8
plateau v8_Sketch40
100
AcDbSpline
210
0.0
220
0.0
230
1.0
 70
     8
 71
     2
 72
     6
 73
     3
 74
     0
 42
0.000000001
 43
0.0000000001
 40
0.0
 40
0.0
 40
0.0
 40
1.0
 40
1.0
 40
1.0
 10
43.31045377682955
 20
16.15818719445222
 30
0.0
 10
42.8406547350815
 20
16.15818719445222
 30
0.0
 10
42.60948408078463
 20
16.04633073388093
 30
0.0
  0
SPLINE
  5
150
330
70
100
AcDbEntity
  8
plateau v8_Sketch40
100
AcDbSpline
210
0.0
220
0.0
230
1.0
 70
     8
 71
     2
 72
     6
 73
     3
 74
     0
 42
0.000000001
 43
0.0000000001
 40
0.0
 40
0.0
 40
0.0
 40
1.0
 40
1.0
 40
1.0
 10
44.6676491541794
 20
10.65483192978852
 30
0.0
 10
43.62365234326632
 20
9.998605056390694
 30
0.0
 10
42.57965553235323
 20
9.998605056390694
 30
0.0
  0
SPLINE
  5
151
330
70
100
AcDbEntity
  8
plateau v8_Sketch40
100
AcDbSpline
210
0.0
220
0.0
230
1.0
 70
     8
 71
     2
 72
     6
 73
     3
 74
     0
 42
0.000000001
 43
0.0000000001
 40
0.0
 40
0.0
 40
0.0
 40
1.0
 40
1.0
 40
1.0
 10
40.82723367642672
 20
13.1566951709842
 30
0.0
 10
41.56548726987154
 20
13.65259389458649
 30
0.0
 10
42.8555702013901
 20
13.65259389458649
 30
0.0
  0
SPLINE
  5
152
330
70
100
AcDbEntity
  8
plateau v8_Sketch40
100
AcDbSpline
210
0.0
220
0.0
230
1.0
 70
     8
 71
     2
 72
     6
 73
     3
 74
     0
 42
0.000000001
 43
0.0000000001
 40
0.0
 40
0.0
 40
0.0
 40
1.0
 40
1.0
 40
1.0
 10
41.28584611844332
 20
14.10747866211884
 30
0.0
 10
40.93163240384371
 20
14.4430492359256
 30
0.0
 10
40.93163240384371
 20
14.97996191559785
 30
0.0
  0
SPLINE
  5
153
330
70
100
AcDbEntity
  8
plateau v8_Sketch40
100
AcDbSpline
210
0.0
220
0.0
230
1.0
 70
     8
 71
     2
 72
     6
 73
     3
 74
     0
 42
0.000000001
 43
0.0000000001
 40
0.0
 40
0.0
 40
0.0
 40
1.0
 40
1.0
 40
1.0
 10
48.80635250043185
 20
11.39308671532624
 30
0.0
 10
48.12775600384981
 20
9.998605056390692
 30
0.0
 10
46.32313240002901
 20
9.998605056390692
 30
0.0
  0
LINE
  5
154
330
70
100
AcDbEntity
  8
plateau v8_Sketch40
100
AcDbLine
 10
39.35072410535128
 20
20.19994716225617
 30
0.0
 11
39.35072410535128
 21
19.84946231423371
 31
0.0
  0
SPLINE
  5
155
330
70
100
AcDbEntity
  8
plateau v8_Sketch40
100
AcDbSpline
210
0.0
220
0.0
230
1.0
 70
     8
 71
     2
 72
     6
 73
     3
 74
     0
 42
0.000000001
 43
0.0000000001
 40
0.0
 40
0.0
 40
0.0
 40
1.0
 40
1.0
 40
1.0
 10
42.57965553235323
 20
9.998605056390694
 30
0.0
 10
41.49837482404024
 20
9.998605056390694
 30
0.0
 10
40.79367626141817
 20
10.50941805420869
 30
0.0
  0
LINE
  5
156
330
70
100
AcDbEntity
  8
plateau v8_Sketch40
100
AcDbLine
 10
44.59307897519381
 20
13.40650896607392
 30
0.0
 11
44.59307897519381
 21
14.89047627030366
 31
0.0
  0
SPLINE
  5
157
330
70
100
AcDbEntity
  8
plateau v8_Sketch40
100
AcDbSpline
210
0.0
220
0.0
230
1.0
 70
     8
 71
     2
 72
     6
 73
     3
 74
     0
 42
0.000000001
 43
0.0000000001
 40
0.0
 40
0.0
 40
0.0
 40
1.0
 40
1.0
 40
1.0
 10
43.66093862485201
 20
16.50867204247468
 30
0.0
 10
45.04796255063326
 20
16.50867204247468
 30
0.0
 10
45.93536127042086
 20
16.31478707371705
 30
0.0
  0
SPLINE
  5
158
330
70
100
AcDbEntity
  8
plateau v8_Sketch40
100
AcDbSpline
210
0.0
220
0.0
230
1.0
 70
     8
 71
     2
 72
     6
 73
     3
 74
     0
 42
0.000000001
 43
0.0000000001
 40
0.0
 40
0.0
 40
0.0
 40
1.0
 40
1.0
 40
1.0
 10
43.08674085568697
 20
14.10002212105744
 30
0.0
 10
42.75862682294161
 20
13.77190808831208
 30
0.0
 10
42.21425760220797
 20
13.77190808831208
 30
0.0
  0
SPLINE
  5
159
330
70
100
AcDbEntity
  8
plateau v8_Sketch40
100
AcDbSpline
210
0.0
220
0.0
230
1.0
 70
     8
 71
     2
 72
     6
 73
     3
 74
     0
 42
0.000000001
 43
0.0000000001
 40
0.0
 40
0.0
 40
0.0
 40
1.0
 40
1.0
 40
1.0
 10
46.32313240002901
 20
9.998605056390692
 30
0.0
 10
45.33879030179293
 20
9.998605056390692
 30
0.0
 10
44.6676491541794
 20
10.65483192978852
 30
0.0
  0
LINE
  5
15A
330
70
100
AcDbEntity
  8
plateau v8_Sketch40
100
AcDbLine
 10
43.29554069470675
 20
12.6160548168277
 30
0.0
 11
43.29554069470675
 21
11.23648743210786
 31
0.0
  0
SPLINE
  5
15B
330
70
100
AcDbEntity
  8
plateau v8_Sketch40
100
AcDbSpline
210
0.0
220
0.0
230
1.0
 70
     8
 71
     2
 72
     6
 73
     3
 74
     0
 42
0.000000001
 43
0.0000000001
 40
0.0
 40
0.0
 40
0.0
 40
1.0
 40
1.0
 40
1.0
 10
43.42231023740084
 20
13.10822467385285
 30
0.0
 10
43.29554069470675
 20
12.95908193169587
 30
0.0
 10
43.29554069470675
 20
12.6160548168277
 30
0.0
  0
SPLINE
  5
15C
330
70
100
AcDbEntity
  8
plateau v8_Sketch40
100
AcDbSpline
210
0.0
220
0.0
230
1.0
 70
     8
 71
     2
 72
     6
 73
     3
 74
     0
 42
0.000000001
 43
0.0000000001
 40
0.0
 40
0.0
 40
0.0
 40
1.0
 40
1.0
 40
1.0
 10
47.98979747723849
 20
11.08734468995087
 30
0.0
 10
48.00844181012423
 20
11.01277331887238
 30
0.0
 10
48.09046972226412
 20
11.01277331887238
 30
0.0
  0
SPLINE
  5
15D
330
70
100
AcDbEntity
  8
plateau v8_Sketch40
100
AcDbSpline
210
0.0
220
0.0
230
1.0
 70
     8
 71
     2
 72
     6
 73
     3
 74
     0
 42
0.000000001
 43
0.0000000001
 40
0.0
 40
0.0
 40
0.0
 40
1.0
 40
1.0
 40
1.0
 10
43.29554069470675
 20
11.23648743210786
 30
0.0
 10
43.29554069470675
 20
10.61008910714142
 30
0.0
 10
43.7504242701462
 20
10.61008910714142
 30
0.0
  0
SPLINE
  5
15E
330
70
100
AcDbEntity
  8
plateau v8_Sketch40
100
AcDbSpline
210
0.0
220
0.0
230
1.0
 70
     8
 71
     2
 72
     6
 73
     3
 74
     0
 42
0.000000001
 43
0.0000000001
 40
0.0
 40
0.0
 40
0.0
 40
1.0
 40
1.0
 40
1.0
 10
44.59307897519381
 20
13.07093839226716
 30
0.0
 10
44.11582458447726
 20
13.25736741600983
 30
0.0
 10
43.84736764859469
 20
13.25736741600983
 30
0.0
  0
LINE
  5
15F
330
70
100
AcDbEntity
  8
plateau v8_Sketch40
100
AcDbLine
 10
38.13521373700412
 20
19.84946231423371
 30
0.0
 11
38.13521373700412
 21
10.55043201027863
 31
0.0
  0
SPLINE
  5
160
330
70
100
AcDbEntity
  8
plateau v8_Sketch40
100
AcDbSpline
210
0.0
220
0.0
230
1.0
 70
     8
 71
     2
 72
     6
 73
     3
 74
     0
 42
0.000000001
 43
0.0000000001
 40
0.0
 40
0.0
 40
0.0
 40
1.0
 40
1.0
 40
1.0
 10
42.8555702013901
 20
13.65259389458649
 30
0.0
 10
43.84736764859469
 20
13.65259389458649
 30
0.0
 10
44.59307897519381
 20
13.40650896607392
 30
0.0
  0
SPLINE
  5
161
330
70
100
AcDbEntity
  8
plateau v8_Sketch40
100
AcDbSpline
210
0.0
220
0.0
230
1.0
 70
     8
 71
     2
 72
     6
 73
     3
 74
     0
 42
0.000000001
 43
0.0000000001
 40
0.0
 40
0.0
 40
0.0
 40
1.0
 40
1.0
 40
1.0
 10
42.60948408078463
 20
16.04633073388093
 30
0.0
 10
43.41485488843233
 20
15.80770234642975
 30
0.0
 10
43.41485488843233
 20
14.97996191559784
 30
0.0
  0
SPLINE
  5
162
330
70
100
AcDbEntity
  8
plateau v8_Sketch40
100
AcDbSpline
210
0.0
220
0.0
230
1.0
 70
     8
 71
     2
 72
     6
 73
     3
 74
     0
 42
0.000000001
 43
0.0000000001
 40
0.0
 40
0.0
 40
0.0
 40
1.0
 40
1.0
 40
1.0
 10
40.93163240384371
 20
14.97996191559785
 30
0.0
 10
40.93163240384371
 20
15.71076016007416
 30
0.0
 10
41.64378631543429
 20
16.10971610127442
 30
0.0
  0
SPLINE
  5
163
330
70
100
AcDbEntity
  8
plateau v8_Sketch40
100
AcDbSpline
210
0.0
220
0.0
230
1.0
 70
     8
 71
     2
 72
     6
 73
     3
 74
     0
 42
0.000000001
 43
0.0000000001
 40
0.0
 40
0.0
 40
0.0
 40
1.0
 40
1.0
 40
1.0
 10
45.93536127042086
 20
16.31478707371705
 30
0.0
 10
46.82275760602267
 20
16.12090150891297
 30
0.0
 10
47.24035728406222
 20
15.8263454872226
 30
0.0
  0
SPLINE
  5
164
330
70
100
AcDbEntity
  8
plateau v8_Sketch40
100
AcDbSpline
210
0.0
220
0.0
230
1.0
 70
     8
 71
     2
 72
     6
 73
     3
 74
     0
 42
0.000000001
 43
0.0000000001
 40
0.0
 40
0.0
 40
0.0
 40
1.0
 40
1.0
 40
1.0
 10
56.11806381177218
 20
14.14103607712738
 30
0.0
 10
55.72656143140108
 20
13.72716526566498
 30
0.0
 10
55.15236366223605
 20
13.72716526566498
 30
0.0
  0
LINE
  5
165
330
70
100
AcDbEntity
  8
plateau v8_Sketch40
100
AcDbLine
 10
47.97115552853854
 20
14.20442084847443
 30
0.0
 11
47.97115552853854
 21
11.39308671532624
 31
0.0
  0
SPLINE
  5
166
330
70
100
AcDbEntity
  8
plateau v8_Sketch40
100
AcDbSpline
210
0.0
220
0.0
230
1.0
 70
     8
 71
     2
 72
     6
 73
     3
 74
     0
 42
0.000000001
 43
0.0000000001
 40
0.0
 40
0.0
 40
0.0
 40
1.0
 40
1.0
 40
1.0
 10
53.31791389416964
 20
14.90539054451935
 30
0.0
 10
54.27988040875704
 20
16.43410067139619
 30
0.0
 10
55.28659332227022
 20
16.43410067139619
 30
0.0
  0
SPLINE
  5
167
330
70
100
AcDbEntity
  8
plateau v8_Sketch40
100
AcDbSpline
210
0.0
220
0.0
230
1.0
 70
     8
 71
     2
 72
     6
 73
     3
 74
     0
 42
0.000000001
 43
0.0000000001
 40
0.0
 40
0.0
 40
0.0
 40
1.0
 40
1.0
 40
1.0
 10
55.28659332227022
 20
16.43410067139619
 30
0.0
 10
55.84587562512667
 20
16.43410067139619
 30
0.0
 10
56.17772090863497
 20
16.09107296048157
 30
0.0
  0
SPLINE
  5
168
330
70
100
AcDbEntity
  8
plateau v8_Sketch40
100
AcDbSpline
210
0.0
220
0.0
230
1.0
 70
     8
 71
     2
 72
     6
 73
     3
 74
     0
 42
0.000000001
 43
0.0000000001
 40
0.0
 40
0.0
 40
0.0
 40
1.0
 40
1.0
 40
1.0
 10
47.24035728406222
 20
15.8263454872226
 30
0.0
 10
47.65795696210177
 20
15.53178886948578
 30
0.0
 10
47.81455505322726
 20
15.20740429936402
 30
0.0
  0
SPLINE
  5
169
330
70
100
AcDbEntity
  8
plateau v8_Sketch40
100
AcDbSpline
210
0.0
220
0.0
230
1.0
 70
     8
 71
     2
 72
     6
 73
     3
 74
     0
 42
0.000000001
 43
0.0000000001
 40
0.0
 40
0.0
 40
0.0
 40
1.0
 40
1.0
 40
1.0
 10
53.91448247861178
 20
14.92030481873505
 30
0.0
 10
53.91448247861178
 20
15.09927610932343
 30
0.0
 10
53.95922649335177
 20
15.19621829567902
 30
0.0
  0
SPLINE
  5
16A
330
70
100
AcDbEntity
  8
plateau v8_Sketch40
100
AcDbSpline
210
0.0
220
0.0
230
1.0
 70
     8
 71
     2
 72
     6
 73
     3
 74
     0
 42
0.000000001
 43
0.0000000001
 40
0.0
 40
0.0
 40
0.0
 40
1.0
 40
1.0
 40
1.0
 10
47.81455505322726
 20
15.20740429936402
 30
0.0
 10
47.97115552853854
 20
14.8830191331958
 30
0.0
 10
47.97115552853854
 20
14.20442084847443
 30
0.0
  0
SPLINE
  5
16B
330
70
100
AcDbEntity
  8
plateau v8_Sketch40
100
AcDbSpline
210
0.0
220
0.0
230
1.0
 70
     8
 71
     2
 72
     6
 73
     3
 74
     0
 42
0.000000001
 43
0.0000000001
 40
0.0
 40
0.0
 40
0.0
 40
1.0
 40
1.0
 40
1.0
 10
53.47451198529513
 20
14.59964851914399
 30
0.0
 10
53.28808534573824
 20
14.22679285584442
 30
0.0
 10
53.28808534573824
 20
14.07765011368744
 30
0.0
  0
LINE
  5
16C
330
70
100
AcDbEntity
  8
plateau v8_Sketch40
100
AcDbLine
 10
44.59307897519381
 20
10.93074540673249
 30
0.0
 11
44.59307897519381
 21
13.07093839226716
 31
0.0
  0
LINE
  5
16D
330
70
100
AcDbEntity
  8
plateau v8_Sketch40
100
AcDbLine
 10
53.28808534573824
 20
14.07765011368744
 30
0.0
 11
53.28808534573824
 21
10.50568918763153
 31
0.0
  0
LINE
  5
16E
330
70
100
AcDbEntity
  8
plateau v8_Sketch40
100
AcDbLine
 10
30.0666080756119
 20
20.19994716225617
 30
0.0
 11
32.10240233372958
 21
15.22604684411042
 31
0.0
  0
SPLINE
  5
16F
330
70
100
AcDbEntity
  8
plateau v8_Sketch40
100
AcDbSpline
210
0.0
220
0.0
230
1.0
 70
     8
 71
     2
 72
     6
 73
     3
 74
     0
 42
0.000000001
 43
0.0000000001
 40
0.0
 40
0.0
 40
0.0
 40
1.0
 40
1.0
 40
1.0
 10
56.50956142377169
 20
15.16638974724762
 30
0.0
 10
56.50956142377169
 20
14.55490569649689
 30
0.0
 10
56.11806381177218
 20
14.14103607712738
 30
0.0
  0
LINE
  5
170
330
70
100
AcDbEntity
  8
plateau v8_Sketch40
100
AcDbLine
 10
24.42156720589907
 20
19.84946231423371
 30
0.0
 11
24.42156720589907
 21
20.19994716225618
 31
0.0
  0
LINE
  5
171
330
70
100
AcDbEntity
  8
plateau v8_Sketch40
100
AcDbLine
 10
39.35072410535128
 20
10.55043201027863
 30
0.0
 11
39.35072410535128
 21
10.19994716225617
 31
0.0
  0
SPLINE
  5
172
330
70
100
AcDbEntity
  8
plateau v8_Sketch40
100
AcDbSpline
210
0.0
220
0.0
230
1.0
 70
     8
 71
     2
 72
     6
 73
     3
 74
     0
 42
0.000000001
 43
0.0000000001
 40
0.0
 40
0.0
 40
0.0
 40
1.0
 40
1.0
 40
1.0
 10
53.92939794492037
 20
15.22604684411042
 30
0.0
 10
53.6609410090378
 20
14.97250477848999
 30
0.0
 10
53.47451198529513
 20
14.59964851914399
 30
0.0
  0
LINE
  5
173
330
70
100
AcDbEntity
  8
plateau v8_Sketch40
100
AcDbLine
 10
54.27988040875704
 20
10.50568918763153
 30
0.0
 11
54.27988040875704
 21
10.19994716225617
 31
0.0
  0
LINE
  5
174
330
70
100
AcDbEntity
  8
plateau v8_Sketch40
100
AcDbLine
 10
85.4953907771042
 20
10.19994716225616
 30
0.0
 11
80.10389316510469
 21
10.19994716225616
 31
0.0
  0
LINE
  5
175
330
70
100
AcDbEntity
  8
plateau v8_Sketch40
100
AcDbLine
 10
57.30747688245089
 20
10.19994716225617
 30
0.0
 11
57.30747688245089
 21
10.55043201027863
 31
0.0
  0
LINE
  5
176
330
70
100
AcDbEntity
  8
plateau v8_Sketch40
100
AcDbLine
 10
80.10389316510469
 20
10.19994716225616
 30
0.0
 11
80.10389316510469
 21
10.50568918763153
 31
0.0
  0
LINE
  5
177
330
70
100
AcDbEntity
  8
plateau v8_Sketch40
100
AcDbLine
 10
81.11806381177217
 20
10.50568918763153
 30
0.0
 11
81.11806381177217
 21
16.09853009758941
 31
0.0
  0
SPLINE
  5
178
330
70
100
AcDbEntity
  8
plateau v8_Sketch40
100
AcDbSpline
210
0.0
220
0.0
230
1.0
 70
     8
 71
     2
 72
     6
 73
     3
 74
     0
 42
0.000000001
 43
0.0000000001
 40
0.0
 40
0.0
 40
0.0
 40
1.0
 40
1.0
 40
1.0
 10
68.37011325787814
 20
11.82559947548859
 30
0.0
 10
67.23290431927951
 20
10.19994716225616
 30
0.0
 10
65.21202552747043
 20
10.19994716225616
 30
0.0
  0
LINE
  5
179
330
70
100
AcDbEntity
  8
plateau v8_Sketch40
100
AcDbLine
 10
57.30747688245089
 20
10.55043201027863
 30
0.0
 11
58.46333015393526
 21
10.55043201027863
 31
0.0
  0
LINE
  5
17A
330
70
100
AcDbEntity
  8
plateau v8_Sketch40
100
AcDbLine
 10
74.34699523877414
 20
16.59815768776886
 30
0.0
 11
74.34699523877414
 21
11.83305720864288
 31
0.0
  0
LINE
  5
17B
330
70
100
AcDbEntity
  8
plateau v8_Sketch40
100
AcDbLine
 10
81.11806381177217
 20
16.09853009758941
 30
0.0
 11
80.10389316510469
 21
16.09853009758941
 31
0.0
  0
LINE
  5
17C
330
70
100
AcDbEntity
  8
plateau v8_Sketch40
100
AcDbLine
 10
78.95549762677463
 20
10.50568918763153
 30
0.0
 11
79.79814994763644
 21
10.50568918763153
 31
0.0
  0
SPLINE
  5
17D
330
70
100
AcDbEntity
  8
plateau v8_Sketch40
100
AcDbSpline
210
0.0
220
0.0
230
1.0
 70
     8
 71
     2
 72
     6
 73
     3
 74
     0
 42
0.000000001
 43
0.0000000001
 40
0.0
 40
0.0
 40
0.0
 40
1.0
 40
1.0
 40
1.0
 10
74.7422217173508
 20
10.97548822937957
 30
0.0
 10
75.14490592908176
 20
10.97548822937957
 30
0.0
 10
75.55504787396701
 20
11.40800098954193
 30
0.0
  0
SPLINE
  5
17E
330
70
100
AcDbEntity
  8
plateau v8_Sketch40
100
AcDbSpline
210
0.0
220
0.0
230
1.0
 70
     8
 71
     2
 72
     6
 73
     3
 74
     0
 42
0.000000001
 43
0.0000000001
 40
0.0
 40
0.0
 40
0.0
 40
1.0
 40
1.0
 40
1.0
 10
83.08674323987276
 20
20.38637499390594
 30
0.0
 10
83.71314037274629
 20
20.38637499390594
 30
0.0
 10
84.07108295392305
 20
20.07690469799987
 30
0.0
  0
LINE
  5
17F
330
70
100
AcDbEntity
  8
plateau v8_Sketch40
100
AcDbLine
 10
80.10389316510469
 20
10.50568918763153
 30
0.0
 11
81.11806381177217
 21
10.50568918763153
 31
0.0
  0
LINE
  5
180
330
70
100
AcDbEntity
  8
plateau v8_Sketch40
100
AcDbLine
 10
75.55504787396701
 20
10.19994716225616
 30
0.0
 11
75.55504787396701
 21
10.99040250359527
 31
0.0
  0
SPLINE
  5
181
330
70
100
AcDbEntity
  8
plateau v8_Sketch40
100
AcDbSpline
210
0.0
220
0.0
230
1.0
 70
     8
 71
     2
 72
     6
 73
     3
 74
     0
 42
0.000000001
 43
0.0000000001
 40
0.0
 40
0.0
 40
0.0
 40
1.0
 40
1.0
 40
1.0
 10
51.43871772717745
 20
16.39681498585694
 30
0.0
 10
52.55728710126192
 20
16.39681498585694
 30
0.0
 10
53.28808534573824
 20
16.59815709172242
 30
0.0
  0
SPLINE
  5
182
330
70
100
AcDbEntity
  8
plateau v8_Sketch40
100
AcDbSpline
210
0.0
220
0.0
230
1.0
 70
     8
 71
     2
 72
     6
 73
     3
 74
     0
 42
0.000000001
 43
0.0000000001
 40
0.0
 40
0.0
 40
0.0
 40
1.0
 40
1.0
 40
1.0
 10
64.69748485516818
 20
18.43260924397461
 30
0.0
 10
64.69748485516818
 20
19.31254963456146
 30
0.0
 10
64.5334290308884
 20
19.58100597439758
 30
0.0
  0
SPLINE
  5
183
330
70
100
AcDbEntity
  8
plateau v8_Sketch40
100
AcDbSpline
210
0.0
220
0.0
230
1.0
 70
     8
 71
     2
 72
     6
 73
     3
 74
     0
 42
0.000000001
 43
0.0000000001
 40
0.0
 40
0.0
 40
0.0
 40
1.0
 40
1.0
 40
1.0
 10
64.5334290308884
 20
19.58100597439758
 30
0.0
 10
64.36936843823703
 20
19.8494623142337
 30
0.0
 10
63.5789154810837
 20
19.8494623142337
 30
0.0
  0
LINE
  5
184
330
70
100
AcDbEntity
  8
plateau v8_Sketch40
100
AcDbLine
 10
70.1635502619675
 20
16.39681498585693
 30
0.0
 11
72.66168582867893
 21
16.39681498585693
 31
0.0
  0
LINE
  5
185
330
70
100
AcDbEntity
  8
plateau v8_Sketch40
100
AcDbLine
 10
78.95549762677461
 20
16.59815768776885
 30
0.0
 11
78.95549762677463
 21
10.50568918763153
 31
0.0
  0
SPLINE
  5
186
330
70
100
AcDbEntity
  8
plateau v8_Sketch40
100
AcDbSpline
210
0.0
220
0.0
230
1.0
 70
     8
 71
     2
 72
     6
 73
     3
 74
     0
 42
0.000000001
 43
0.0000000001
 40
0.0
 40
0.0
 40
0.0
 40
1.0
 40
1.0
 40
1.0
 10
82.37831581067354
 20
17.80621091900817
 30
0.0
 10
81.76682937573701
 20
17.80621091900817
 30
0.0
 10
81.39397609662324
 20
18.10449580727569
 30
0.0
  0
LINE
  5
187
330
70
100
AcDbEntity
  8
plateau v8_Sketch40
100
AcDbLine
 10
80.10389316510469
 20
16.09853009758941
 30
0.0
 11
80.10389316510469
 21
16.39681498585693
 31
0.0
  0
LINE
  5
188
330
70
100
AcDbEntity
  8
plateau v8_Sketch40
100
AcDbLine
 10
70.95400321912082
 20
16.09853009758942
 30
0.0
 11
70.1635502619675
 21
16.09853009758942
 31
0.0
  0
LINE
  5
189
330
70
100
AcDbEntity
  8
plateau v8_Sketch40
100
AcDbLine
 10
80.10389316510469
 20
16.39681498585693
 30
0.0
 11
82.62440193127901
 21
16.39681498585693
 31
0.0
  0
SPLINE
  5
18A
330
70
100
AcDbEntity
  8
plateau v8_Sketch40
100
AcDbSpline
210
0.0
220
0.0
230
1.0
 70
     8
 71
     2
 72
     6
 73
     3
 74
     0
 42
0.000000001
 43
0.0000000001
 40
0.0
 40
0.0
 40
0.0
 40
1.0
 40
1.0
 40
1.0
 10
82.62440193127901
 20
16.39681498585693
 30
0.0
 10
83.57891071271211
 20
16.39681498585693
 30
0.0
 10
84.50359332989961
 20
16.59815709172241
 30
0.0
  0
LINE
  5
18B
330
70
100
AcDbEntity
  8
plateau v8_Sketch40
100
AcDbLine
 10
53.28808534573824
 20
14.90539054451935
 30
0.0
 11
53.31791389416964
 21
14.90539054451935
 31
0.0
  0
LINE
  5
18C
330
70
100
AcDbEntity
  8
plateau v8_Sketch40
100
AcDbLine
 10
58.46333015393526
 20
19.84946231423371
 30
0.0
 11
57.30747688245089
 21
19.84946231423371
 31
0.0
  0
LINE
  5
18D
330
70
100
AcDbEntity
  8
plateau v8_Sketch40
100
AcDbLine
 10
64.69748485516818
 20
11.97474221764557
 30
0.0
 11
64.69748485516818
 21
18.43260924397461
 31
0.0
  0
SPLINE
  5
18E
330
70
100
AcDbEntity
  8
plateau v8_Sketch40
100
AcDbSpline
210
0.0
220
0.0
230
1.0
 70
     8
 71
     2
 72
     6
 73
     3
 74
     0
 42
0.000000001
 43
0.0000000001
 40
0.0
 40
0.0
 40
0.0
 40
1.0
 40
1.0
 40
1.0
 10
68.41113079022678
 20
18.60412280140869
 30
0.0
 10
69.50732696484836
 20
17.00829903660767
 30
0.0
 10
69.50732696484836
 20
15.28570394097321
 30
0.0
  0
SPLINE
  5
18F
330
70
100
AcDbEntity
  8
plateau v8_Sketch40
100
AcDbSpline
210
0.0
220
0.0
230
1.0
 70
     8
 71
     2
 72
     6
 73
     3
 74
     0
 42
0.000000001
 43
0.0000000001
 40
0.0
 40
0.0
 40
0.0
 40
1.0
 40
1.0
 40
1.0
 10
75.55504787396701
 20
10.99040250359527
 30
0.0
 10
74.30971134137424
 20
9.998605056390685
 30
0.0
 10
72.9897974772385
 20
9.998605056390685
 30
0.0
  0
SPLINE
  5
190
330
70
100
AcDbEntity
  8
plateau v8_Sketch40
100
AcDbSpline
210
0.0
220
0.0
230
1.0
 70
     8
 71
     2
 72
     6
 73
     3
 74
     0
 42
0.000000001
 43
0.0000000001
 40
0.0
 40
0.0
 40
0.0
 40
1.0
 40
1.0
 40
1.0
 10
72.9897974772385
 20
9.998605056390685
 30
0.0
 10
72.16951358746799
 20
9.998605056390685
 30
0.0
 10
71.56176078748019
 20
10.3677318531131
 30
0.0
  0
SPLINE
  5
191
330
70
100
AcDbEntity
  8
plateau v8_Sketch40
100
AcDbSpline
210
0.0
220
0.0
230
1.0
 70
     8
 71
     2
 72
     6
 73
     3
 74
     0
 42
0.000000001
 43
0.0000000001
 40
0.0
 40
0.0
 40
0.0
 40
1.0
 40
1.0
 40
1.0
 10
72.66168582867893
 20
16.39681498585693
 30
0.0
 10
73.41485488843234
 20
16.39681498585693
 30
0.0
 10
74.34699523877414
 20
16.59815768776886
 30
0.0
  0
SPLINE
  5
192
330
70
100
AcDbEntity
  8
plateau v8_Sketch40
100
AcDbSpline
210
0.0
220
0.0
230
1.0
 70
     8
 71
     2
 72
     6
 73
     3
 74
     0
 42
0.000000001
 43
0.0000000001
 40
0.0
 40
0.0
 40
0.0
 40
1.0
 40
1.0
 40
1.0
 10
77.29255664777072
 20
16.39681498585693
 30
0.0
 10
78.12775600384982
 20
16.39681498585693
 30
0.0
 10
78.95549762677463
 20
16.59815768776885
 30
0.0
  0
LINE
  5
193
330
70
100
AcDbEntity
  8
plateau v8_Sketch40
100
AcDbLine
 10
62.81828868817599
 20
10.55043201027862
 30
0.0
 11
63.42977512311251
 21
10.55043201027862
 31
0.0
  0
SPLINE
  5
194
330
70
100
AcDbEntity
  8
plateau v8_Sketch40
100
AcDbSpline
210
0.0
220
0.0
230
1.0
 70
     8
 71
     2
 72
     6
 73
     3
 74
     0
 42
0.000000001
 43
0.0000000001
 40
0.0
 40
0.0
 40
0.0
 40
1.0
 40
1.0
 40
1.0
 10
83.81381023358613
 20
18.23872427521697
 30
0.0
 10
83.19859970044404
 20
17.80621091900817
 30
0.0
 10
82.37831581067354
 20
17.80621091900817
 30
0.0
  0
LINE
  5
195
330
70
100
AcDbEntity
  8
plateau v8_Sketch40
100
AcDbLine
 10
65.21202552747043
 20
10.19994716225616
 30
0.0
 11
57.3074768824509
 21
10.19994716225617
 31
0.0
  0
LINE
  5
196
330
70
100
AcDbEntity
  8
plateau v8_Sketch40
100
AcDbLine
 10
79.79814994763644
 20
10.19994716225616
 30
0.0
 11
75.55504787396701
 21
10.19994716225616
 31
0.0
  0
LINE
  5
197
330
70
100
AcDbEntity
  8
plateau v8_Sketch40
100
AcDbLine
 10
74.6974800867966
 20
16.39681498585693
 30
0.0
 11
77.29255664777072
 21
16.39681498585693
 31
0.0
  0
LINE
  5
198
330
70
100
AcDbEntity
  8
plateau v8_Sketch40
100
AcDbLine
 10
48.94803989362032
 20
16.39681498585694
 30
0.0
 11
51.43871772717745
 21
16.39681498585694
 31
0.0
  0
LINE
  5
199
330
70
100
AcDbEntity
  8
plateau v8_Sketch40
100
AcDbLine
 10
49.89509332608492
 20
16.09853009758942
 30
0.0
 11
48.94803989362032
 21
16.09853009758942
 31
0.0
  0
SPLINE
  5
19A
330
70
100
AcDbEntity
  8
plateau v8_Sketch40
100
AcDbSpline
210
0.0
220
0.0
230
1.0
 70
     8
 71
     2
 72
     6
 73
     3
 74
     0
 42
0.000000001
 43
0.0000000001
 40
0.0
 40
0.0
 40
0.0
 40
1.0
 40
1.0
 40
1.0
 10
71.56176078748019
 20
10.3677318531131
 30
0.0
 10
70.95400321912082
 20
10.73685984192841
 30
0.0
 10
70.95400321912082
 20
11.72865728913299
 30
0.0
  0
LINE
  5
19B
330
70
100
AcDbEntity
  8
plateau v8_Sketch40
100
AcDbLine
 10
70.1635502619675
 20
16.09853009758942
 30
0.0
 11
70.1635502619675
 21
16.39681498585693
 31
0.0
  0
SPLINE
  5
19C
330
70
100
AcDbEntity
  8
plateau v8_Sketch40
100
AcDbSpline
210
0.0
220
0.0
230
1.0
 70
     8
 71
     2
 72
     6
 73
     3
 74
     0
 42
0.000000001
 43
0.0000000001
 40
0.0
 40
0.0
 40
0.0
 40
1.0
 40
1.0
 40
1.0
 10
74.43648326825412
 20
11.14700178681366
 30
0.0
 10
74.52596652936252
 20
10.97548822937957
 30
0.0
 10
74.7422217173508
 20
10.97548822937957
 30
0.0
  0
SPLINE
  5
19D
330
70
100
AcDbEntity
  8
plateau v8_Sketch40
100
AcDbSpline
210
0.0
220
0.0
230
1.0
 70
     8
 71
     2
 72
     6
 73
     3
 74
     0
 42
0.000000001
 43
0.0000000001
 40
0.0
 40
0.0
 40
0.0
 40
1.0
 40
1.0
 40
1.0
 10
84.42902553509981
 20
19.22306398926727
 30
0.0
 10
84.42902553509981
 20
18.67123703537933
 30
0.0
 10
83.81381023358613
 20
18.23872427521697
 30
0.0
  0
SPLINE
  5
19E
330
70
100
AcDbEntity
  8
plateau v8_Sketch40
100
AcDbSpline
210
0.0
220
0.0
230
1.0
 70
     8
 71
     2
 72
     6
 73
     3
 74
     0
 42
0.000000001
 43
0.0000000001
 40
0.0
 40
0.0
 40
0.0
 40
1.0
 40
1.0
 40
1.0
 10
81.02111804913789
 20
18.8874934154605
 30
0.0
 10
81.02111804913789
 20
19.49897746621124
 30
0.0
 10
81.62887561749727
 20
19.94267623005859
 30
0.0
  0
LINE
  5
19F
330
70
100
AcDbEntity
  8
plateau v8_Sketch40
100
AcDbLine
 10
57.30747688245089
 20
19.84946231423371
 30
0.0
 11
57.30747688245089
 21
20.19994716225617
 31
0.0
  0
LINE
  5
1A0
330
70
100
AcDbEntity
  8
plateau v8_Sketch40
100
AcDbLine
 10
63.5789154810837
 20
19.8494623142337
 30
0.0
 11
62.81828868817599
 21
19.8494623142337
 31
0.0
  0
SPLINE
  5
1A1
330
70
100
AcDbEntity
  8
plateau v8_Sketch40
100
AcDbSpline
210
0.0
220
0.0
230
1.0
 70
     8
 71
     2
 72
     6
 73
     3
 74
     0
 42
0.000000001
 43
0.0000000001
 40
0.0
 40
0.0
 40
0.0
 40
1.0
 40
1.0
 40
1.0
 10
64.43275440167697
 20
10.82634548722259
 30
0.0
 10
64.69748485516818
 20
11.10225896416656
 30
0.0
 10
64.69748485516818
 20
11.97474221764557
 30
0.0
  0
LINE
  5
1A2
330
70
100
AcDbEntity
  8
plateau v8_Sketch40
100
AcDbLine
 10
74.6974800867966
 20
16.09853009758942
 30
0.0
 11
74.6974800867966
 21
16.39681498585693
 31
0.0
  0
LINE
  5
1A3
330
70
100
AcDbEntity
  8
plateau v8_Sketch40
100
AcDbLine
 10
79.79814994763644
 20
10.50568918763153
 30
0.0
 11
79.79814994763644
 21
10.19994716225616
 31
0.0
  0
LINE
  5
1A4
330
70
100
AcDbEntity
  8
plateau v8_Sketch40
100
AcDbLine
 10
53.28808534573824
 20
16.59815709172242
 30
0.0
 11
53.28808534573824
 21
14.90539054451935
 31
0.0
  0
LINE
  5
1A5
330
70
100
AcDbEntity
  8
plateau v8_Sketch40
100
AcDbLine
 10
58.46333015393526
 20
10.55043201027863
 30
0.0
 11
58.46333015393526
 21
19.84946231423371
 31
0.0
  0
LINE
  5
1A6
330
70
100
AcDbEntity
  8
plateau v8_Sketch40
100
AcDbLine
 10
62.81828868817599
 20
19.8494623142337
 30
0.0
 11
62.81828868817599
 21
10.55043201027862
 31
0.0
  0
SPLINE
  5
1A7
330
70
100
AcDbEntity
  8
plateau v8_Sketch40
100
AcDbSpline
210
0.0
220
0.0
230
1.0
 70
     8
 71
     2
 72
     6
 73
     3
 74
     0
 42
0.000000001
 43
0.0000000001
 40
0.0
 40
0.0
 40
0.0
 40
1.0
 40
1.0
 40
1.0
 10
63.42977512311251
 20
10.55043201027862
 30
0.0
 10
64.16802871655734
 20
10.55043201027862
 30
0.0
 10
64.43275440167697
 20
10.82634548722259
 30
0.0
  0
SPLINE
  5
1A8
330
70
100
AcDbEntity
  8
plateau v8_Sketch40
100
AcDbSpline
210
0.0
220
0.0
230
1.0
 70
     8
 71
     2
 72
     6
 73
     3
 74
     0
 42
0.000000001
 43
0.0000000001
 40
0.0
 40
0.0
 40
0.0
 40
1.0
 40
1.0
 40
1.0
 10
84.07108295392305
 20
20.07690469799987
 30
0.0
 10
84.42902553509981
 20
19.76743380604736
 30
0.0
 10
84.42902553509981
 20
19.22306398926727
 30
0.0
  0
LINE
  5
1A9
330
70
100
AcDbEntity
  8
plateau v8_Sketch40
100
AcDbLine
 10
49.89509332608492
 20
10.50568918763153
 30
0.0
 11
49.89509332608492
 21
16.09853009758942
 31
0.0
  0
SPLINE
  5
1AA
330
70
100
AcDbEntity
  8
plateau v8_Sketch40
100
AcDbSpline
210
0.0
220
0.0
230
1.0
 70
     8
 71
     2
 72
     6
 73
     3
 74
     0
 42
0.000000001
 43
0.0000000001
 40
0.0
 40
0.0
 40
0.0
 40
1.0
 40
1.0
 40
1.0
 10
81.39397609662324
 20
18.10449580727569
 30
0.0
 10
81.02111804913789
 20
18.40278069554321
 30
0.0
 10
81.02111804913789
 20
18.8874934154605
 30
0.0
  0
LINE
  5
1AB
330
70
100
AcDbEntity
  8
plateau v8_Sketch40
100
AcDbLine
 10
57.30747688245089
 20
20.19994716225617
 30
0.0
 11
64.87645614575654
 21
20.19994716225617
 31
0.0
  0
LINE
  5
1AC
330
70
100
AcDbEntity
  8
plateau v8_Sketch40
100
AcDbLine
 10
70.95400321912082
 20
11.72865728913299
 30
0.0
 11
70.95400321912082
 21
16.09853009758942
 31
0.0
  0
SPLINE
  5
1AD
330
70
100
AcDbEntity
  8
plateau v8_Sketch40
100
AcDbSpline
210
0.0
220
0.0
230
1.0
 70
     8
 71
     2
 72
     6
 73
     3
 74
     0
 42
0.000000001
 43
0.0000000001
 40
0.0
 40
0.0
 40
0.0
 40
1.0
 40
1.0
 40
1.0
 10
64.87645614575656
 20
20.19994716225617
 30
0.0
 10
67.31493461560519
 20
20.19994716225617
 30
0.0
 10
68.41113079022678
 20
18.60412280140869
 30
0.0
  0
LINE
  5
1AE
330
70
100
AcDbEntity
  8
plateau v8_Sketch40
100
AcDbLine
 10
48.94803989362032
 20
16.09853009758942
 30
0.0
 11
48.94803989362032
 21
16.39681498585694
 31
0.0
  0
SPLINE
  5
1AF
330
70
100
AcDbEntity
  8
plateau v8_Sketch40
100
AcDbSpline
210
0.0
220
0.0
230
1.0
 70
     8
 71
     2
 72
     6
 73
     3
 74
     0
 42
0.000000001
 43
0.0000000001
 40
0.0
 40
0.0
 40
0.0
 40
1.0
 40
1.0
 40
1.0
 10
69.50732696484836
 20
15.28570394097321
 30
0.0
 10
69.50732696484836
 20
13.45125178872101
 30
0.0
 10
68.37011325787814
 20
11.82559947548859
 30
0.0
  0
LINE
  5
1B0
330
70
100
AcDbEntity
  8
plateau v8_Sketch40
100
AcDbLine
 10
75.55504787396701
 20
16.09853009758942
 30
0.0
 11
74.6974800867966
 21
16.09853009758942
 31
0.0
  0
SPLINE
  5
1B1
330
70
100
AcDbEntity
  8
plateau v8_Sketch40
100
AcDbSpline
210
0.0
220
0.0
230
1.0
 70
     8
 71
     2
 72
     6
 73
     3
 74
     0
 42
0.000000001
 43
0.0000000001
 40
0.0
 40
0.0
 40
0.0
 40
1.0
 40
1.0
 40
1.0
 10
81.62887561749727
 20
19.94267623005859
 30
0.0
 10
82.23662841748506
 20
20.38637499390594
 30
0.0
 10
83.08674323987276
 20
20.38637499390594
 30
0.0
  0
LINE
  5
1B2
330
70
100
AcDbEntity
  8
plateau v8_Sketch40
100
AcDbLine
 10
75.55504787396701
 20
11.40800098954193
 30
0.0
 11
75.55504787396699
 21
16.09853009758942
 31
0.0
  0
SPLINE
  5
1B3
330
70
100
AcDbEntity
  8
plateau v8_Sketch40
100
AcDbSpline
210
0.0
220
0.0
230
1.0
 70
     8
 71
     2
 72
     6
 73
     3
 74
     0
 42
0.000000001
 43
0.0000000001
 40
0.0
 40
0.0
 40
0.0
 40
1.0
 40
1.0
 40
1.0
 10
74.34699523877414
 20
11.83305720864288
 30
0.0
 10
74.34699523877414
 20
11.31851534424774
 30
0.0
 10
74.43648326825412
 20
11.14700178681366
 30
0.0
  0
SPLINE
  5
1B4
330
70
100
AcDbEntity
  8
plateau v8_Sketch40
100
AcDbSpline
210
0.0
220
0.0
230
1.0
 70
     8
 71
     2
 72
     6
 73
     3
 74
     0
 42
0.000000001
 43
0.0000000001
 40
0.0
 40
0.0
 40
0.0
 40
1.0
 40
1.0
 40
1.0
 10
100.2903174204758
 20
9.99860505639068
 30
0.0
 10
98.35892665814668
 20
9.99860505639068
 30
0.0
 10
97.18815792035371
 20
10.86735944329253
 30
0.0
  0
LINE
  5
1B5
330
70
100
AcDbEntity
  8
plateau v8_Sketch40
100
AcDbLine
 10
90.49165714215547
 20
10.19994716225616
 30
0.0
 11
85.6296156687668
 21
10.19994716225616
 31
0.0
  0
LINE
  5
1B6
330
70
100
AcDbEntity
  8
plateau v8_Sketch40
100
AcDbLine
 10
89.96965873669893
 20
15.22604684411041
 30
0.0
 11
89.96965873669893
 21
10.50568918763153
 31
0.0
  0
LINE
  5
1B7
330
70
100
AcDbEntity
  8
plateau v8_Sketch40
100
AcDbLine
 10
86.57667148541719
 20
10.50568918763153
 30
0.0
 11
86.57667148541719
 21
16.09853009758941
 31
0.0
  0
SPLINE
  5
1B8
330
70
100
AcDbEntity
  8
plateau v8_Sketch40
100
AcDbSpline
210
0.0
220
0.0
230
1.0
 70
     8
 71
     2
 72
     6
 73
     3
 74
     0
 42
0.000000001
 43
0.0000000001
 40
0.0
 40
0.0
 40
0.0
 40
1.0
 40
1.0
 40
1.0
 10
100.998744849675
 20
15.2857039409732
 30
0.0
 10
100.998744849675
 20
15.82261662064544
 30
0.0
 10
100.8495997233322
 20
16.02768759308807
 30
0.0
  0
SPLINE
  5
1B9
330
70
100
AcDbEntity
  8
plateau v8_Sketch40
100
AcDbSpline
210
0.0
220
0.0
230
1.0
 70
     8
 71
     2
 72
     6
 73
     3
 74
     0
 42
0.000000001
 43
0.0000000001
 40
0.0
 40
0.0
 40
0.0
 40
1.0
 40
1.0
 40
1.0
 10
100.8309649271896
 20
10.52060346184722
 30
0.0
 10
100.998744849675
 20
10.7368598419284
 30
0.0
 10
100.998744849675
 20
11.25140170632354
 30
0.0
  0
SPLINE
  5
1BA
330
70
100
AcDbEntity
  8
plateau v8_Sketch40
100
AcDbSpline
210
0.0
220
0.0
230
1.0
 70
     8
 71
     2
 72
     6
 73
     3
 74
     0
 42
0.000000001
 43
0.0000000001
 40
0.0
 40
0.0
 40
0.0
 40
1.0
 40
1.0
 40
1.0
 10
91.26719940137178
 20
14.87556199608795
 30
0.0
 10
91.26719940137178
 20
15.65110306321136
 30
0.0
 10
90.81231582593233
 20
15.65110306321136
 30
0.0
  0
LINE
  5
1BB
330
70
100
AcDbEntity
  8
plateau v8_Sketch40
100
AcDbLine
 10
95.59232700299531
 20
10.50568918763152
 30
0.0
 11
95.59232700299531
 21
10.19994716225616
 31
0.0
  0
LINE
  5
1BC
330
70
100
AcDbEntity
  8
plateau v8_Sketch40
100
AcDbLine
 10
85.4953907771042
 20
10.50568918763153
 30
0.0
 11
85.4953907771042
 21
10.19994716225616
 31
0.0
  0
SPLINE
  5
1BD
330
70
100
AcDbEntity
  8
plateau v8_Sketch40
100
AcDbSpline
210
0.0
220
0.0
230
1.0
 70
     8
 71
     2
 72
     6
 73
     3
 74
     0
 42
0.000000001
 43
0.0000000001
 40
0.0
 40
0.0
 40
0.0
 40
1.0
 40
1.0
 40
1.0
 10
97.18815792035371
 20
15.58398882924072
 30
0.0
 10
98.35892665814668
 20
16.50867204247466
 30
0.0
 10
100.3052328867844
 20
16.50867204247466
 30
0.0
  0
LINE
  5
1BE
330
70
100
AcDbEntity
  8
plateau v8_Sketch40
100
AcDbLine
 10
89.96965873669893
 20
16.59815709172241
 30
0.0
 11
89.96965873669893
 21
15.59144596634857
 31
0.0
  0
LINE
  5
1BF
330
70
100
AcDbEntity
  8
plateau v8_Sketch40
100
AcDbLine
 10
95.59232700299531
 20
10.19994716225616
 30
0.0
 11
90.74520099591524
 21
10.19994716225616
 31
0.0
  0
LINE
  5
1C0
330
70
100
AcDbEntity
  8
plateau v8_Sketch40
100
AcDbLine
 10
86.57667148541719
 20
16.09853009758941
 30
0.0
 11
85.6296156687668
 21
16.09853009758941
 31
0.0
  0
SPLINE
  5
1C1
330
70
100
AcDbEntity
  8
plateau v8_Sketch40
100
AcDbSpline
210
0.0
220
0.0
230
1.0
 70
     8
 71
     2
 72
     6
 73
     3
 74
     0
 42
0.000000001
 43
0.0000000001
 40
0.0
 40
0.0
 40
0.0
 40
1.0
 40
1.0
 40
1.0
 10
103.4409521861008
 20
15.57653169213287
 30
0.0
 10
104.6005343241623
 20
14.64439134179107
 30
0.0
 10
104.6005343241623
 20
13.08585266648284
 30
0.0
  0
SPLINE
  5
1C2
330
70
100
AcDbEntity
  8
plateau v8_Sketch40
100
AcDbSpline
210
0.0
220
0.0
230
1.0
 70
     8
 71
     2
 72
     6
 73
     3
 74
     0
 42
0.000000001
 43
0.0000000001
 40
0.0
 40
0.0
 40
0.0
 40
1.0
 40
1.0
 40
1.0
 10
96.01738918256074
 20
13.14550976334564
 30
0.0
 10
96.01738918256074
 20
14.65930561600677
 30
0.0
 10
97.18815792035371
 20
15.58398882924072
 30
0.0
  0
SPLINE
  5
1C3
330
70
100
AcDbEntity
  8
plateau v8_Sketch40
100
AcDbSpline
210
0.0
220
0.0
230
1.0
 70
     8
 71
     2
 72
     6
 73
     3
 74
     0
 42
0.000000001
 43
0.0000000001
 40
0.0
 40
0.0
 40
0.0
 40
1.0
 40
1.0
 40
1.0
 10
100.8495997233322
 20
16.02768759308807
 30
0.0
 10
100.7004641337326
 20
16.23275856553069
 30
0.0
 10
100.3052328867844
 20
16.23275856553069
 30
0.0
  0
LINE
  5
1C4
330
70
100
AcDbEntity
  8
plateau v8_Sketch40
100
AcDbLine
 10
100.998744849675
 20
11.25140170632354
 30
0.0
 11
100.998744849675
 21
15.2857039409732
 31
0.0
  0
SPLINE
  5
1C5
330
70
100
AcDbEntity
  8
plateau v8_Sketch40
100
AcDbSpline
210
0.0
220
0.0
230
1.0
 70
     8
 71
     2
 72
     6
 73
     3
 74
     0
 42
0.000000001
 43
0.0000000001
 40
0.0
 40
0.0
 40
0.0
 40
1.0
 40
1.0
 40
1.0
 10
88.47077835034639
 20
16.39681498585693
 30
0.0
 10
89.17174804639131
 20
16.39681498585693
 30
0.0
 10
89.96965873669893
 20
16.59815709172241
 30
0.0
  0
LINE
  5
1C6
330
70
100
AcDbEntity
  8
plateau v8_Sketch40
100
AcDbLine
 10
94.66018665265352
 20
10.50568918763152
 30
0.0
 11
95.59232700299531
 21
10.50568918763152
 31
0.0
  0
SPLINE
  5
1C7
330
70
100
AcDbEntity
  8
plateau v8_Sketch40
100
AcDbSpline
210
0.0
220
0.0
230
1.0
 70
     8
 71
     2
 72
     6
 73
     3
 74
     0
 42
0.000000001
 43
0.0000000001
 40
0.0
 40
0.0
 40
0.0
 40
1.0
 40
1.0
 40
1.0
 10
94.01514995526582
 20
16.06870154915801
 30
0.0
 10
94.66018665265352
 20
15.62873165188781
 30
0.0
 10
94.66018665265352
 20
14.52507714806549
 30
0.0
  0
SPLINE
  5
1C8
330
70
100
AcDbEntity
  8
plateau v8_Sketch40
100
AcDbSpline
210
0.0
220
0.0
230
1.0
 70
     8
 71
     2
 72
     6
 73
     3
 74
     0
 42
0.000000001
 43
0.0000000001
 40
0.0
 40
0.0
 40
0.0
 40
1.0
 40
1.0
 40
1.0
 10
100.3052328867844
 20
16.50867204247466
 30
0.0
 10
102.2813700480392
 20
16.50867204247466
 30
0.0
 10
103.4409521861008
 20
15.57653169213287
 30
0.0
  0
LINE
  5
1C9
330
70
100
AcDbEntity
  8
plateau v8_Sketch40
100
AcDbLine
 10
90.74520099591524
 20
10.19994716225616
 30
0.0
 11
90.74520099591524
 21
10.50568918763152
 31
0.0
  0
LINE
  5
1CA
330
70
100
AcDbEntity
  8
plateau v8_Sketch40
100
AcDbLine
 10
85.6296156687668
 20
16.39681498585693
 30
0.0
 11
88.47077835034639
 21
16.39681498585693
 31
0.0
  0
SPLINE
  5
1CB
330
70
100
AcDbEntity
  8
plateau v8_Sketch40
100
AcDbSpline
210
0.0
220
0.0
230
1.0
 70
     8
 71
     2
 72
     6
 73
     3
 74
     0
 42
0.000000001
 43
0.0000000001
 40
0.0
 40
0.0
 40
0.0
 40
1.0
 40
1.0
 40
1.0
 10
104.6005343241623
 20
13.08585266648284
 30
0.0
 10
104.6005343241623
 20
11.6764567333316
 30
0.0
 10
103.4334944529465
 20
10.83753089486114
 30
0.0
  0
LINE
  5
1CC
330
70
100
AcDbEntity
  8
plateau v8_Sketch40
100
AcDbLine
 10
91.26719940137178
 20
10.50568918763152
 30
0.0
 11
91.26719940137178
 21
14.87556199608795
 31
0.0
  0
SPLINE
  5
1CD
330
70
100
AcDbEntity
  8
plateau v8_Sketch40
100
AcDbSpline
210
0.0
220
0.0
230
1.0
 70
     8
 71
     2
 72
     6
 73
     3
 74
     0
 42
0.000000001
 43
0.0000000001
 40
0.0
 40
0.0
 40
0.0
 40
1.0
 40
1.0
 40
1.0
 10
89.96965873669893
 20
15.59144596634857
 30
0.0
 10
91.22245777081758
 20
16.50867204247466
 30
0.0
 10
92.49016750287324
 20
16.50867204247466
 30
0.0
  0
SPLINE
  5
1CE
330
70
100
AcDbEntity
  8
plateau v8_Sketch40
100
AcDbSpline
210
0.0
220
0.0
230
1.0
 70
     8
 71
     2
 72
     6
 73
     3
 74
     0
 42
0.000000001
 43
0.0000000001
 40
0.0
 40
0.0
 40
0.0
 40
1.0
 40
1.0
 40
1.0
 10
100.3052328867844
 20
16.23275856553069
 30
0.0
 10
99.91745937299043
 20
16.23275856553069
 30
0.0
 10
99.76086605023652
 20
16.00531618176452
 30
0.0
  0
SPLINE
  5
1CF
330
70
100
AcDbEntity
  8
plateau v8_Sketch40
100
AcDbSpline
210
0.0
220
0.0
230
1.0
 70
     8
 71
     2
 72
     6
 73
     3
 74
     0
 42
0.000000001
 43
0.0000000001
 40
0.0
 40
0.0
 40
0.0
 40
1.0
 40
1.0
 40
1.0
 10
100.2455805582932
 20
10.30434708176604
 30
0.0
 10
100.6631754679611
 20
10.30434708176604
 30
0.0
 10
100.8309649271896
 20
10.52060346184722
 30
0.0
  0
LINE
  5
1D0
330
70
100
AcDbEntity
  8
plateau v8_Sketch40
100
AcDbLine
 10
90.49165714215547
 20
10.50568918763152
 30
0.0
 11
90.49165714215547
 21
10.19994716225616
 31
0.0
  0
LINE
  5
1D1
330
70
100
AcDbEntity
  8
plateau v8_Sketch40
100
AcDbLine
 10
84.50359332989961
 20
16.59815709172241
 30
0.0
 11
84.50359332989961
 21
10.50568918763153
 31
0.0
  0
LINE
  5
1D2
330
70
100
AcDbEntity
  8
plateau v8_Sketch40
100
AcDbLine
 10
94.66018665265352
 20
14.52507714806549
 30
0.0
 11
94.66018665265352
 21
10.50568918763152
 31
0.0
  0
SPLINE
  5
1D3
330
70
100
AcDbEntity
  8
plateau v8_Sketch40
100
AcDbSpline
210
0.0
220
0.0
230
1.0
 70
     8
 71
     2
 72
     6
 73
     3
 74
     0
 42
0.000000001
 43
0.0000000001
 40
0.0
 40
0.0
 40
0.0
 40
1.0
 40
1.0
 40
1.0
 10
99.76086605023652
 20
16.00531618176452
 30
0.0
 10
99.60426319073945
 20
15.77787439404479
 30
0.0
 10
99.60426319073945
 20
15.22604744015685
 30
0.0
  0
LINE
  5
1D4
330
70
100
AcDbEntity
  8
plateau v8_Sketch40
100
AcDbLine
 10
85.6296156687668
 20
10.19994716225616
 30
0.0
 11
85.6296156687668
 21
10.50568918763153
 31
0.0
  0
LINE
  5
1D5
330
70
100
AcDbEntity
  8
plateau v8_Sketch40
100
AcDbLine
 10
90.74520099591524
 20
10.50568918763152
 30
0.0
 11
91.26719940137178
 21
10.50568918763152
 31
0.0
  0
LINE
  5
1D6
330
70
100
AcDbEntity
  8
plateau v8_Sketch40
100
AcDbLine
 10
85.6296156687668
 20
10.50568918763153
 30
0.0
 11
86.57667148541719
 21
10.50568918763153
 31
0.0
  0
SPLINE
  5
1D7
330
70
100
AcDbEntity
  8
plateau v8_Sketch40
100
AcDbSpline
210
0.0
220
0.0
230
1.0
 70
     8
 71
     2
 72
     6
 73
     3
 74
     0
 42
0.000000001
 43
0.0000000001
 40
0.0
 40
0.0
 40
0.0
 40
1.0
 40
1.0
 40
1.0
 10
92.49016750287324
 20
16.50867204247466
 30
0.0
 10
93.37010848950654
 20
16.50867204247466
 30
0.0
 10
94.01514995526582
 20
16.06870154915801
 30
0.0
  0
LINE
  5
1D8
330
70
100
AcDbEntity
  8
plateau v8_Sketch40
100
AcDbLine
 10
85.6296156687668
 20
16.09853009758941
 30
0.0
 11
85.6296156687668
 21
16.39681498585693
 31
0.0
  0
SPLINE
  5
1D9
330
70
100
AcDbEntity
  8
plateau v8_Sketch40
100
AcDbSpline
210
0.0
220
0.0
230
1.0
 70
     8
 71
     2
 72
     6
 73
     3
 74
     0
 42
0.000000001
 43
0.0000000001
 40
0.0
 40
0.0
 40
0.0
 40
1.0
 40
1.0
 40
1.0
 10
99.60426319073945
 20
11.25140170632354
 30
0.0
 10
99.60426319073945
 20
10.729403300867
 30
0.0
 10
99.74967945050508
 20
10.51687459527007
 30
0.0
  0
LINE
  5
1DA
330
70
100
AcDbEntity
  8
plateau v8_Sketch40
100
AcDbLine
 10
84.50359332989961
 20
10.50568918763153
 30
0.0
 11
85.4953907771042
 21
10.50568918763153
 31
0.0
  0
SPLINE
  5
1DB
330
70
100
AcDbEntity
  8
plateau v8_Sketch40
100
AcDbSpline
210
0.0
220
0.0
230
1.0
 70
     8
 71
     2
 72
     6
 73
     3
 74
     0
 42
0.000000001
 43
0.0000000001
 40
0.0
 40
0.0
 40
0.0
 40
1.0
 40
1.0
 40
1.0
 10
90.81231582593233
 20
15.65110306321136
 30
0.0
 10
90.44691551160127
 20
15.65110306321136
 30
0.0
 10
89.96965873669893
 20
15.22604684411041
 30
0.0
  0
LINE
  5
1DC
330
70
100
AcDbEntity
  8
plateau v8_Sketch40
100
AcDbLine
 10
99.60426319073945
 20
15.22604744015685
 30
0.0
 11
99.60426319073945
 21
11.25140170632354
 31
0.0
  0
SPLINE
  5
1DD
330
70
100
AcDbEntity
  8
plateau v8_Sketch40
100
AcDbSpline
210
0.0
220
0.0
230
1.0
 70
     8
 71
     2
 72
     6
 73
     3
 74
     0
 42
0.000000001
 43
0.0000000001
 40
0.0
 40
0.0
 40
0.0
 40
1.0
 40
1.0
 40
1.0
 10
97.18815792035371
 20
10.86735944329253
 30
0.0
 10
96.01738918256074
 20
11.73611383019439
 30
0.0
 10
96.01738918256074
 20
13.14550976334564
 30
0.0
  0
SPLINE
  5
1DE
330
70
100
AcDbEntity
  8
plateau v8_Sketch40
100
AcDbSpline
210
0.0
220
0.0
230
1.0
 70
     8
 71
     2
 72
     6
 73
     3
 74
     0
 42
0.000000001
 43
0.0000000001
 40
0.0
 40
0.0
 40
0.0
 40
1.0
 40
1.0
 40
1.0
 10
103.4334944529465
 20
10.83753089486114
 30
0.0
 10
102.2664545817306
 20
9.99860505639068
 30
0.0
 10
100.2903174204758
 20
9.99860505639068
 30
0.0
  0
SPLINE
  5
1DF
330
70
100
AcDbEntity
  8
plateau v8_Sketch40
100
AcDbSpline
210
0.0
220
0.0
230
1.0
 70
     8
 71
     2
 72
     6
 73
     3
 74
     0
 42
0.000000001
 43
0.0000000001
 40
0.0
 40
0.0
 40
0.0
 40
1.0
 40
1.0
 40
1.0
 10
99.74967945050508
 20
10.51687459527007
 30
0.0
 10
99.8950957102707
 20
10.30434708176604
 30
0.0
 10
100.2455805582932
 20
10.30434708176604
 30
0.0
  0
LINE
  5
1E0
330
70
100
AcDbEntity
  8
plateau v8_Sketch40
100
AcDbLine
 10
89.96965873669893
 20
10.50568918763153
 30
0.0
 11
90.49165714215547
 21
10.50568918763152
 31
0.0
  0
POINT
  5
1E2
330
70
100
AcDbEntity
  8
plateau v8_Sketch41
100
AcDbPoint
 10
0.0
 20
0.0
 30
0.0
  0
POINT
  5
1E4
330
70
100
AcDbEntity
  8
plateau v8_Sketch42
100
AcDbPoint
 10
0.0
 20
0.0
 30
0.0
  0
POINT
  5
1E6
330
70
100
AcDbEntity
  8
plateau v8_Sketch43
100
AcDbPoint
 10
0.0
 20
0.0
 30
0.0
  0
POINT
  5
1E8
330
70
100
AcDbEntity
  8
plateau v8_Sketch44
100
AcDbPoint
 10
0.0
 20
0.0
 30
0.0
  0
POINT
  5
1EA
330
70
100
AcDbEntity
  8
plateau v8_Sketch45
100
AcDbPoint
 10
0.0
 20
0.0
 30
0.0
  0
POINT
  5
1EC
330
70
100
AcDbEntity
  8
plateau v8_Sketch46
100
AcDbPoint
 10
0.0
 20
0.0
 30
0.0
  0
POINT
  5
1EE
330
70
100
AcDbEntity
  8
plateau v8_Sketch47
100
AcDbPoint
 10
0.0
 20
0.0
 30
0.0
  0
POINT
  5
1EF
330
70
100
AcDbEntity
  8
plateau v8_Sketch47
100
AcDbPoint
 10
17.0
 20
170.0
 30
0.0
  0
CIRCLE
  5
1F0
330
70
100
AcDbEntity
  8
plateau v8_Sketch47
100
AcDbCircle
 10
17.0
 20
130.0
 30
0.0
 40
1.6
  0
POINT
  5
1F2
330
70
100
AcDbEntity
  8
plateau v8_Sketch48
100
AcDbPoint
 10
0.0
 20
0.0
 30
0.0
  0
POINT
  5
1F3
330
70
100
AcDbEntity
  8
plateau v8_Sketch48
100
AcDbPoint
 10
17.0
 20
130.0
 30
0.0
  0
CIRCLE
  5
1F4
330
70
100
AcDbEntity
  8
plateau v8_Sketch48
100
AcDbCircle
 10
17.0
 20
99.7925070175947
 30
0.0
 40
1.599999999999996
  0
POINT
  5
1F6
330
70
100
AcDbEntity
  8
plateau v8_Sketch49
100
AcDbPoint
 10
0.0
 20
0.0
 30
0.0
  0
POINT
  5
1F8
330
70
100
AcDbEntity
  8
plateau v8_Sketch50
100
AcDbPoint
 10
0.0
 20
0.0
 30
0.0
  0
POINT
  5
1F9
330
70
100
AcDbEntity
  8
plateau v8_Sketch50
100
AcDbPoint
 10
53.99999999999999
 20
170.0
 30
0.0
  0
CIRCLE
  5
1FA
330
70
100
AcDbEntity
  8
plateau v8_Sketch50
100
AcDbCircle
 10
53.99999999999999
 20
130.0
 30
0.0
 40
1.599999999999992
  0
POINT
  5
1FC
330
70
100
AcDbEntity
  8
plateau v8_Sketch51
100
AcDbPoint
 10
0.0
 20
0.0
 30
0.0
  0
POINT
  5
1FD
330
70
100
AcDbEntity
  8
plateau v8_Sketch51
100
AcDbPoint
 10
53.99999999999999
 20
130.0
 30
0.0
  0
POINT
  5
1FE
330
70
100
AcDbEntity
  8
plateau v8_Sketch51
100
AcDbPoint
 10
17.0
 20
99.7925070175947
 30
0.0
  0
CIRCLE
  5
1FF
330
70
100
AcDbEntity
  8
plateau v8_Sketch51
100
AcDbCircle
 10
53.99999999999999
 20
99.7925070175947
 30
0.0
 40
1.600000000000003
  0
ENDSEC
  0
SECTION
  2
OBJECTS
  0
DICTIONARY
  5
C
330
0
100
AcDbDictionary
281
     1
  3
ACAD_COLOR
350
63
  3
ACAD_DETAILVIEWSTYLE
350
6A
  3
ACAD_GROUP
350
D
  3
ACAD_LAYOUT
350
62
  3
ACAD_MATERIAL
350
10
  3
ACAD_MLEADERSTYLE
350
66
  3
ACAD_MLINESTYLE
350
5F
  3
ACAD_PLOTSETTINGS
350
61
  3
ACAD_PLOTSTYLENAME
350
E
  3
ACAD_SCALELIST
350
42
  3
ACAD_SECTIONVIEWSTYLE
350
68
  3
ACAD_TABLESTYLE
350
64
  3
ACAD_VISUALSTYLE
350
29
  3
ACDB_RECOMPOSE_DATA
350
208
  3
AcDbVariableDictionary
350
200
  0
DICTIONARY
  5
63
102
{ACAD_REACTORS
330
C
102
}
330
C
100
AcDbDictionary
281
     1
  0
DICTIONARY
  5
6A
102
{ACAD_REACTORS
330
C
102
}
330
C
100
AcDbDictionary
281
     1
  3
Imperial24
350
6B
  0
DICTIONARY
  5
D
102
{ACAD_REACTORS
330
C
102
}
330
C
100
AcDbDictionary
281
     1
  0
DICTIONARY
  5
62
102
{ACAD_REACTORS
330
C
102
}
330
C
100
AcDbDictionary
281
     1
  3
Layout1
350
6F
  3
Layout2
350
77
  3
Model
350
73
  0
DICTIONARY
  5
10
102
{ACAD_REACTORS
330
C
102
}
330
C
100
AcDbDictionary
281
     1
  3
ByBlock
350
19
  3
ByLayer
350
11
  3
Global
350
21
  0
DICTIONARY
  5
66
102
{ACAD_REACTORS
330
C
102
}
330
C
100
AcDbDictionary
281
     1
  3
Standard
350
67
  0
DICTIONARY
  5
5F
102
{ACAD_REACTORS
330
C
102
}
330
C
100
AcDbDictionary
281
     1
  3
Standard
350
60
  0
DICTIONARY
  5
61
102
{ACAD_REACTORS
330
C
102
}
330
C
100
AcDbDictionary
281
     1
  0
ACDBDICTIONARYWDFLT
  5
E
102
{ACAD_REACTORS
330
C
102
}
330
C
100
AcDbDictionary
281
     1
  3
Normal
350
F
100
AcDbDictionaryWithDefault
340
F
  0
DICTIONARY
  5
42
102
{ACAD_REACTORS
330
C
102
}
330
C
100
AcDbDictionary
281
     1
  3
A0
350
43
  3
A1
350
44
  3
A2
350
45
  3
A3
350
46
  3
A4
350
47
  3
A5
350
48
  3
A6
350
49
  3
A7
350
4A
  3
A8
350
4B
  3
A9
350
4C
  3
B0
350
4D
  3
B1
350
4E
  3
B2
350
4F
  3
B3
350
50
  3
B4
350
51
  3
B5
350
52
  3
B6
350
53
  0
DICTIONARY
  5
68
102
{ACAD_REACTORS
330
C
102
}
330
C
100
AcDbDictionary
281
     1
  3
Imperial24
350
69
  0
DICTIONARY
  5
64
102
{ACAD_REACTORS
330
C
102
}
330
C
100
AcDbDictionary
281
     1
  3
Standard
350
65
  0
DICTIONARY
  5
29
102
{ACAD_REACTORS
330
C
102
}
330
C
100
AcDbDictionary
281
     1
  3
2dWireframe
350
2F
  3
Basic
350
2E
  3
Brighten
350
35
  3
ColorChange
350
39
  3
Conceptual
350
32
  3
Dim
350
34
  3
EdgeColorOff
350
41
  3
Facepattern
350
38
  3
Flat
350
2A
  3
FlatWithEdges
350
2B
  3
Gouraud
350
2C
  3
GouraudWithEdges
350
2D
  3
Hidden
350
31
  3
JitterOff
350
3F
  3
Linepattern
350
37
  3
OverhangOff
350
40
  3
Realistic
350
33
  3
Shaded
350
3E
  3
Shaded with edges
350
3D
  3
Shades of Gray
350
3A
  3
Sketchy
350
3B
  3
Thicken
350
36
  3
Wireframe
350
30
  3
X-Ray
350
3C
  0
XRECORD
  5
208
102
{ACAD_REACTORS
330
C
102
}
330
C
100
AcDbXrecord
280
     1
 90
        1
330
65
  0
DICTIONARY
  5
200
102
{ACAD_REACTORS
330
C
102
}
330
C
100
AcDbDictionary
281
     1
  3
CANNOSCALE
350
205
  3
CMLEADERSTYLE
350
202
  3
CTABLESTYLE
350
201
  3
CVIEWDETAILSTYLE
350
203
  3
CVIEWSECTIONSTYLE
350
204
  0
ACDBDETAILVIEWSTYLE
  5
6B
102
{ACAD_XDICTIONARY
360
20B
102
}
102
{ACAD_REACTORS
330
6A
102
}
330
6A
100
AcDbModelDocViewStyle
 70
     0
  3
Imperial24
290
     0
100
AcDbDetailViewStyle
 70
     0
 71
     0
 90
        3
 71
     1
340
55
 62
   256
 40
0.24
340
0
 62
   256
 40
0.24
300

 40
0.36
280
     3
 71
     2
340
5D
 90
       25
 62
   256
 71
     3
340
55
 62
   256
 40
0.24
 90
        1
 40
0.75
 90
        1
300
%<\AcVar ViewType \f "%tc1">% %<\AcVar ViewDetailId>%\PSCALE %<\AcVar ViewScale \f "%sn">%
 71
     4
340
5D
 90
       25
 62
   256
340
5D
 90
       25
 62
   256
280
     0
  0
LAYOUT
  5
6F
102
{ACAD_REACTORS
330
62
102
}
330
62
100
AcDbPlotSettings
  1

  2

  4

  6

 40
0.0
 41
0.0
 42
0.0
 43
0.0
 44
0.0
 45
0.0
 46
0.0
 47
0.0
 48
0.0
 49
0.0
140
0.0
141
0.0
142
1.0
143
1.0
 70
   688
 72
     0
 73
     0
 74
     5
  7

 75
    16
147
1.0
 76
     0
 77
     2
 78
   300
148
0.0
149
0.0
100
AcDbLayout
  1
Layout1
 70
     1
 71
     1
 10
0.0
 20
0.0
 11
12.0
 21
9.0
 12
0.0
 22
0.0
 32
0.0
 14
0.0
 24
0.0
 34
0.0
 15
0.0
 25
0.0
 35
0.0
146
0.0
 13
0.0
 23
0.0
 33
0.0
 16
1.0
 26
0.0
 36
0.0
 17
0.0
 27
1.0
 37
0.0
 76
     0
330
6C
  0
LAYOUT
  5
77
102
{ACAD_REACTORS
330
62
102
}
330
62
100
AcDbPlotSettings
  1

  2

  4

  6

 40
0.0
 41
0.0
 42
0.0
 43
0.0
 44
0.0
 45
0.0
 46
0.0
 47
0.0
 48
0.0
 49
0.0
140
0.0
141
0.0
142
1.0
143
1.0
 70
   688
 72
     0
 73
     0
 74
     5
  7

 75
    16
147
1.0
 76
     0
 77
     2
 78
   300
148
0.0
149
0.0
100
AcDbLayout
  1
Layout2
 70
     1
 71
     2
 10
0.0
 20
0.0
 11
12.0
 21
9.0
 12
0.0
 22
0.0
 32
0.0
 14
0.0
 24
0.0
 34
0.0
 15
0.0
 25
0.0
 35
0.0
146
0.0
 13
0.0
 23
0.0
 33
0.0
 16
1.0
 26
0.0
 36
0.0
 17
0.0
 27
1.0
 37
0.0
 76
     0
330
74
  0
LAYOUT
  5
73
102
{ACAD_REACTORS
330
62
102
}
330
62
100
AcDbPlotSettings
  1

  2

  4

  6

 40
0.0
 41
0.0
 42
0.0
 43
0.0
 44
0.0
 45
0.0
 46
0.0
 47
0.0
 48
0.0
 49
0.0
140
0.0
141
0.0
142
1.0
143
1.0
 70
  1712
 72
     0
 73
     0
 74
     0
  7

 75
     0
147
1.0
 76
     0
 77
     2
 78
   300
148
0.0
149
0.0
100
AcDbLayout
  1
Model
 70
     1
 71
     0
 10
0.0
 20
0.0
 11
12.0
 21
9.0
 12
0.0
 22
0.0
 32
0.0
 14
0.0
 24
0.0
 34
0.0
 15
0.0
 25
0.0
 35
0.0
146
0.0
 13
0.0
 23
0.0
 33
0.0
 16
1.0
 26
0.0
 36
0.0
 17
0.0
 27
1.0
 37
0.0
 76
     0
330
70
  0
MATERIAL
  5
19
102
{ACAD_XDICTIONARY
360
1A
102
}
102
{ACAD_REACTORS
330
10
102
}
330
10
100
AcDbMaterial
  1
ByBlock
 72
     0
 43
0.0208333333333333
 43
0.0
 43
0.0
 43
0.0
 43
0.0
 43
0.0208333333333333
 43
0.0
 43
0.0
 43
0.0
 43
0.0
 43
1.0
 43
0.0
 43
0.0
 43
0.0
 43
0.0
 43
1.0
 77
     0
 47
0.0208333333333333
 47
0.0
 47
0.0
 47
0.0
 47
0.0
 47
0.0208333333333333
 47
0.0
 47
0.0
 47
0.0
 47
0.0
 47
1.0
 47
0.0
 47
0.0
 47
0.0
 47
0.0
 47
1.0
171
     0
 49
0.0208333333333333
 49
0.0
 49
0.0
 49
0.0
 49
0.0
 49
0.0208333333333333
 49
0.0
 49
0.0
 49
0.0
 49
0.0
 49
1.0
 49
0.0
 49
0.0
 49
0.0
 49
0.0
 49
1.0
175
     0
142
0.0208333333333333
142
0.0
142
0.0
142
0.0
142
0.0
142
0.0208333333333333
142
0.0
142
0.0
142
0.0
142
0.0
142
1.0
142
0.0
142
0.0
142
0.0
142
0.0
142
1.0
179
     0
144
0.0208333333333333
144
0.0
144
0.0
144
0.0
144
0.0
144
0.0208333333333333
144
0.0
144
0.0
144
0.0
144
0.0
144
1.0
144
0.0
144
0.0
144
0.0
144
0.0
144
1.0
147
0.0208333333333333
147
0.0
147
0.0
147
0.0
147
0.0
147
0.0208333333333333
147
0.0
147
0.0
147
0.0
147
0.0
147
1.0
147
0.0
147
0.0
147
0.0
147
0.0
147
1.0
  0
MATERIAL
  5
11
102
{ACAD_XDICTIONARY
360
12
102
}
102
{ACAD_REACTORS
330
10
102
}
330
10
100
AcDbMaterial
  1
ByLayer
 72
     0
 43
0.0208333333333333
 43
0.0
 43
0.0
 43
0.0
 43
0.0
 43
0.0208333333333333
 43
0.0
 43
0.0
 43
0.0
 43
0.0
 43
1.0
 43
0.0
 43
0.0
 43
0.0
 43
0.0
 43
1.0
 77
     0
 47
0.0208333333333333
 47
0.0
 47
0.0
 47
0.0
 47
0.0
 47
0.0208333333333333
 47
0.0
 47
0.0
 47
0.0
 47
0.0
 47
1.0
 47
0.0
 47
0.0
 47
0.0
 47
0.0
 47
1.0
171
     0
 49
0.0208333333333333
 49
0.0
 49
0.0
 49
0.0
 49
0.0
 49
0.0208333333333333
 49
0.0
 49
0.0
 49
0.0
 49
0.0
 49
1.0
 49
0.0
 49
0.0
 49
0.0
 49
0.0
 49
1.0
175
     0
142
0.0208333333333333
142
0.0
142
0.0
142
0.0
142
0.0
142
0.0208333333333333
142
0.0
142
0.0
142
0.0
142
0.0
142
1.0
142
0.0
142
0.0
142
0.0
142
0.0
142
1.0
179
     0
144
0.0208333333333333
144
0.0
144
0.0
144
0.0
144
0.0
144
0.0208333333333333
144
0.0
144
0.0
144
0.0
144
0.0
144
1.0
144
0.0
144
0.0
144
0.0
144
0.0
144
1.0
147
0.0208333333333333
147
0.0
147
0.0
147
0.0
147
0.0
147
0.0208333333333333
147
0.0
147
0.0
147
0.0
147
0.0
147
1.0
147
0.0
147
0.0
147
0.0
147
0.0
147
1.0
  0
MATERIAL
  5
21
102
{ACAD_XDICTIONARY
360
22
102
}
102
{ACAD_REACTORS
330
10
102
}
330
10
100
AcDbMaterial
  1
Global
 72
     0
 43
0.0208333333333333
 43
0.0
 43
0.0
 43
0.0
 43
0.0
 43
0.0208333333333333
 43
0.0
 43
0.0
 43
0.0
 43
0.0
 43
1.0
 43
0.0
 43
0.0
 43
0.0
 43
0.0
 43
1.0
 77
     0
 47
0.0208333333333333
 47
0.0
 47
0.0
 47
0.0
 47
0.0
 47
0.0208333333333333
 47
0.0
 47
0.0
 47
0.0
 47
0.0
 47
1.0
 47
0.0
 47
0.0
 47
0.0
 47
0.0
 47
1.0
171
     0
 49
0.0208333333333333
 49
0.0
 49
0.0
 49
0.0
 49
0.0
 49
0.0208333333333333
 49
0.0
 49
0.0
 49
0.0
 49
0.0
 49
1.0
 49
0.0
 49
0.0
 49
0.0
 49
0.0
 49
1.0
175
     0
142
0.0208333333333333
142
0.0
142
0.0
142
0.0
142
0.0
142
0.0208333333333333
142
0.0
142
0.0
142
0.0
142
0.0
142
1.0
142
0.0
142
0.0
142
0.0
142
0.0
142
1.0
179
     0
144
0.0208333333333333
144
0.0
144
0.0
144
0.0
144
0.0
144
0.0208333333333333
144
0.0
144
0.0
144
0.0
144
0.0
144
1.0
144
0.0
144
0.0
144
0.0
144
0.0
144
1.0
147
0.0208333333333333
147
0.0
147
0.0
147
0.0
147
0.0
147
0.0208333333333333
147
0.0
147
0.0
147
0.0
147
0.0
147
1.0
147
0.0
147
0.0
147
0.0
147
0.0
147
1.0
  0
MLEADERSTYLE
  5
67
102
{ACAD_REACTORS
330
66
102
}
330
66
100
AcDbMLeaderStyle
179
     2
170
     2
171
     1
172
     0
 90
        2
 40
0.0
 41
0.0
173
     1
 91
-1056964608
340
5B
 92
       -2
290
     1
 42
0.09
291
     1
 43
0.36
  3
Standard
 44
0.18
300

342
55
174
     1
178
     6
175
     1
176
     0
 93
-1056964608
 45
0.18
292
     0
297
     0
 46
0.18
 94
-1056964608
 47
1.0
 49
1.0
140
1.0
293
     1
141
0.0
294
     1
177
     0
142
1.0
295
     0
296
     0
143
0.125
271
     0
272
     9
273
     9
298
     1
  0
MLINESTYLE
  5
60
102
{ACAD_REACTORS
330
5F
102
}
330
5F
100
AcDbMlineStyle
  2
STANDARD
 70
     0
  3

 62
   256
 51
90.0
 52
90.0
 71
     2
 49
0.5
 62
   256
  6
BYLAYER
 49
-0.5
 62
   256
  6
BYLAYER
  0
ACDBPLACEHOLDER
  5
F
102
{ACAD_REACTORS
330
E
102
}
330
E
  0
SCALE
  5
43
102
{ACAD_REACTORS
330
42
102
}
330
42
100
AcDbScale
 70
     0
300
1:1
140
1.0
141
1.0
290
     1
  0
SCALE
  5
44
102
{ACAD_REACTORS
330
42
102
}
330
42
100
AcDbScale
 70
     0
300
1/128" = 1'-0"
140
0.0078125
141
12.0
290
     0
  0
SCALE
  5
45
102
{ACAD_REACTORS
330
42
102
}
330
42
100
AcDbScale
 70
     0
300
1/64" = 1'-0"
140
0.015625
141
12.0
290
     0
  0
SCALE
  5
46
102
{ACAD_REACTORS
330
42
102
}
330
42
100
AcDbScale
 70
     0
300
1/32" = 1'-0"
140
0.03125
141
12.0
290
     0
  0
SCALE
  5
47
102
{ACAD_REACTORS
330
42
102
}
330
42
100
AcDbScale
 70
     0
300
1/16" = 1'-0"
140
0.0625
141
12.0
290
     0
  0
SCALE
  5
48
102
{ACAD_REACTORS
330
42
102
}
330
42
100
AcDbScale
 70
     0
300
3/32" = 1'-0"
140
0.09375
141
12.0
290
     0
  0
SCALE
  5
49
102
{ACAD_REACTORS
330
42
102
}
330
42
100
AcDbScale
 70
     0
300
1/8" = 1'-0"
140
0.125
141
12.0
290
     0
  0
SCALE
  5
4A
102
{ACAD_REACTORS
330
42
102
}
330
42
100
AcDbScale
 70
     0
300
3/16" = 1'-0"
140
0.1875
141
12.0
290
     0
  0
SCALE
  5
4B
102
{ACAD_REACTORS
330
42
102
}
330
42
100
AcDbScale
 70
     0
300
1/4" = 1'-0"
140
0.25
141
12.0
290
     0
  0
SCALE
  5
4C
102
{ACAD_REACTORS
330
42
102
}
330
42
100
AcDbScale
 70
     0
300
3/8" = 1'-0"
140
0.375
141
12.0
290
     0
  0
SCALE
  5
4D
102
{ACAD_REACTORS
330
42
102
}
330
42
100
AcDbScale
 70
     0
300
1/2" = 1'-0"
140
0.5
141
12.0
290
     0
  0
SCALE
  5
4E
102
{ACAD_REACTORS
330
42
102
}
330
42
100
AcDbScale
 70
     0
300
3/4" = 1'-0"
140
0.75
141
12.0
290
     0
  0
SCALE
  5
4F
102
{ACAD_REACTORS
330
42
102
}
330
42
100
AcDbScale
 70
     0
300
1" = 1'-0"
140
1.0
141
12.0
290
     0
  0
SCALE
  5
50
102
{ACAD_REACTORS
330
42
102
}
330
42
100
AcDbScale
 70
     0
300
1-1/2" = 1'-0"
140
1.5
141
12.0
290
     0
  0
SCALE
  5
51
102
{ACAD_REACTORS
330
42
102
}
330
42
100
AcDbScale
 70
     0
300
3" = 1'-0"
140
3.0
141
12.0
290
     0
  0
SCALE
  5
52
102
{ACAD_REACTORS
330
42
102
}
330
42
100
AcDbScale
 70
     0
300
6" = 1'-0"
140
6.0
141
12.0
290
     0
  0
SCALE
  5
53
102
{ACAD_REACTORS
330
42
102
}
330
42
100
AcDbScale
 70
     0
300
1'-0" = 1'-0"
140
12.0
141
12.0
290
     0
  0
ACDBSECTIONVIEWSTYLE
  5
69
102
{ACAD_XDICTIONARY
360
209
102
}
102
{ACAD_REACTORS
330
68
102
}
330
68
100
AcDbModelDocViewStyle
 70
     0
  3
Imperial24
290
     0
100
AcDbSectionViewStyle
 70
     0
 71
     0
 90
       78
 71
     1
340
55
 62
   256
 40
0.24
340
0
340
0
 62
   256
 40
0.24
300
I, O, Q, S, X, Z
 40
0.48
 90
        3
 40
0.18
 90
        1
 71
     2
340
5D
 90
       25
 62
   256
340
5D
 90
       50
 62
   256
 40
0.24
 40
0.0
 40
0.24
 71
     3
340
55
 62
   256
 40
0.24
 90
        1
 40
0.75
 90
        1
300
%<\AcVar ViewType \f "%tc1">% %<\AcVar ViewSectionStartId>%-%<\AcVar ViewSectionEndId>%\PSCALE %<\AcVar ViewScale \f "%sn">%
 71
     4
 62
   256
 62
   257
300
ANSI31
 40
1.0
 90
        0
290
     0
290
     0
 90
        6
 40
0.0
 40
1.570796326794896
 40
0.2617993877991494
 40
1.308996938995747
 40
-0.2617993877991494
 40
1.832595714594046
  0
TABLESTYLE
  5
65
102
{ACAD_XDICTIONARY
360
206
102
}
102
{ACAD_REACTORS
330
64
102
}
330
64
100
AcDbTableStyle
280
     0
  3
Standard
 70
     0
 71
     0
 40
0.06
 41
0.06
280
     0
281
     0
  7
Standard
140
0.18
170
     2
 62
     0
 63
     7
283
     0
 90
      512
 91
        0
  1

274
    -2
284
     1
 64
     0
275
    -2
285
     1
 65
     0
276
    -2
286
     1
 66
     0
277
    -2
287
     1
 67
     0
278
    -2
288
     1
 68
     0
279
    -2
289
     1
 69
     0
  7
Standard
140
0.25
170
     5
 62
     0
 63
     7
283
     0
 90
      512
 91
        0
  1

274
    -2
284
     1
 64
     0
275
    -2
285
     1
 65
     0
276
    -2
286
     1
 66
     0
277
    -2
287
     1
 67
     0
278
    -2
288
     1
 68
     0
279
    -2
289
     1
 69
     0
  7
Standard
140
0.18
170
     5
 62
     0
 63
     7
283
     0
 90
      512
 91
        0
  1

274
    -2
284
     1
 64
     0
275
    -2
285
     1
 65
     0
276
    -2
286
     1
 66
     0
277
    -2
287
     1
 67
     0
278
    -2
288
     1
 68
     0
279
    -2
289
     1
 69
     0
  0
VISUALSTYLE
  5
2F
102
{ACAD_REACTORS
330
29
102
}
330
29
100
AcDbVisualStyle
  2
2dWireframe
 70
     4
177
     3
291
     0
 70
    58
 90
        0
176
     1
 90
        2
176
     1
 90
        0
176
     1
 90
        0
176
     1
 40
0.6
176
     1
 40
30.0
176
     1
 62
     7
420
 16777215
176
     1
 90
        1
176
     1
 90
        4
176
     1
 62
     7
176
     1
 62
   257
176
     1
 90
        1
176
     1
 90
        1
176
     1
 40
1.0
176
     1
 90
        0
176
     1
 62
   257
176
     1
 40
1.0
176
     1
 90
        1
176
     1
 90
        6
176
     1
 90
        2
176
     1
 62
     7
176
     1
 90
        5
176
     1
 90
        0
176
     1
 90
        0
176
     1
290
     0
176
     1
 90
        1
176
     1
 40
0.0
176
     1
 90
        0
176
     1
290
     1
176
     1
290
     1
176
     1
290
     0
176
     1
290
     0
176
     1
290
     0
176
     1
290
     0
176
     1
290
     0
176
     1
290
     0
176
     1
290
     0
176
     1
 90
       50
176
     1
 40
0.0
176
     1
 40
1.0
176
     1
 90
        0
176
     1
 62
    18
420
        0
176
     1
 90
       50
176
     1
 90
        3
176
     1
 62
     5
420
      255
176
     1
290
     0
176
     1
 90
       50
176
     1
 90
       50
176
     1
 90
       50
176
     1
290
     0
176
     1
 90
       50
176
     1
 62
   256
176
     0
 40
1.0
176
     0
 90
        2
176
     1
  1
strokes_ogs.tif
176
     1
290
     0
176
     1
 40
1.0
176
     1
 40
1.0
176
     1
1001
ACAD
1000
AcDbSavedByObjectVersion
1070
     0
  0
VISUALSTYLE
  5
2E
102
{ACAD_REACTORS
330
29
102
}
330
29
100
AcDbVisualStyle
  2
Basic
 70
     7
177
     3
291
     1
 70
    58
 90
        1
176
     1
 90
        0
176
     1
 90
        1
176
     1
 90
        0
176
     1
 40
0.6
176
     1
 40
30.0
176
     1
 62
     7
420
 16777215
176
     1
 90
        0
176
     1
 90
        4
176
     1
 62
     7
176
     1
 62
   257
176
     1
 90
        1
176
     1
 90
        1
176
     1
 40
1.0
176
     1
 90
        8
176
     1
 62
     7
176
     1
 40
1.0
176
     1
 90
        1
176
     1
 90
        6
176
     1
 90
        2
176
     1
 62
     7
176
     1
 90
        5
176
     1
 90
        0
176
     1
 90
        0
176
     1
290
     0
176
     1
 90
        1
176
     1
 40
0.0
176
     1
 90
        0
176
     1
290
     0
176
     1
290
     1
176
     1
290
     1
176
     1
290
     0
176
     1
290
     0
176
     1
290
     0
176
     1
290
     0
176
     1
290
     0
176
     1
290
     0
176
     1
 90
       50
176
     1
 40
0.0
176
     1
 40
1.0
176
     1
 90
        0
176
     1
 62
    18
420
        0
176
     1
 90
       50
176
     1
 90
        3
176
     1
 62
     5
420
      255
176
     1
290
     0
176
     1
 90
       50
176
     1
 90
       50
176
     1
 90
       50
176
     1
290
     0
176
     1
 90
       50
176
     1
 62
   256
176
     0
 40
1.0
176
     0
 90
        2
176
     1
  1
strokes_ogs.tif
176
     1
290
     0
176
     1
 40
1.0
176
     1
 40
1.0
176
     1
1001
ACAD
1000
AcDbSavedByObjectVersion
1070
     0
  0
VISUALSTYLE
  5
35
102
{ACAD_REACTORS
330
29
102
}
330
29
100
AcDbVisualStyle
  2
Brighten
 70
    12
177
     3
291
     1
 70
    58
 90
        2
176
     1
 90
        2
176
     1
 90
        0
176
     1
 90
        0
176
     1
 40
0.6
176
     1
 40
30.0
176
     1
 62
     7
420
 16777215
176
     1
 90
        1
176
     1
 90
        4
176
     1
 62
     7
176
     1
 62
   257
176
     1
 90
        1
176
     1
 90
        1
176
     1
 40
1.0
176
     1
 90
        8
176
     1
 62
     7
176
     1
 40
1.0
176
     1
 90
        1
176
     1
 90
        6
176
     1
 90
        2
176
     1
 62
     7
176
     1
 90
        5
176
     1
 90
        0
176
     1
 90
        0
176
     1
290
     0
176
     1
 90
        1
176
     1
 40
50.0
176
     1
 90
        0
176
     1
290
     0
176
     1
290
     1
176
     1
290
     1
176
     1
290
     0
176
     1
290
     0
176
     1
290
     0
176
     1
290
     0
176
     1
290
     0
176
     1
290
     0
176
     1
 90
       50
176
     1
 40
0.0
176
     1
 40
1.0
176
     1
 90
        0
176
     1
 62
    18
420
        0
176
     1
 90
       50
176
     1
 90
        3
176
     1
 62
     5
420
      255
176
     1
290
     0
176
     1
 90
       50
176
     1
 90
       50
176
     1
 90
       50
176
     1
290
     0
176
     1
 90
       50
176
     1
 62
   256
176
     0
 40
1.0
176
     0
 90
        2
176
     1
  1
strokes_ogs.tif
176
     1
290
     0
176
     1
 40
1.0
176
     1
 40
1.0
176
     1
1001
ACAD
1000
AcDbSavedByObjectVersion
1070
     0
  0
VISUALSTYLE
  5
39
102
{ACAD_REACTORS
330
29
102
}
330
29
100
AcDbVisualStyle
  2
ColorChange
 70
    16
177
     3
291
     1
 70
    58
 90
        2
176
     1
 90
        2
176
     1
 90
        3
176
     1
 90
        0
176
     1
 40
0.6
176
     1
 40
30.0
176
     1
 62
     8
420
  8421504
176
     1
 90
        1
176
     1
 90
        4
176
     1
 62
     7
176
     1
 62
   257
176
     1
 90
        1
176
     1
 90
        1
176
     1
 40
1.0
176
     1
 90
        8
176
     1
 62
     8
420
  8421504
176
     1
 40
1.0
176
     1
 90
        1
176
     1
 90
        6
176
     1
 90
        2
176
     1
 62
     7
176
     1
 90
        5
176
     1
 90
        0
176
     1
 90
        0
176
     1
290
     0
176
     1
 90
        1
176
     1
 40
0.0
176
     1
 90
        0
176
     1
290
     0
176
     1
290
     1
176
     1
290
     1
176
     1
290
     0
176
     1
290
     0
176
     1
290
     0
176
     1
290
     0
176
     1
290
     0
176
     1
290
     0
176
     1
 90
       50
176
     1
 40
0.0
176
     1
 40
1.0
176
     1
 90
        0
176
     1
 62
    18
420
        0
176
     1
 90
       50
176
     1
 90
        3
176
     1
 62
     5
420
      255
176
     1
290
     0
176
     1
 90
       50
176
     1
 90
       50
176
     1
 90
       50
176
     1
290
     0
176
     1
 90
       50
176
     1
 62
   256
176
     0
 40
1.0
176
     0
 90
        2
176
     1
  1
strokes_ogs.tif
176
     1
290
     0
176
     1
 40
1.0
176
     1
 40
1.0
176
     1
1001
ACAD
1000
AcDbSavedByObjectVersion
1070
     0
  0
VISUALSTYLE
  5
32
102
{ACAD_REACTORS
330
29
102
}
330
29
100
AcDbVisualStyle
  2
Conceptual
 70
     9
177
     3
291
     0
 70
    58
 90
        3
176
     1
 90
        2
176
     1
 90
        0
176
     1
 90
        0
176
     1
 40
0.6
176
     1
 40
30.0
176
     1
 62
     7
420
 16777215
176
     1
 90
        2
176
     1
 90
        2
176
     1
 62
     7
176
     1
 62
   257
176
     1
 90
        1
176
     1
 90
        1
176
     1
 40
179.0
176
     1
 90
        8
176
     1
 62
     7
176
     1
 40
1.0
176
     1
 90
        1
176
     1
 90
        6
176
     1
 90
        2
176
     1
 62
     7
176
     1
 90
        3
176
     1
 90
        0
176
     1
 90
        0
176
     1
290
     0
176
     1
 90
        1
176
     1
 40
0.0
176
     1
 90
        0
176
     1
290
     0
176
     1
290
     1
176
     1
290
     1
176
     1
290
     0
176
     1
290
     0
176
     1
290
     0
176
     1
290
     0
176
     1
290
     0
176
     1
290
     0
176
     1
 90
       50
176
     1
 40
0.0
176
     1
 40
1.0
176
     1
 90
        0
176
     1
 62
    18
420
        0
176
     1
 90
       50
176
     1
 90
        3
176
     1
 62
     5
420
      255
176
     1
290
     0
176
     1
 90
       50
176
     1
 90
       50
176
     1
 90
       50
176
     1
290
     0
176
     1
 90
       50
176
     1
 62
   256
176
     0
 40
1.0
176
     0
 90
        2
176
     1
  1
strokes_ogs.tif
176
     1
290
     0
176
     1
 40
1.0
176
     1
 40
1.0
176
     1
1001
ACAD
1000
AcDbSavedByObjectVersion
1070
     0
  0
VISUALSTYLE
  5
34
102
{ACAD_REACTORS
330
29
102
}
330
29
100
AcDbVisualStyle
  2
Dim
 70
    11
177
     3
291
     1
 70
    58
 90
        2
176
     1
 90
        2
176
     1
 90
        0
176
     1
 90
        0
176
     1
 40
0.6
176
     1
 40
30.0
176
     1
 62
     7
420
 16777215
176
     1
 90
        1
176
     1
 90
        4
176
     1
 62
     7
176
     1
 62
   257
176
     1
 90
        1
176
     1
 90
        1
176
     1
 40
1.0
176
     1
 90
        8
176
     1
 62
     7
176
     1
 40
1.0
176
     1
 90
        1
176
     1
 90
        6
176
     1
 90
        2
176
     1
 62
     7
176
     1
 90
        5
176
     1
 90
        0
176
     1
 90
        0
176
     1
290
     0
176
     1
 90
        1
176
     1
 40
-50.0
176
     1
 90
        0
176
     1
290
     0
176
     1
290
     1
176
     1
290
     1
176
     1
290
     0
176
     1
290
     0
176
     1
290
     0
176
     1
290
     0
176
     1
290
     0
176
     1
290
     0
176
     1
 90
       50
176
     1
 40
0.0
176
     1
 40
1.0
176
     1
 90
        0
176
     1
 62
    18
420
        0
176
     1
 90
       50
176
     1
 90
        3
176
     1
 62
     5
420
      255
176
     1
290
     0
176
     1
 90
       50
176
     1
 90
       50
176
     1
 90
       50
176
     1
290
     0
176
     1
 90
       50
176
     1
 62
   256
176
     0
 40
1.0
176
     0
 90
        2
176
     1
  1
strokes_ogs.tif
176
     1
290
     0
176
     1
 40
1.0
176
     1
 40
1.0
176
     1
1001
ACAD
1000
AcDbSavedByObjectVersion
1070
     0
  0
VISUALSTYLE
  5
41
102
{ACAD_REACTORS
330
29
102
}
330
29
100
AcDbVisualStyle
  2
EdgeColorOff
 70
    22
177
     3
291
     1
 70
    58
 90
        2
176
     0
 90
        2
176
     0
 90
        0
176
     0
 90
        0
176
     0
 40
0.6
176
     0
 40
30.0
176
     0
 62
     7
420
 16777215
176
     0
 90
        1
176
     0
 90
        4
176
     0
 62
     7
176
     0
 62
   257
176
     0
 90
        1
176
     0
 90
        1
176
     0
 40
1.0
176
     0
 90
        8
176
     2
 62
     7
176
     0
 40
1.0
176
     0
 90
        1
176
     0
 90
        6
176
     0
 90
        2
176
     0
 62
     7
176
     0
 90
        5
176
     0
 90
        0
176
     0
 90
        0
176
     0
290
     0
176
     0
 90
        1
176
     0
 40
0.0
176
     0
 90
        0
176
     0
290
     0
176
     0
290
     1
176
     0
290
     1
176
     0
290
     0
176
     0
290
     0
176
     0
290
     0
176
     0
290
     0
176
     0
290
     0
176
     0
290
     0
176
     0
 90
       50
176
     0
 40
0.0
176
     0
 40
1.0
176
     0
 90
        0
176
     0
 62
    18
420
        0
176
     0
 90
       50
176
     0
 90
        3
176
     0
 62
     5
420
      255
176
     0
290
     0
176
     0
 90
       50
176
     0
 90
       50
176
     0
 90
       50
176
     0
290
     0
176
     0
 90
       50
176
     0
 62
   256
176
     0
 40
1.0
176
     0
 90
        2
176
     0
  1
strokes_ogs.tif
176
     0
290
     0
176
     0
 40
1.0
176
     0
 40
1.0
176
     0
1001
ACAD
1000
AcDbSavedByObjectVersion
1070
     0
  0
VISUALSTYLE
  5
38
102
{ACAD_REACTORS
330
29
102
}
330
29
100
AcDbVisualStyle
  2
Facepattern
 70
    15
177
     3
291
     1
 70
    58
 90
        2
176
     1
 90
        2
176
     1
 90
        0
176
     1
 90
        0
176
     1
 40
0.6
176
     1
 40
30.0
176
     1
 62
     7
420
 16777215
176
     1
 90
        1
176
     1
 90
        4
176
     1
 62
     7
176
     1
 62
   257
176
     1
 90
        1
176
     1
 90
        1
176
     1
 40
1.0
176
     1
 90
        8
176
     1
 62
     7
176
     1
 40
1.0
176
     1
 90
        1
176
     1
 90
        6
176
     1
 90
        2
176
     1
 62
     7
176
     1
 90
        5
176
     1
 90
        0
176
     1
 90
        0
176
     1
290
     0
176
     1
 90
        1
176
     1
 40
0.0
176
     1
 90
        0
176
     1
290
     0
176
     1
290
     1
176
     1
290
     1
176
     1
290
     0
176
     1
290
     0
176
     1
290
     0
176
     1
290
     0
176
     1
290
     0
176
     1
290
     0
176
     1
 90
       50
176
     1
 40
0.0
176
     1
 40
1.0
176
     1
 90
        0
176
     1
 62
    18
420
        0
176
     1
 90
       50
176
     1
 90
        3
176
     1
 62
     5
420
      255
176
     1
290
     0
176
     1
 90
       50
176
     1
 90
       50
176
     1
 90
       50
176
     1
290
     0
176
     1
 90
       50
176
     1
 62
   256
176
     0
 40
1.0
176
     0
 90
        2
176
     1
  1
strokes_ogs.tif
176
     1
290
     0
176
     1
 40
1.0
176
     1
 40
1.0
176
     1
1001
ACAD
1000
AcDbSavedByObjectVersion
1070
     0
  0
VISUALSTYLE
  5
2A
102
{ACAD_REACTORS
330
29
102
}
330
29
100
AcDbVisualStyle
  2
Flat
 70
     0
177
     3
291
     1
 70
    58
 90
        2
176
     1
 90
        1
176
     1
 90
        1
176
     1
 90
        2
176
     1
 40
0.6
176
     1
 40
30.0
176
     1
 62
     7
420
 16777215
176
     1
 90
        0
176
     1
 90
        0
176
     1
 62
     7
176
     1
 62
   257
176
     1
 90
        1
176
     1
 90
        1
176
     1
 40
1.0
176
     1
 90
        8
176
     1
 62
     7
176
     1
 40
1.0
176
     1
 90
        1
176
     1
 90
        6
176
     1
 90
        2
176
     1
 62
     7
176
     1
 90
        5
176
     1
 90
        0
176
     1
 90
        0
176
     1
290
     0
176
     1
 90
       13
176
     1
 40
0.0
176
     1
 90
        0
176
     1
290
     0
176
     1
290
     1
176
     1
290
     1
176
     1
290
     0
176
     1
290
     0
176
     1
290
     0
176
     1
290
     0
176
     1
290
     0
176
     1
290
     0
176
     1
 90
       50
176
     1
 40
0.0
176
     1
 40
1.0
176
     1
 90
        0
176
     1
 62
    18
420
        0
176
     1
 90
       50
176
     1
 90
        3
176
     1
 62
     5
420
      255
176
     1
290
     0
176
     1
 90
       50
176
     1
 90
       50
176
     1
 90
       50
176
     1
290
     0
176
     1
 90
       50
176
     1
 62
   256
176
     0
 40
1.0
176
     0
 90
        2
176
     1
  1
strokes_ogs.tif
176
     1
290
     0
176
     1
 40
1.0
176
     1
 40
1.0
176
     1
1001
ACAD
1000
AcDbSavedByObjectVersion
1070
     0
  0
VISUALSTYLE
  5
2B
102
{ACAD_REACTORS
330
29
102
}
330
29
100
AcDbVisualStyle
  2
FlatWithEdges
 70
     1
177
     3
291
     1
 70
    58
 90
        2
176
     1
 90
        1
176
     1
 90
        1
176
     1
 90
        2
176
     1
 40
0.6
176
     1
 40
30.0
176
     1
 62
     7
420
 16777215
176
     1
 90
        1
176
     1
 90
        0
176
     1
 62
     7
176
     1
 62
   257
176
     1
 90
        1
176
     1
 90
        1
176
     1
 40
1.0
176
     1
 90
        0
176
     1
 62
   257
176
     1
 40
1.0
176
     1
 90
        1
176
     1
 90
        6
176
     1
 90
        2
176
     1
 62
     7
176
     1
 90
        5
176
     1
 90
        0
176
     1
 90
        0
176
     1
290
     0
176
     1
 90
       13
176
     1
 40
0.0
176
     1
 90
        0
176
     1
290
     0
176
     1
290
     1
176
     1
290
     1
176
     1
290
     0
176
     1
290
     0
176
     1
290
     0
176
     1
290
     0
176
     1
290
     0
176
     1
290
     0
176
     1
 90
       50
176
     1
 40
0.0
176
     1
 40
1.0
176
     1
 90
        0
176
     1
 62
    18
420
        0
176
     1
 90
       50
176
     1
 90
        3
176
     1
 62
     5
420
      255
176
     1
290
     0
176
     1
 90
       50
176
     1
 90
       50
176
     1
 90
       50
176
     1
290
     0
176
     1
 90
       50
176
     1
 62
   256
176
     0
 40
1.0
176
     0
 90
        2
176
     1
  1
strokes_ogs.tif
176
     1
290
     0
176
     1
 40
1.0
176
     1
 40
1.0
176
     1
1001
ACAD
1000
AcDbSavedByObjectVersion
1070
     0
  0
VISUALSTYLE
  5
2C
102
{ACAD_REACTORS
330
29
102
}
330
29
100
AcDbVisualStyle
  2
Gouraud
 70
     2
177
     3
291
     1
 70
    58
 90
        2
176
     1
 90
        2
176
     1
 90
        1
176
     1
 90
        2
176
     1
 40
0.6
176
     1
 40
30.0
176
     1
 62
     7
420
 16777215
176
     1
 90
        0
176
     1
 90
        0
176
     1
 62
     7
176
     1
 62
   257
176
     1
 90
        1
176
     1
 90
        1
176
     1
 40
1.0
176
     1
 90
        0
176
     1
 62
     7
176
     1
 40
1.0
176
     1
 90
        1
176
     1
 90
        6
176
     1
 90
        2
176
     1
 62
     7
176
     1
 90
        5
176
     1
 90
        0
176
     1
 90
        0
176
     1
290
     0
176
     1
 90
       13
176
     1
 40
0.0
176
     1
 90
        0
176
     1
290
     0
176
     1
290
     1
176
     1
290
     1
176
     1
290
     0
176
     1
290
     0
176
     1
290
     0
176
     1
290
     0
176
     1
290
     0
176
     1
290
     0
176
     1
 90
       50
176
     1
 40
0.0
176
     1
 40
1.0
176
     1
 90
        0
176
     1
 62
    18
420
        0
176
     1
 90
       50
176
     1
 90
        3
176
     1
 62
     5
420
      255
176
     1
290
     0
176
     1
 90
       50
176
     1
 90
       50
176
     1
 90
       50
176
     1
290
     0
176
     1
 90
       50
176
     1
 62
   256
176
     0
 40
1.0
176
     0
 90
        2
176
     1
  1
strokes_ogs.tif
176
     1
290
     0
176
     1
 40
1.0
176
     1
 40
1.0
176
     1
1001
ACAD
1000
AcDbSavedByObjectVersion
1070
     0
  0
VISUALSTYLE
  5
2D
102
{ACAD_REACTORS
330
29
102
}
330
29
100
AcDbVisualStyle
  2
GouraudWithEdges
 70
     3
177
     3
291
     1
 70
    58
 90
        2
176
     1
 90
        2
176
     1
 90
        1
176
     1
 90
        2
176
     1
 40
0.6
176
     1
 40
30.0
176
     1
 62
     7
420
 16777215
176
     1
 90
        1
176
     1
 90
        0
176
     1
 62
     7
176
     1
 62
   257
176
     1
 90
        1
176
     1
 90
        1
176
     1
 40
1.0
176
     1
 90
        0
176
     1
 62
   257
176
     1
 40
1.0
176
     1
 90
        1
176
     1
 90
        6
176
     1
 90
        2
176
     1
 62
     7
176
     1
 90
        5
176
     1
 90
        0
176
     1
 90
        0
176
     1
290
     0
176
     1
 90
       13
176
     1
 40
0.0
176
     1
 90
        0
176
     1
290
     0
176
     1
290
     1
176
     1
290
     1
176
     1
290
     0
176
     1
290
     0
176
     1
290
     0
176
     1
290
     0
176
     1
290
     0
176
     1
290
     0
176
     1
 90
       50
176
     1
 40
0.0
176
     1
 40
1.0
176
     1
 90
        0
176
     1
 62
    18
420
        0
176
     1
 90
       50
176
     1
 90
        3
176
     1
 62
     5
420
      255
176
     1
290
     0
176
     1
 90
       50
176
     1
 90
       50
176
     1
 90
       50
176
     1
290
     0
176
     1
 90
       50
176
     1
 62
   256
176
     0
 40
1.0
176
     0
 90
        2
176
     1
  1
strokes_ogs.tif
176
     1
290
     0
176
     1
 40
1.0
176
     1
 40
1.0
176
     1
1001
ACAD
1000
AcDbSavedByObjectVersion
1070
     0
  0
VISUALSTYLE
  5
31
102
{ACAD_REACTORS
330
29
102
}
330
29
100
AcDbVisualStyle
  2
Hidden
 70
     6
177
     3
291
     0
 70
    58
 90
        1
176
     1
 90
        2
176
     1
 90
        2
176
     1
 90
        0
176
     1
 40
0.6
176
     1
 40
30.0
176
     1
 62
     7
420
 16777215
176
     1
 90
        2
176
     1
 90
        2
176
     1
 62
     7
176
     1
 62
   257
176
     1
 90
        2
176
     1
 90
        1
176
     1
 40
40.0
176
     1
 90
        0
176
     1
 62
   257
176
     1
 40
1.0
176
     1
 90
        1
176
     1
 90
        6
176
     1
 90
        2
176
     1
 62
     7
176
     1
 90
        3
176
     1
 90
        0
176
     1
 90
        0
176
     1
290
     0
176
     1
 90
        1
176
     1
 40
0.0
176
     1
 90
        0
176
     1
290
     0
176
     1
290
     1
176
     1
290
     1
176
     1
290
     0
176
     1
290
     0
176
     1
290
     0
176
     1
290
     0
176
     1
290
     0
176
     1
290
     0
176
     1
 90
       50
176
     1
 40
0.0
176
     1
 40
1.0
176
     1
 90
        0
176
     1
 62
    18
420
        0
176
     1
 90
       50
176
     1
 90
        3
176
     1
 62
     5
420
      255
176
     1
290
     0
176
     1
 90
       50
176
     1
 90
       50
176
     1
 90
       50
176
     1
290
     0
176
     1
 90
       50
176
     1
 62
   256
176
     0
 40
1.0
176
     0
 90
        2
176
     1
  1
strokes_ogs.tif
176
     1
290
     0
176
     1
 40
1.0
176
     1
 40
1.0
176
     1
1001
ACAD
1000
AcDbSavedByObjectVersion
1070
     0
  0
VISUALSTYLE
  5
3F
102
{ACAD_REACTORS
330
29
102
}
330
29
100
AcDbVisualStyle
  2
JitterOff
 70
    20
177
     3
291
     1
 70
    58
 90
        2
176
     0
 90
        2
176
     0
 90
        0
176
     0
 90
        0
176
     0
 40
0.6
176
     0
 40
30.0
176
     0
 62
     7
420
 16777215
176
     0
 90
        1
176
     0
 90
        4
176
     0
 62
     7
176
     0
 62
   257
176
     0
 90
        1
176
     0
 90
        1
176
     0
 40
1.0
176
     0
 90
       10
176
     2
 62
     7
176
     0
 40
1.0
176
     0
 90
        1
176
     0
 90
        6
176
     0
 90
        2
176
     0
 62
     7
176
     0
 90
        5
176
     0
 90
        0
176
     0
 90
        0
176
     0
290
     0
176
     0
 90
        1
176
     0
 40
0.0
176
     0
 90
        0
176
     0
290
     0
176
     0
290
     1
176
     0
290
     1
176
     0
290
     0
176
     0
290
     0
176
     0
290
     0
176
     0
290
     0
176
     0
290
     0
176
     0
290
     0
176
     0
 90
       50
176
     0
 40
0.0
176
     0
 40
1.0
176
     0
 90
        0
176
     0
 62
    18
420
        0
176
     0
 90
       50
176
     0
 90
        3
176
     0
 62
     5
420
      255
176
     0
290
     0
176
     0
 90
       50
176
     0
 90
       50
176
     0
 90
       50
176
     0
290
     0
176
     0
 90
       50
176
     0
 62
   256
176
     0
 40
1.0
176
     0
 90
        2
176
     0
  1
strokes_ogs.tif
176
     0
290
     0
176
     0
 40
1.0
176
     0
 40
1.0
176
     0
1001
ACAD
1000
AcDbSavedByObjectVersion
1070
     0
  0
VISUALSTYLE
  5
37
102
{ACAD_REACTORS
330
29
102
}
330
29
100
AcDbVisualStyle
  2
Linepattern
 70
    14
177
     3
291
     1
 70
    58
 90
        2
176
     1
 90
        2
176
     1
 90
        0
176
     1
 90
        0
176
     1
 40
0.6
176
     1
 40
30.0
176
     1
 62
     7
420
 16777215
176
     1
 90
        1
176
     1
 90
        4
176
     1
 62
     7
176
     1
 62
   257
176
     1
 90
        7
176
     1
 90
        7
176
     1
 40
1.0
176
     1
 90
        8
176
     1
 62
     7
176
     1
 40
1.0
176
     1
 90
        1
176
     1
 90
        6
176
     1
 90
        2
176
     1
 62
     7
176
     1
 90
        5
176
     1
 90
        0
176
     1
 90
        0
176
     1
290
     0
176
     1
 90
        1
176
     1
 40
0.0
176
     1
 90
        0
176
     1
290
     0
176
     1
290
     1
176
     1
290
     1
176
     1
290
     0
176
     1
290
     0
176
     1
290
     0
176
     1
290
     0
176
     1
290
     0
176
     1
290
     0
176
     1
 90
       50
176
     1
 40
0.0
176
     1
 40
1.0
176
     1
 90
        0
176
     1
 62
    18
420
        0
176
     1
 90
       50
176
     1
 90
        3
176
     1
 62
     5
420
      255
176
     1
290
     0
176
     1
 90
       50
176
     1
 90
       50
176
     1
 90
       50
176
     1
290
     0
176
     1
 90
       50
176
     1
 62
   256
176
     0
 40
1.0
176
     0
 90
        2
176
     1
  1
strokes_ogs.tif
176
     1
290
     0
176
     1
 40
1.0
176
     1
 40
1.0
176
     1
1001
ACAD
1000
AcDbSavedByObjectVersion
1070
     0
  0
VISUALSTYLE
  5
40
102
{ACAD_REACTORS
330
29
102
}
330
29
100
AcDbVisualStyle
  2
OverhangOff
 70
    21
177
     3
291
     1
 70
    58
 90
        2
176
     0
 90
        2
176
     0
 90
        0
176
     0
 90
        0
176
     0
 40
0.6
176
     0
 40
30.0
176
     0
 62
     7
420
 16777215
176
     0
 90
        1
176
     0
 90
        4
176
     0
 62
     7
176
     0
 62
   257
176
     0
 90
        1
176
     0
 90
        1
176
     0
 40
1.0
176
     0
 90
        9
176
     2
 62
     7
176
     0
 40
1.0
176
     0
 90
        1
176
     0
 90
        6
176
     0
 90
        2
176
     0
 62
     7
176
     0
 90
        5
176
     0
 90
        0
176
     0
 90
        0
176
     0
290
     0
176
     0
 90
        1
176
     0
 40
0.0
176
     0
 90
        0
176
     0
290
     0
176
     0
290
     1
176
     0
290
     1
176
     0
290
     0
176
     0
290
     0
176
     0
290
     0
176
     0
290
     0
176
     0
290
     0
176
     0
290
     0
176
     0
 90
       50
176
     0
 40
0.0
176
     0
 40
1.0
176
     0
 90
        0
176
     0
 62
    18
420
        0
176
     0
 90
       50
176
     0
 90
        3
176
     0
 62
     5
420
      255
176
     0
290
     0
176
     0
 90
       50
176
     0
 90
       50
176
     0
 90
       50
176
     0
290
     0
176
     0
 90
       50
176
     0
 62
   256
176
     0
 40
1.0
176
     0
 90
        2
176
     0
  1
strokes_ogs.tif
176
     0
290
     0
176
     0
 40
1.0
176
     0
 40
1.0
176
     0
1001
ACAD
1000
AcDbSavedByObjectVersion
1070
     0
  0
VISUALSTYLE
  5
33
102
{ACAD_REACTORS
330
29
102
}
330
29
100
AcDbVisualStyle
  2
Realistic
 70
     8
177
     3
291
     0
 70
    58
 90
        2
176
     1
 90
        3
176
     1
 90
        0
176
     1
 90
        2
176
     1
 40
0.6
176
     1
 40
30.0
176
     1
 62
     7
420
 16777215
176
     1
 90
        0
176
     1
 90
        0
176
     1
 62
     7
176
     1
 62
   257
176
     1
 90
        1
176
     1
 90
        1
176
     1
 40
1.0
176
     1
 90
        8
176
     1
 62
   257
176
     1
 40
1.0
176
     1
 90
        1
176
     1
 90
        6
176
     1
 90
        2
176
     1
 62
     7
176
     1
 90
        3
176
     1
 90
        0
176
     1
 90
        0
176
     1
290
     0
176
     1
 90
       13
176
     1
 40
0.0
176
     1
 90
        0
176
     1
290
     0
176
     1
290
     1
176
     1
290
     1
176
     1
290
     0
176
     1
290
     0
176
     1
290
     0
176
     1
290
     0
176
     1
290
     0
176
     1
290
     0
176
     1
 90
       50
176
     1
 40
0.0
176
     1
 40
1.0
176
     1
 90
        0
176
     1
 62
    18
420
        0
176
     1
 90
       50
176
     1
 90
        3
176
     1
 62
     5
420
      255
176
     1
290
     0
176
     1
 90
       50
176
     1
 90
       50
176
     1
 90
       50
176
     1
290
     0
176
     1
 90
       50
176
     1
 62
   256
176
     0
 40
1.0
176
     0
 90
        2
176
     1
  1
strokes_ogs.tif
176
     1
290
     0
176
     1
 40
1.0
176
     1
 40
1.0
176
     1
1001
ACAD
1000
AcDbSavedByObjectVersion
1070
     0
  0
VISUALSTYLE
  5
3E
102
{ACAD_REACTORS
330
29
102
}
330
29
100
AcDbVisualStyle
  2
Shaded
 70
    27
177
     3
291
     0
 70
    58
 90
        2
176
     1
 90
        2
176
     1
 90
        1
176
     1
 90
        2
176
     1
 40
0.6
176
     1
 40
30.0
176
     1
 62
     7
420
 16777215
176
     1
 90
        0
176
     1
 90
        4
176
     1
 62
     7
176
     1
 62
   257
176
     1
 90
        1
176
     1
 90
        1
176
     1
 40
1.0
176
     1
 90
        8
176
     1
 62
   257
176
     1
 40
1.0
176
     1
 90
        1
176
     1
 90
        6
176
     1
 90
        2
176
     1
 62
     8
420
  7895160
176
     1
 90
        3
176
     1
 90
        0
176
     1
 90
        0
176
     1
290
     0
176
     1
 90
        5
176
     1
 40
0.0
176
     1
 90
        0
176
     1
290
     0
176
     1
290
     1
176
     1
290
     1
176
     1
290
     0
176
     1
290
     0
176
     1
290
     0
176
     1
290
     0
176
     1
290
     0
176
     1
290
     0
176
     1
 90
       50
176
     1
 40
0.0
176
     1
 40
1.0
176
     1
 90
        0
176
     1
 62
    18
420
        0
176
     1
 90
       50
176
     1
 90
        3
176
     1
 62
     5
420
      255
176
     1
290
     0
176
     1
 90
       50
176
     1
 90
       50
176
     1
 90
       50
176
     1
290
     0
176
     1
 90
       50
176
     1
 62
   256
176
     0
 40
1.0
176
     0
 90
        2
176
     1
  1
strokes_ogs.tif
176
     1
290
     0
176
     1
 40
1.0
176
     1
 40
1.0
176
     1
1001
ACAD
1000
AcDbSavedByObjectVersion
1070
     0
  0
VISUALSTYLE
  5
3D
102
{ACAD_REACTORS
330
29
102
}
330
29
100
AcDbVisualStyle
  2
Shaded with edges
 70
    26
177
     3
291
     0
 70
    58
 90
        2
176
     1
 90
        2
176
     1
 90
        1
176
     1
 90
        2
176
     1
 40
0.6
176
     1
 40
30.0
176
     1
 62
     7
420
 16777215
176
     1
 90
        1
176
     1
 90
        2
176
     1
 62
     7
176
     1
 62
   257
176
     1
 90
        2
176
     1
 90
        1
176
     1
 40
1.0
176
     1
 90
        8
176
     1
 62
   257
176
     1
 40
1.0
176
     1
 90
        1
176
     1
 90
        6
176
     1
 90
        2
176
     1
 62
     7
176
     1
 90
        3
176
     1
 90
        0
176
     1
 90
        0
176
     1
290
     0
176
     1
 90
        5
176
     1
 40
0.0
176
     1
 90
        0
176
     1
290
     0
176
     1
290
     1
176
     1
290
     1
176
     1
290
     0
176
     1
290
     0
176
     1
290
     0
176
     1
290
     0
176
     1
290
     0
176
     1
290
     0
176
     1
 90
       50
176
     1
 40
0.0
176
     1
 40
1.0
176
     1
 90
        0
176
     1
 62
    18
420
        0
176
     1
 90
       50
176
     1
 90
        3
176
     1
 62
     5
420
      255
176
     1
290
     0
176
     1
 90
       50
176
     1
 90
       50
176
     1
 90
       50
176
     1
290
     0
176
     1
 90
       50
176
     1
 62
   256
176
     0
 40
1.0
176
     0
 90
        2
176
     1
  1
strokes_ogs.tif
176
     1
290
     0
176
     1
 40
1.0
176
     1
 40
1.0
176
     1
1001
ACAD
1000
AcDbSavedByObjectVersion
1070
     0
  0
VISUALSTYLE
  5
3A
102
{ACAD_REACTORS
330
29
102
}
330
29
100
AcDbVisualStyle
  2
Shades of Gray
 70
    23
177
     3
291
     0
 70
    58
 90
        2
176
     1
 90
        2
176
     1
 90
        3
176
     1
 90
        0
176
     1
 40
0.6
176
     1
 40
30.0
176
     1
 62
     7
420
 16777215
176
     1
 90
        2
176
     1
 90
        2
176
     1
 62
     7
176
     1
 62
     7
176
     1
 90
        1
176
     1
 90
        1
176
     1
 40
40.0
176
     1
 90
        8
176
     1
 62
     7
176
     1
 40
1.0
176
     1
 90
        1
176
     1
 90
        6
176
     1
 90
        2
176
     1
 62
     7
176
     1
 90
        3
176
     1
 90
        0
176
     1
 90
        0
176
     1
290
     0
176
     1
 90
        1
176
     1
 40
0.0
176
     1
 90
        0
176
     1
290
     0
176
     1
290
     1
176
     1
290
     1
176
     1
290
     0
176
     1
290
     0
176
     1
290
     0
176
     1
290
     0
176
     1
290
     0
176
     1
290
     0
176
     1
 90
       50
176
     1
 40
0.0
176
     1
 40
1.0
176
     1
 90
        0
176
     1
 62
    18
420
        0
176
     1
 90
       50
176
     1
 90
        3
176
     1
 62
     5
420
      255
176
     1
290
     0
176
     1
 90
       50
176
     1
 90
       50
176
     1
 90
       50
176
     1
290
     0
176
     1
 90
       50
176
     1
 62
   256
176
     0
 40
1.0
176
     0
 90
        2
176
     1
  1
strokes_ogs.tif
176
     1
290
     0
176
     1
 40
1.0
176
     1
 40
1.0
176
     1
1001
ACAD
1000
AcDbSavedByObjectVersion
1070
     0
  0
VISUALSTYLE
  5
3B
102
{ACAD_REACTORS
330
29
102
}
330
29
100
AcDbVisualStyle
  2
Sketchy
 70
    24
177
     3
291
     0
 70
    58
 90
        1
176
     1
 90
        2
176
     1
 90
        2
176
     1
 90
        0
176
     1
 40
0.6
176
     1
 40
30.0
176
     1
 62
     7
420
 16777215
176
     1
 90
        2
176
     1
 90
        2
176
     1
 62
     7
176
     1
 62
     7
176
     1
 90
        1
176
     1
 90
        1
176
     1
 40
40.0
176
     1
 90
       11
176
     1
 62
     7
176
     1
 40
1.0
176
     1
 90
        1
176
     1
 90
        6
176
     1
 90
        2
176
     1
 62
     7
176
     1
 90
        6
176
     1
 90
        0
176
     1
 90
        0
176
     1
290
     0
176
     1
 90
        1
176
     1
 40
0.0
176
     1
 90
        0
176
     1
290
     0
176
     1
290
     1
176
     1
290
     1
176
     1
290
     0
176
     1
290
     0
176
     1
290
     0
176
     1
290
     0
176
     1
290
     0
176
     1
290
     0
176
     1
 90
       50
176
     1
 40
0.0
176
     1
 40
1.0
176
     1
 90
        0
176
     1
 62
    18
420
        0
176
     1
 90
       50
176
     1
 90
        3
176
     1
 62
     5
420
      255
176
     1
290
     0
176
     1
 90
       50
176
     1
 90
       50
176
     1
 90
       50
176
     1
290
     0
176
     1
 90
       50
176
     1
 62
   256
176
     0
 40
1.0
176
     0
 90
        2
176
     1
  1
strokes_ogs.tif
176
     1
290
     0
176
     1
 40
1.0
176
     1
 40
1.0
176
     1
1001
ACAD
1000
AcDbSavedByObjectVersion
1070
     0
  0
VISUALSTYLE
  5
36
102
{ACAD_REACTORS
330
29
102
}
330
29
100
AcDbVisualStyle
  2
Thicken
 70
    13
177
     3
291
     1
 70
    58
 90
        2
176
     1
 90
        2
176
     1
 90
        0
176
     1
 90
        0
176
     1
 40
0.6
176
     1
 40
30.0
176
     1
 62
     7
420
 16777215
176
     1
 90
        1
176
     1
 90
        4
176
     1
 62
     7
176
     1
 62
   257
176
     1
 90
        1
176
     1
 90
        1
176
     1
 40
1.0
176
     1
 90
       12
176
     1
 62
     7
176
     1
 40
1.0
176
     1
 90
        1
176
     1
 90
        6
176
     1
 90
        2
176
     1
 62
     7
176
     1
 90
        5
176
     1
 90
        0
176
     1
 90
        0
176
     1
290
     0
176
     1
 90
        1
176
     1
 40
0.0
176
     1
 90
        0
176
     1
290
     0
176
     1
290
     1
176
     1
290
     1
176
     1
290
     0
176
     1
290
     0
176
     1
290
     0
176
     1
290
     0
176
     1
290
     0
176
     1
290
     0
176
     1
 90
       50
176
     1
 40
0.0
176
     1
 40
1.0
176
     1
 90
        0
176
     1
 62
    18
420
        0
176
     1
 90
       50
176
     1
 90
        3
176
     1
 62
     5
420
      255
176
     1
290
     0
176
     1
 90
       50
176
     1
 90
       50
176
     1
 90
       50
176
     1
290
     0
176
     1
 90
       50
176
     1
 62
   256
176
     0
 40
1.0
176
     0
 90
        2
176
     1
  1
strokes_ogs.tif
176
     1
290
     0
176
     1
 40
1.0
176
     1
 40
1.0
176
     1
1001
ACAD
1000
AcDbSavedByObjectVersion
1070
     0
  0
VISUALSTYLE
  5
30
102
{ACAD_REACTORS
330
29
102
}
330
29
100
AcDbVisualStyle
  2
Wireframe
 70
     5
177
     3
291
     0
 70
    58
 90
        0
176
     1
 90
        2
176
     1
 90
        0
176
     1
 90
        0
176
     1
 40
0.6
176
     1
 40
30.0
176
     1
 62
     7
420
 16777215
176
     1
 90
        1
176
     1
 90
        4
176
     1
 62
     7
176
     1
 62
   257
176
     1
 90
        1
176
     1
 90
        1
176
     1
 40
1.0
176
     1
 90
        0
176
     1
 62
   257
176
     1
 40
1.0
176
     1
 90
        1
176
     1
 90
        6
176
     1
 90
        2
176
     1
 62
     7
176
     1
 90
        3
176
     1
 90
        0
176
     1
 90
        0
176
     1
290
     0
176
     1
 90
        1
176
     1
 40
0.0
176
     1
 90
        0
176
     1
290
     0
176
     1
290
     1
176
     1
290
     1
176
     1
290
     0
176
     1
290
     0
176
     1
290
     0
176
     1
290
     0
176
     1
290
     0
176
     1
290
     0
176
     1
 90
       50
176
     1
 40
0.0
176
     1
 40
1.0
176
     1
 90
        0
176
     1
 62
    18
420
        0
176
     1
 90
       50
176
     1
 90
        3
176
     1
 62
     5
420
      255
176
     1
290
     0
176
     1
 90
       50
176
     1
 90
       50
176
     1
 90
       50
176
     1
290
     0
176
     1
 90
       50
176
     1
 62
   256
176
     0
 40
1.0
176
     0
 90
        2
176
     1
  1
strokes_ogs.tif
176
     1
290
     0
176
     1
 40
1.0
176
     1
 40
1.0
176
     1
1001
ACAD
1000
AcDbSavedByObjectVersion
1070
     0
  0
VISUALSTYLE
  5
3C
102
{ACAD_REACTORS
330
29
102
}
330
29
100
AcDbVisualStyle
  2
X-Ray
 70
    25
177
     3
291
     0
 70
    58
 90
        2
176
     1
 90
        2
176
     1
 90
        1
176
     1
 90
        1
176
     1
 40
0.5
176
     1
 40
30.0
176
     1
 62
     7
420
 16777215
176
     1
 90
        1
176
     1
 90
        0
176
     1
 62
     7
176
     1
 62
   257
176
     1
 90
        1
176
     1
 90
        1
176
     1
 40
1.0
176
     1
 90
        8
176
     1
 62
     7
176
     1
 40
1.0
176
     1
 90
        1
176
     1
 90
        6
176
     1
 90
        2
176
     1
 62
     7
176
     1
 90
        3
176
     1
 90
        0
176
     1
 90
        0
176
     1
290
     0
176
     1
 90
       13
176
     1
 40
0.0
176
     1
 90
        0
176
     1
290
     0
176
     1
290
     1
176
     1
290
     1
176
     1
290
     0
176
     1
290
     0
176
     1
290
     0
176
     1
290
     0
176
     1
290
     0
176
     1
290
     0
176
     1
 90
       50
176
     1
 40
0.0
176
     1
 40
1.0
176
     1
 90
        0
176
     1
 62
    18
420
        0
176
     1
 90
       50
176
     1
 90
        3
176
     1
 62
     5
420
      255
176
     1
290
     0
176
     1
 90
       50
176
     1
 90
       50
176
     1
 90
       50
176
     1
290
     0
176
     1
 90
       50
176
     1
 62
   256
176
     0
 40
1.0
176
     0
 90
        2
176
     1
  1
strokes_ogs.tif
176
     1
290
     0
176
     1
 40
1.0
176
     1
 40
1.0
176
     1
1001
ACAD
1000
AcDbSavedByObjectVersion
1070
     0
  0
DICTIONARYVAR
  5
205
102
{ACAD_REACTORS
330
200
102
}
330
200
100
DictionaryVariables
280
     0
  1
1:1
  0
DICTIONARYVAR
  5
202
102
{ACAD_REACTORS
330
200
102
}
330
200
100
DictionaryVariables
280
     0
  1
STANDARD
  0
DICTIONARYVAR
  5
201
102
{ACAD_REACTORS
330
200
102
}
330
200
100
DictionaryVariables
280
     0
  1
STANDARD
  0
DICTIONARYVAR
  5
203
102
{ACAD_REACTORS
330
200
102
}
330
200
100
DictionaryVariables
280
     0
  1
Imperial24
  0
DICTIONARYVAR
  5
204
102
{ACAD_REACTORS
330
200
102
}
330
200
100
DictionaryVariables
280
     0
  1
Imperial24
  0
DICTIONARY
  5
20B
330
6B
100
AcDbDictionary
280
     1
281
     1
  3
ACAD_XREC_ROUNDTRIP
360
20C
  0
DICTIONARY
  5
1A
330
19
100
AcDbDictionary
280
     1
281
     1
  3
BUMPTILE
360
1C
  3
DIFFUSETILE
360
1B
  3
OPACITYTILE
360
1F
  3
REFLECTIONTILE
360
1E
  3
REFRACTIONTILE
360
20
  3
SPECULARTILE
360
1D
  0
DICTIONARY
  5
12
330
11
100
AcDbDictionary
280
     1
281
     1
  3
BUMPTILE
360
14
  3
DIFFUSETILE
360
13
  3
OPACITYTILE
360
17
  3
REFLECTIONTILE
360
16
  3
REFRACTIONTILE
360
18
  3
SPECULARTILE
360
15
  0
DICTIONARY
  5
22
330
21
100
AcDbDictionary
280
     1
281
     1
  3
BUMPTILE
360
24
  3
DIFFUSETILE
360
23
  3
OPACITYTILE
360
27
  3
REFLECTIONTILE
360
26
  3
REFRACTIONTILE
360
28
  3
SPECULARTILE
360
25
  0
DICTIONARY
  5
209
330
69
100
AcDbDictionary
280
     1
281
     1
  3
ACAD_XREC_ROUNDTRIP
360
20A
  0
DICTIONARY
  5
206
330
65
100
AcDbDictionary
280
     1
281
     1
  3
ACAD_ROUNDTRIP_2008_TABLESTYLE_CELLSTYLEMAP
360
207
  0
XRECORD
  5
20C
102
{ACAD_REACTORS
330
20B
102
}
330
20B
100
AcDbXrecord
280
     1
102
DISPLAYNAME
  1
Imperial24
102
FLAGS
 90
        0
  0
XRECORD
  5
1C
102
{ACAD_REACTORS
330
1A
102
}
330
1A
100
AcDbXrecord
280
     1
270
     1
271
     1
  0
XRECORD
  5
1B
102
{ACAD_REACTORS
330
1A
102
}
330
1A
100
AcDbXrecord
280
     1
270
     1
271
     1
  0
XRECORD
  5
1F
102
{ACAD_REACTORS
330
1A
102
}
330
1A
100
AcDbXrecord
280
     1
270
     1
271
     1
  0
XRECORD
  5
1E
102
{ACAD_REACTORS
330
1A
102
}
330
1A
100
AcDbXrecord
280
     1
270
     1
271
     1
  0
XRECORD
  5
20
102
{ACAD_REACTORS
330
1A
102
}
330
1A
100
AcDbXrecord
280
     1
270
     1
271
     1
  0
XRECORD
  5
1D
102
{ACAD_REACTORS
330
1A
102
}
330
1A
100
AcDbXrecord
280
     1
270
     1
271
     1
  0
XRECORD
  5
14
102
{ACAD_REACTORS
330
12
102
}
330
12
100
AcDbXrecord
280
     1
270
     1
271
     1
  0
XRECORD
  5
13
102
{ACAD_REACTORS
330
12
102
}
330
12
100
AcDbXrecord
280
     1
270
     1
271
     1
  0
XRECORD
  5
17
102
{ACAD_REACTORS
330
12
102
}
330
12
100
AcDbXrecord
280
     1
270
     1
271
     1
  0
XRECORD
  5
16
102
{ACAD_REACTORS
330
12
102
}
330
12
100
AcDbXrecord
280
     1
270
     1
271
     1
  0
XRECORD
  5
18
102
{ACAD_REACTORS
330
12
102
}
330
12
100
AcDbXrecord
280
     1
270
     1
271
     1
  0
XRECORD
  5
15
102
{ACAD_REACTORS
330
12
102
}
330
12
100
AcDbXrecord
280
     1
270
     1
271
     1
  0
XRECORD
  5
24
102
{ACAD_REACTORS
330
22
102
}
330
22
100
AcDbXrecord
280
     1
270
     1
271
     1
  0
XRECORD
  5
23
102
{ACAD_REACTORS
330
22
102
}
330
22
100
AcDbXrecord
280
     1
270
     1
271
     1
  0
XRECORD
  5
27
102
{ACAD_REACTORS
330
22
102
}
330
22
100
AcDbXrecord
280
     1
270
     1
271
     1
  0
XRECORD
  5
26
102
{ACAD_REACTORS
330
22
102
}
330
22
100
AcDbXrecord
280
     1
270
     1
271
     1
  0
XRECORD
  5
28
102
{ACAD_REACTORS
330
22
102
}
330
22
100
AcDbXrecord
280
     1
270
     1
271
     1
  0
XRECORD
  5
25
102
{ACAD_REACTORS
330
22
102
}
330
22
100
AcDbXrecord
280
     1
270
     1
271
     1
  0
XRECORD
  5
20A
102
{ACAD_REACTORS
330
209
102
}
330
209
100
AcDbXrecord
280
     1
102
DISPLAYNAME
  1
Imperial24
102
FLAGS
 90
        0
  0
CELLSTYLEMAP
  5
207
102
{ACAD_REACTORS
330
206
102
}
330
206
100
AcDbCellStyleMap
 90
        3
300
CELLSTYLE
  1
TABLEFORMAT_BEGIN
 90
        5
170
     1
 91
        0
 92
    32768
 62
   257
 93
        1
300
CONTENTFORMAT
  1
CONTENTFORMAT_BEGIN
 90
        0
 91
        0
 92
      512
 93
        0
300

 40
0.0
140
1.0
 94
        5
 62
     0
340
55
144
0.25
309
CONTENTFORMAT_END
171
     0
 94
        0
309
TABLEFORMAT_END
  1
CELLSTYLE_BEGIN
 90
        1
 91
        1
300
_TITLE
309
CELLSTYLE_END
300
CELLSTYLE
  1
TABLEFORMAT_BEGIN
 90
        5
170
     1
 91
        0
 92
        0
 62
   257
 93
        1
300
CONTENTFORMAT
  1
CONTENTFORMAT_BEGIN
 90
        0
 91
        0
 92
      512
 93
        0
300

 40
0.0
140
1.0
 94
        5
 62
     0
340
55
144
0.18
309
CONTENTFORMAT_END
171
     0
 94
        0
309
TABLEFORMAT_END
  1
CELLSTYLE_BEGIN
 90
        2
 91
        1
300
_HEADER
309
CELLSTYLE_END
300
CELLSTYLE
  1
TABLEFORMAT_BEGIN
 90
        5
170
     1
 91
        0
 92
        0
 62
   257
 93
        1
300
CONTENTFORMAT
  1
CONTENTFORMAT_BEGIN
 90
        0
 91
        0
 92
      512
 93
        0
300

 40
0.0
140
1.0
 94
        2
 62
     0
340
55
144
0.18
309
CONTENTFORMAT_END
171
     0
 94
        0
309
TABLEFORMAT_END
  1
CELLSTYLE_BEGIN
 90
        3
 91
        2
300
_DATA
309
CELLSTYLE_END
  0
ENDSEC
  0
EOF
