ISO-10303-21;
HEADER;
/* Generated by software containing ST-Developer
 * from STEP Tools, Inc. (www.steptools.com) 
 */

FILE_DESCRIPTION(
/* description */ (''),
/* implementation_level */ '2;1');

FILE_NAME(
/* name */ 'tip_holder_modified.step',
/* time_stamp */ '2026-05-08T12:33:50+02:00',
/* author */ (''),
/* organization */ (''),
/* preprocessor_version */ 'ST-DEVELOPER v20.1',
/* originating_system */ 'Autodesk Translation Framework v15.8.0.0',
/* authorisation */ '');

FILE_SCHEMA (('AUTOMOTIVE_DESIGN { 1 0 10303 214 3 1 1 }'));
ENDSEC;

DATA;
#10=MECHANICAL_DESIGN_GEOMETRIC_PRESENTATION_REPRESENTATION('',(#13),#633);
#11=SHAPE_REPRESENTATION_RELATIONSHIP('SRR','None',#640,#12);
#12=ADVANCED_BREP_SHAPE_REPRESENTATION('',(#14),#632);
#13=STYLED_ITEM('',(#649),#14);
#14=MANIFOLD_SOLID_BREP('Corps1',#361);
#15=CYLINDRICAL_SURFACE('',#387,2.45000000000005);
#16=CYLINDRICAL_SURFACE('',#393,4.00000000000034);
#17=CYLINDRICAL_SURFACE('',#395,5.50000000000011);
#18=CYLINDRICAL_SURFACE('',#400,2.45000000000005);
#19=CYLINDRICAL_SURFACE('',#402,2.9000000000002);
#20=FACE_BOUND('',#49,.T.);
#21=FACE_BOUND('',#53,.T.);
#22=FACE_BOUND('',#57,.T.);
#23=FACE_BOUND('',#61,.T.);
#24=FACE_BOUND('',#63,.T.);
#25=FACE_OUTER_BOUND('',#46,.T.);
#26=FACE_OUTER_BOUND('',#47,.T.);
#27=FACE_OUTER_BOUND('',#48,.T.);
#28=FACE_OUTER_BOUND('',#50,.T.);
#29=FACE_OUTER_BOUND('',#51,.T.);
#30=FACE_OUTER_BOUND('',#52,.T.);
#31=FACE_OUTER_BOUND('',#54,.T.);
#32=FACE_OUTER_BOUND('',#55,.T.);
#33=FACE_OUTER_BOUND('',#56,.T.);
#34=FACE_OUTER_BOUND('',#58,.T.);
#35=FACE_OUTER_BOUND('',#59,.T.);
#36=FACE_OUTER_BOUND('',#60,.T.);
#37=FACE_OUTER_BOUND('',#62,.T.);
#38=FACE_OUTER_BOUND('',#64,.T.);
#39=FACE_OUTER_BOUND('',#65,.T.);
#40=FACE_OUTER_BOUND('',#66,.T.);
#41=FACE_OUTER_BOUND('',#67,.T.);
#42=FACE_OUTER_BOUND('',#68,.T.);
#43=FACE_OUTER_BOUND('',#69,.T.);
#44=FACE_OUTER_BOUND('',#70,.T.);
#45=FACE_OUTER_BOUND('',#71,.T.);
#46=EDGE_LOOP('',(#228,#229,#230,#231));
#47=EDGE_LOOP('',(#232,#233,#234,#235,#236));
#48=EDGE_LOOP('',(#237));
#49=EDGE_LOOP('',(#238));
#50=EDGE_LOOP('',(#239,#240,#241));
#51=EDGE_LOOP('',(#242,#243,#244,#245,#246,#247,#248,#249));
#52=EDGE_LOOP('',(#250));
#53=EDGE_LOOP('',(#251));
#54=EDGE_LOOP('',(#252,#253,#254,#255));
#55=EDGE_LOOP('',(#256,#257,#258,#259));
#56=EDGE_LOOP('',(#260));
#57=EDGE_LOOP('',(#261));
#58=EDGE_LOOP('',(#262,#263,#264));
#59=EDGE_LOOP('',(#265,#266,#267,#268,#269,#270,#271,#272));
#60=EDGE_LOOP('',(#273,#274,#275,#276,#277,#278,#279,#280,#281,#282,#283,
#284));
#61=EDGE_LOOP('',(#285,#286,#287,#288));
#62=EDGE_LOOP('',(#289));
#63=EDGE_LOOP('',(#290));
#64=EDGE_LOOP('',(#291,#292,#293,#294));
#65=EDGE_LOOP('',(#295,#296,#297,#298));
#66=EDGE_LOOP('',(#299,#300,#301,#302));
#67=EDGE_LOOP('',(#303,#304,#305,#306,#307));
#68=EDGE_LOOP('',(#308,#309,#310,#311));
#69=EDGE_LOOP('',(#312,#313,#314,#315));
#70=EDGE_LOOP('',(#316,#317,#318,#319));
#71=EDGE_LOOP('',(#320,#321,#322,#323));
#72=LINE('',#534,#100);
#73=LINE('',#536,#101);
#74=LINE('',#537,#102);
#75=LINE('',#543,#103);
#76=LINE('',#545,#104);
#77=LINE('',#547,#105);
#78=LINE('',#565,#106);
#79=LINE('',#568,#107);
#80=LINE('',#570,#108);
#81=LINE('',#578,#109);
#82=LINE('',#582,#110);
#83=LINE('',#589,#111);
#84=LINE('',#593,#112);
#85=LINE('',#595,#113);
#86=LINE('',#598,#114);
#87=LINE('',#601,#115);
#88=LINE('',#603,#116);
#89=LINE('',#606,#117);
#90=LINE('',#610,#118);
#91=LINE('',#611,#119);
#92=LINE('',#614,#120);
#93=LINE('',#615,#121);
#94=LINE('',#618,#122);
#95=LINE('',#619,#123);
#96=LINE('',#622,#124);
#97=LINE('',#623,#125);
#98=LINE('',#625,#126);
#99=LINE('',#627,#127);
#100=VECTOR('',#422,10.);
#101=VECTOR('',#423,10.);
#102=VECTOR('',#424,10.);
#103=VECTOR('',#429,10.);
#104=VECTOR('',#430,10.);
#105=VECTOR('',#431,10.);
#106=VECTOR('',#452,2.45000000000005);
#107=VECTOR('',#455,10.);
#108=VECTOR('',#456,10.);
#109=VECTOR('',#467,4.00000000000034);
#110=VECTOR('',#472,5.50000000000011);
#111=VECTOR('',#483,2.45000000000005);
#112=VECTOR('',#488,2.9000000000002);
#113=VECTOR('',#489,10.);
#114=VECTOR('',#492,2.9000000000002);
#115=VECTOR('',#495,10.);
#116=VECTOR('',#496,10.);
#117=VECTOR('',#499,10.);
#118=VECTOR('',#504,10.);
#119=VECTOR('',#505,10.);
#120=VECTOR('',#508,10.);
#121=VECTOR('',#509,10.);
#122=VECTOR('',#512,10.);
#123=VECTOR('',#513,10.);
#124=VECTOR('',#516,10.);
#125=VECTOR('',#517,10.);
#126=VECTOR('',#520,10.);
#127=VECTOR('',#523,10.);
#128=CIRCLE('',#376,2.9000000000002);
#129=CIRCLE('',#378,2.9000000000002);
#130=CIRCLE('',#379,2.9000000000002);
#131=CIRCLE('',#381,5.50000000000011);
#132=CIRCLE('',#382,2.9000000000002);
#133=CIRCLE('',#384,2.45000000000005);
#134=CIRCLE('',#385,2.45000000000005);
#135=CIRCLE('',#386,2.45000000000005);
#136=CIRCLE('',#388,2.45000000000005);
#137=CIRCLE('',#389,2.45000000000005);
#138=CIRCLE('',#390,2.45000000000005);
#139=CIRCLE('',#392,4.00000000000034);
#140=CIRCLE('',#394,4.00000000000034);
#141=CIRCLE('',#396,5.50000000000011);
#142=CIRCLE('',#399,2.45000000000005);
#143=CIRCLE('',#401,2.45000000000005);
#144=CIRCLE('',#403,2.9000000000002);
#145=CIRCLE('',#404,2.9000000000002);
#146=CIRCLE('',#405,2.9000000000002);
#147=CIRCLE('',#406,2.9000000000002);
#148=VERTEX_POINT('',#530);
#149=VERTEX_POINT('',#531);
#150=VERTEX_POINT('',#533);
#151=VERTEX_POINT('',#535);
#152=VERTEX_POINT('',#539);
#153=VERTEX_POINT('',#540);
#154=VERTEX_POINT('',#542);
#155=VERTEX_POINT('',#544);
#156=VERTEX_POINT('',#546);
#157=VERTEX_POINT('',#550);
#158=VERTEX_POINT('',#552);
#159=VERTEX_POINT('',#555);
#160=VERTEX_POINT('',#556);
#161=VERTEX_POINT('',#558);
#162=VERTEX_POINT('',#562);
#163=VERTEX_POINT('',#564);
#164=VERTEX_POINT('',#566);
#165=VERTEX_POINT('',#569);
#166=VERTEX_POINT('',#573);
#167=VERTEX_POINT('',#576);
#168=VERTEX_POINT('',#580);
#169=VERTEX_POINT('',#587);
#170=VERTEX_POINT('',#591);
#171=VERTEX_POINT('',#594);
#172=VERTEX_POINT('',#596);
#173=VERTEX_POINT('',#599);
#174=VERTEX_POINT('',#602);
#175=VERTEX_POINT('',#604);
#176=VERTEX_POINT('',#609);
#177=VERTEX_POINT('',#613);
#178=VERTEX_POINT('',#617);
#179=VERTEX_POINT('',#621);
#180=EDGE_CURVE('',#148,#149,#128,.T.);
#181=EDGE_CURVE('',#150,#148,#72,.T.);
#182=EDGE_CURVE('',#151,#150,#73,.T.);
#183=EDGE_CURVE('',#149,#151,#74,.T.);
#184=EDGE_CURVE('',#152,#153,#129,.T.);
#185=EDGE_CURVE('',#154,#152,#75,.T.);
#186=EDGE_CURVE('',#155,#154,#76,.T.);
#187=EDGE_CURVE('',#156,#155,#77,.T.);
#188=EDGE_CURVE('',#153,#156,#130,.T.);
#189=EDGE_CURVE('',#157,#157,#131,.T.);
#190=EDGE_CURVE('',#158,#158,#132,.T.);
#191=EDGE_CURVE('',#159,#160,#133,.T.);
#192=EDGE_CURVE('',#161,#159,#134,.T.);
#193=EDGE_CURVE('',#160,#161,#135,.T.);
#194=EDGE_CURVE('',#162,#162,#136,.T.);
#195=EDGE_CURVE('',#162,#163,#78,.T.);
#196=EDGE_CURVE('',#164,#163,#137,.T.);
#197=EDGE_CURVE('',#161,#164,#79,.T.);
#198=EDGE_CURVE('',#165,#159,#80,.T.);
#199=EDGE_CURVE('',#163,#165,#138,.T.);
#200=EDGE_CURVE('',#166,#166,#139,.T.);
#201=EDGE_CURVE('',#167,#167,#140,.T.);
#202=EDGE_CURVE('',#167,#166,#81,.T.);
#203=EDGE_CURVE('',#168,#168,#141,.T.);
#204=EDGE_CURVE('',#168,#157,#82,.T.);
#205=EDGE_CURVE('',#164,#165,#142,.T.);
#206=EDGE_CURVE('',#169,#169,#143,.T.);
#207=EDGE_CURVE('',#169,#160,#83,.T.);
#208=EDGE_CURVE('',#170,#170,#144,.T.);
#209=EDGE_CURVE('',#170,#153,#84,.T.);
#210=EDGE_CURVE('',#171,#156,#85,.T.);
#211=EDGE_CURVE('',#172,#171,#145,.T.);
#212=EDGE_CURVE('',#172,#158,#86,.T.);
#213=EDGE_CURVE('',#173,#172,#146,.T.);
#214=EDGE_CURVE('',#152,#173,#87,.T.);
#215=EDGE_CURVE('',#174,#149,#88,.T.);
#216=EDGE_CURVE('',#175,#174,#147,.T.);
#217=EDGE_CURVE('',#148,#175,#89,.T.);
#218=EDGE_CURVE('',#176,#175,#90,.T.);
#219=EDGE_CURVE('',#176,#150,#91,.T.);
#220=EDGE_CURVE('',#177,#155,#92,.T.);
#221=EDGE_CURVE('',#171,#177,#93,.T.);
#222=EDGE_CURVE('',#174,#178,#94,.T.);
#223=EDGE_CURVE('',#178,#176,#95,.T.);
#224=EDGE_CURVE('',#177,#179,#96,.T.);
#225=EDGE_CURVE('',#179,#173,#97,.T.);
#226=EDGE_CURVE('',#178,#151,#98,.T.);
#227=EDGE_CURVE('',#179,#154,#99,.T.);
#228=ORIENTED_EDGE('',*,*,#180,.F.);
#229=ORIENTED_EDGE('',*,*,#181,.F.);
#230=ORIENTED_EDGE('',*,*,#182,.F.);
#231=ORIENTED_EDGE('',*,*,#183,.F.);
#232=ORIENTED_EDGE('',*,*,#184,.F.);
#233=ORIENTED_EDGE('',*,*,#185,.F.);
#234=ORIENTED_EDGE('',*,*,#186,.F.);
#235=ORIENTED_EDGE('',*,*,#187,.F.);
#236=ORIENTED_EDGE('',*,*,#188,.F.);
#237=ORIENTED_EDGE('',*,*,#189,.F.);
#238=ORIENTED_EDGE('',*,*,#190,.F.);
#239=ORIENTED_EDGE('',*,*,#191,.F.);
#240=ORIENTED_EDGE('',*,*,#192,.F.);
#241=ORIENTED_EDGE('',*,*,#193,.F.);
#242=ORIENTED_EDGE('',*,*,#194,.F.);
#243=ORIENTED_EDGE('',*,*,#195,.T.);
#244=ORIENTED_EDGE('',*,*,#196,.F.);
#245=ORIENTED_EDGE('',*,*,#197,.F.);
#246=ORIENTED_EDGE('',*,*,#192,.T.);
#247=ORIENTED_EDGE('',*,*,#198,.F.);
#248=ORIENTED_EDGE('',*,*,#199,.F.);
#249=ORIENTED_EDGE('',*,*,#195,.F.);
#250=ORIENTED_EDGE('',*,*,#200,.F.);
#251=ORIENTED_EDGE('',*,*,#194,.T.);
#252=ORIENTED_EDGE('',*,*,#201,.F.);
#253=ORIENTED_EDGE('',*,*,#202,.T.);
#254=ORIENTED_EDGE('',*,*,#200,.T.);
#255=ORIENTED_EDGE('',*,*,#202,.F.);
#256=ORIENTED_EDGE('',*,*,#203,.F.);
#257=ORIENTED_EDGE('',*,*,#204,.T.);
#258=ORIENTED_EDGE('',*,*,#189,.T.);
#259=ORIENTED_EDGE('',*,*,#204,.F.);
#260=ORIENTED_EDGE('',*,*,#203,.T.);
#261=ORIENTED_EDGE('',*,*,#201,.T.);
#262=ORIENTED_EDGE('',*,*,#196,.T.);
#263=ORIENTED_EDGE('',*,*,#199,.T.);
#264=ORIENTED_EDGE('',*,*,#205,.F.);
#265=ORIENTED_EDGE('',*,*,#206,.F.);
#266=ORIENTED_EDGE('',*,*,#207,.T.);
#267=ORIENTED_EDGE('',*,*,#193,.T.);
#268=ORIENTED_EDGE('',*,*,#197,.T.);
#269=ORIENTED_EDGE('',*,*,#205,.T.);
#270=ORIENTED_EDGE('',*,*,#198,.T.);
#271=ORIENTED_EDGE('',*,*,#191,.T.);
#272=ORIENTED_EDGE('',*,*,#207,.F.);
#273=ORIENTED_EDGE('',*,*,#208,.F.);
#274=ORIENTED_EDGE('',*,*,#209,.T.);
#275=ORIENTED_EDGE('',*,*,#188,.T.);
#276=ORIENTED_EDGE('',*,*,#210,.F.);
#277=ORIENTED_EDGE('',*,*,#211,.F.);
#278=ORIENTED_EDGE('',*,*,#212,.T.);
#279=ORIENTED_EDGE('',*,*,#190,.T.);
#280=ORIENTED_EDGE('',*,*,#212,.F.);
#281=ORIENTED_EDGE('',*,*,#213,.F.);
#282=ORIENTED_EDGE('',*,*,#214,.F.);
#283=ORIENTED_EDGE('',*,*,#184,.T.);
#284=ORIENTED_EDGE('',*,*,#209,.F.);
#285=ORIENTED_EDGE('',*,*,#215,.F.);
#286=ORIENTED_EDGE('',*,*,#216,.F.);
#287=ORIENTED_EDGE('',*,*,#217,.F.);
#288=ORIENTED_EDGE('',*,*,#180,.T.);
#289=ORIENTED_EDGE('',*,*,#208,.T.);
#290=ORIENTED_EDGE('',*,*,#206,.T.);
#291=ORIENTED_EDGE('',*,*,#181,.T.);
#292=ORIENTED_EDGE('',*,*,#217,.T.);
#293=ORIENTED_EDGE('',*,*,#218,.F.);
#294=ORIENTED_EDGE('',*,*,#219,.T.);
#295=ORIENTED_EDGE('',*,*,#187,.T.);
#296=ORIENTED_EDGE('',*,*,#220,.F.);
#297=ORIENTED_EDGE('',*,*,#221,.F.);
#298=ORIENTED_EDGE('',*,*,#210,.T.);
#299=ORIENTED_EDGE('',*,*,#216,.T.);
#300=ORIENTED_EDGE('',*,*,#222,.T.);
#301=ORIENTED_EDGE('',*,*,#223,.T.);
#302=ORIENTED_EDGE('',*,*,#218,.T.);
#303=ORIENTED_EDGE('',*,*,#213,.T.);
#304=ORIENTED_EDGE('',*,*,#211,.T.);
#305=ORIENTED_EDGE('',*,*,#221,.T.);
#306=ORIENTED_EDGE('',*,*,#224,.T.);
#307=ORIENTED_EDGE('',*,*,#225,.T.);
#308=ORIENTED_EDGE('',*,*,#183,.T.);
#309=ORIENTED_EDGE('',*,*,#226,.F.);
#310=ORIENTED_EDGE('',*,*,#222,.F.);
#311=ORIENTED_EDGE('',*,*,#215,.T.);
#312=ORIENTED_EDGE('',*,*,#185,.T.);
#313=ORIENTED_EDGE('',*,*,#214,.T.);
#314=ORIENTED_EDGE('',*,*,#225,.F.);
#315=ORIENTED_EDGE('',*,*,#227,.T.);
#316=ORIENTED_EDGE('',*,*,#186,.T.);
#317=ORIENTED_EDGE('',*,*,#227,.F.);
#318=ORIENTED_EDGE('',*,*,#224,.F.);
#319=ORIENTED_EDGE('',*,*,#220,.T.);
#320=ORIENTED_EDGE('',*,*,#182,.T.);
#321=ORIENTED_EDGE('',*,*,#219,.F.);
#322=ORIENTED_EDGE('',*,*,#223,.F.);
#323=ORIENTED_EDGE('',*,*,#226,.T.);
#324=PLANE('',#375);
#325=PLANE('',#377);
#326=PLANE('',#380);
#327=PLANE('',#383);
#328=PLANE('',#391);
#329=PLANE('',#397);
#330=PLANE('',#398);
#331=PLANE('',#407);
#332=PLANE('',#408);
#333=PLANE('',#409);
#334=PLANE('',#410);
#335=PLANE('',#411);
#336=PLANE('',#412);
#337=PLANE('',#413);
#338=PLANE('',#414);
#339=PLANE('',#415);
#340=ADVANCED_FACE('',(#25),#324,.T.);
#341=ADVANCED_FACE('',(#26),#325,.T.);
#342=ADVANCED_FACE('',(#27,#20),#326,.F.);
#343=ADVANCED_FACE('',(#28),#327,.F.);
#344=ADVANCED_FACE('',(#29),#15,.F.);
#345=ADVANCED_FACE('',(#30,#21),#328,.T.);
#346=ADVANCED_FACE('',(#31),#16,.F.);
#347=ADVANCED_FACE('',(#32),#17,.T.);
#348=ADVANCED_FACE('',(#33,#22),#329,.T.);
#349=ADVANCED_FACE('',(#34),#330,.F.);
#350=ADVANCED_FACE('',(#35),#18,.F.);
#351=ADVANCED_FACE('',(#36,#23),#19,.T.);
#352=ADVANCED_FACE('',(#37,#24),#331,.T.);
#353=ADVANCED_FACE('',(#38),#332,.T.);
#354=ADVANCED_FACE('',(#39),#333,.T.);
#355=ADVANCED_FACE('',(#40),#334,.F.);
#356=ADVANCED_FACE('',(#41),#335,.F.);
#357=ADVANCED_FACE('',(#42),#336,.T.);
#358=ADVANCED_FACE('',(#43),#337,.T.);
#359=ADVANCED_FACE('',(#44),#338,.T.);
#360=ADVANCED_FACE('',(#45),#339,.T.);
#361=CLOSED_SHELL('',(#340,#341,#342,#343,#344,#345,#346,#347,#348,#349,
#350,#351,#352,#353,#354,#355,#356,#357,#358,#359,#360));
#362=DERIVED_UNIT_ELEMENT(#364,1.);
#363=DERIVED_UNIT_ELEMENT(#635,-3.);
#364=(
MASS_UNIT()
NAMED_UNIT(*)
SI_UNIT(.KILO.,.GRAM.)
);
#365=DERIVED_UNIT((#362,#363));
#366=MEASURE_REPRESENTATION_ITEM('density measure',
POSITIVE_RATIO_MEASURE(7850.),#365);
#367=PROPERTY_DEFINITION_REPRESENTATION(#372,#369);
#368=PROPERTY_DEFINITION_REPRESENTATION(#373,#370);
#369=REPRESENTATION('material name',(#371),#632);
#370=REPRESENTATION('density',(#366),#632);
#371=DESCRIPTIVE_REPRESENTATION_ITEM('Acier','Acier');
#372=PROPERTY_DEFINITION('material property','material name',#642);
#373=PROPERTY_DEFINITION('material property','density of part',#642);
#374=AXIS2_PLACEMENT_3D('',#528,#416,#417);
#375=AXIS2_PLACEMENT_3D('',#529,#418,#419);
#376=AXIS2_PLACEMENT_3D('',#532,#420,#421);
#377=AXIS2_PLACEMENT_3D('',#538,#425,#426);
#378=AXIS2_PLACEMENT_3D('',#541,#427,#428);
#379=AXIS2_PLACEMENT_3D('',#548,#432,#433);
#380=AXIS2_PLACEMENT_3D('',#549,#434,#435);
#381=AXIS2_PLACEMENT_3D('',#551,#436,#437);
#382=AXIS2_PLACEMENT_3D('',#553,#438,#439);
#383=AXIS2_PLACEMENT_3D('',#554,#440,#441);
#384=AXIS2_PLACEMENT_3D('',#557,#442,#443);
#385=AXIS2_PLACEMENT_3D('',#559,#444,#445);
#386=AXIS2_PLACEMENT_3D('',#560,#446,#447);
#387=AXIS2_PLACEMENT_3D('',#561,#448,#449);
#388=AXIS2_PLACEMENT_3D('',#563,#450,#451);
#389=AXIS2_PLACEMENT_3D('',#567,#453,#454);
#390=AXIS2_PLACEMENT_3D('',#571,#457,#458);
#391=AXIS2_PLACEMENT_3D('',#572,#459,#460);
#392=AXIS2_PLACEMENT_3D('',#574,#461,#462);
#393=AXIS2_PLACEMENT_3D('',#575,#463,#464);
#394=AXIS2_PLACEMENT_3D('',#577,#465,#466);
#395=AXIS2_PLACEMENT_3D('',#579,#468,#469);
#396=AXIS2_PLACEMENT_3D('',#581,#470,#471);
#397=AXIS2_PLACEMENT_3D('',#583,#473,#474);
#398=AXIS2_PLACEMENT_3D('',#584,#475,#476);
#399=AXIS2_PLACEMENT_3D('',#585,#477,#478);
#400=AXIS2_PLACEMENT_3D('',#586,#479,#480);
#401=AXIS2_PLACEMENT_3D('',#588,#481,#482);
#402=AXIS2_PLACEMENT_3D('',#590,#484,#485);
#403=AXIS2_PLACEMENT_3D('',#592,#486,#487);
#404=AXIS2_PLACEMENT_3D('',#597,#490,#491);
#405=AXIS2_PLACEMENT_3D('',#600,#493,#494);
#406=AXIS2_PLACEMENT_3D('',#605,#497,#498);
#407=AXIS2_PLACEMENT_3D('',#607,#500,#501);
#408=AXIS2_PLACEMENT_3D('',#608,#502,#503);
#409=AXIS2_PLACEMENT_3D('',#612,#506,#507);
#410=AXIS2_PLACEMENT_3D('',#616,#510,#511);
#411=AXIS2_PLACEMENT_3D('',#620,#514,#515);
#412=AXIS2_PLACEMENT_3D('',#624,#518,#519);
#413=AXIS2_PLACEMENT_3D('',#626,#521,#522);
#414=AXIS2_PLACEMENT_3D('',#628,#524,#525);
#415=AXIS2_PLACEMENT_3D('',#629,#526,#527);
#416=DIRECTION('axis',(0.,0.,1.));
#417=DIRECTION('refdir',(1.,0.,0.));
#418=DIRECTION('center_axis',(8.21899571058226E-18,2.73745677061539E-18,
1.));
#419=DIRECTION('ref_axis',(-1.,2.33146835171283E-15,8.21899571058225E-18));
#420=DIRECTION('center_axis',(8.21899571058226E-18,2.73745677061539E-18,
1.));
#421=DIRECTION('ref_axis',(1.,-3.33066907387547E-16,-3.33392168039293E-18));
#422=DIRECTION('',(-1.,1.16573417585641E-15,8.21899571058225E-18));
#423=DIRECTION('',(-1.16573417585641E-15,-1.,2.7374567706154E-18));
#424=DIRECTION('',(1.,-1.16573417585641E-15,-8.21899571058225E-18));
#425=DIRECTION('center_axis',(8.21899571058226E-18,2.73745677061539E-18,
1.));
#426=DIRECTION('ref_axis',(-1.,2.33146835171283E-15,8.21899571058225E-18));
#427=DIRECTION('center_axis',(8.21899571058226E-18,2.73745677061539E-18,
1.));
#428=DIRECTION('ref_axis',(1.,-3.33066907387547E-16,-3.33392168039293E-18));
#429=DIRECTION('',(1.,-1.16573417585641E-15,-8.21899571058225E-18));
#430=DIRECTION('',(1.16573417585641E-15,1.,-2.7374567706154E-18));
#431=DIRECTION('',(-1.,1.16573417585641E-15,8.21899571058225E-18));
#432=DIRECTION('center_axis',(8.21899571058226E-18,2.73745677061539E-18,
1.));
#433=DIRECTION('ref_axis',(1.,-3.33066907387547E-16,-3.33392168039293E-18));
#434=DIRECTION('center_axis',(1.14143428240909E-16,-3.08997619158387E-18,
-1.));
#435=DIRECTION('ref_axis',(-1.,1.6098233857065E-15,-1.14143428240909E-16));
#436=DIRECTION('center_axis',(1.14143428240909E-16,-3.08997619158387E-18,
-1.));
#437=DIRECTION('ref_axis',(-1.,1.6098233857065E-15,-1.14143428240909E-16));
#438=DIRECTION('center_axis',(-1.14143428240909E-16,3.08997619158387E-18,
1.));
#439=DIRECTION('ref_axis',(1.,-3.33066907387547E-16,-3.33392168039293E-18));
#440=DIRECTION('center_axis',(1.14143428240909E-16,-3.08997619158387E-18,
-1.));
#441=DIRECTION('ref_axis',(-1.,1.6098233857065E-15,-1.14143428240909E-16));
#442=DIRECTION('center_axis',(1.14143428240909E-16,-3.08997619158387E-18,
-1.));
#443=DIRECTION('ref_axis',(1.,-3.33066907387547E-16,-3.33392168039293E-18));
#444=DIRECTION('center_axis',(-1.14143428240909E-16,3.08997619158387E-18,
1.));
#445=DIRECTION('ref_axis',(-1.,1.60982338570649E-15,-1.14143428240909E-16));
#446=DIRECTION('center_axis',(1.14143428240909E-16,-3.08997619158387E-18,
-1.));
#447=DIRECTION('ref_axis',(1.,-3.33066907387547E-16,-3.33392168039293E-18));
#448=DIRECTION('center_axis',(1.14143428240909E-16,-3.08997619158387E-18,
-1.));
#449=DIRECTION('ref_axis',(-1.,1.60982338570649E-15,-1.14143428240909E-16));
#450=DIRECTION('center_axis',(-1.14143428240909E-16,3.08997619158387E-18,
1.));
#451=DIRECTION('ref_axis',(-1.,1.60982338570649E-15,-1.14143428240909E-16));
#452=DIRECTION('',(-1.14143428240909E-16,3.08997619158387E-18,1.));
#453=DIRECTION('center_axis',(-3.33392168039293E-18,1.08420217248551E-18,
-1.));
#454=DIRECTION('ref_axis',(-1.,1.60982338570649E-15,-1.14143428240909E-16));
#455=DIRECTION('',(1.14143428240909E-16,-3.08997619158387E-18,-1.));
#456=DIRECTION('',(-1.14143428240909E-16,3.08997619158387E-18,1.));
#457=DIRECTION('center_axis',(-3.33392168039293E-18,1.08420217248551E-18,
-1.));
#458=DIRECTION('ref_axis',(-1.,1.60982338570649E-15,-1.14143428240909E-16));
#459=DIRECTION('center_axis',(1.14143428240909E-16,-3.08997619158387E-18,
-1.));
#460=DIRECTION('ref_axis',(-1.,1.6098233857065E-15,-1.14143428240909E-16));
#461=DIRECTION('center_axis',(-1.14143428240909E-16,3.08997619158387E-18,
1.));
#462=DIRECTION('ref_axis',(-1.,1.6098233857065E-15,-1.14143428240909E-16));
#463=DIRECTION('center_axis',(1.14143428240909E-16,-3.08997619158387E-18,
-1.));
#464=DIRECTION('ref_axis',(-1.,1.6098233857065E-15,-1.14143428240909E-16));
#465=DIRECTION('center_axis',(-1.14143428240909E-16,3.08997619158387E-18,
1.));
#466=DIRECTION('ref_axis',(-1.,1.6098233857065E-15,-1.14143428240909E-16));
#467=DIRECTION('',(-1.14143428240909E-16,3.08997619158387E-18,1.));
#468=DIRECTION('center_axis',(1.14143428240909E-16,-3.08997619158387E-18,
-1.));
#469=DIRECTION('ref_axis',(-1.,1.6098233857065E-15,-1.14143428240909E-16));
#470=DIRECTION('center_axis',(1.14143428240909E-16,-3.08997619158387E-18,
-1.));
#471=DIRECTION('ref_axis',(-1.,1.6098233857065E-15,-1.14143428240909E-16));
#472=DIRECTION('',(-1.14143428240909E-16,3.08997619158387E-18,1.));
#473=DIRECTION('center_axis',(1.14143428240909E-16,-3.08997619158387E-18,
-1.));
#474=DIRECTION('ref_axis',(-1.,1.6098233857065E-15,-1.14143428240909E-16));
#475=DIRECTION('center_axis',(3.33392168039293E-18,-1.08420217248551E-18,
1.));
#476=DIRECTION('ref_axis',(1.,-3.33066907387547E-16,-3.33392168039293E-18));
#477=DIRECTION('center_axis',(-3.33392168039293E-18,1.08420217248551E-18,
-1.));
#478=DIRECTION('ref_axis',(1.,-3.33066907387547E-16,-3.33392168039293E-18));
#479=DIRECTION('center_axis',(3.33392168039293E-18,-1.08420217248551E-18,
1.));
#480=DIRECTION('ref_axis',(1.,-3.33066907387547E-16,-3.33392168039293E-18));
#481=DIRECTION('center_axis',(-3.33392168039293E-18,1.08420217248551E-18,
-1.));
#482=DIRECTION('ref_axis',(1.,-3.33066907387547E-16,-3.33392168039293E-18));
#483=DIRECTION('',(-3.33392168039293E-18,1.08420217248551E-18,-1.));
#484=DIRECTION('center_axis',(3.33392168039293E-18,-1.08420217248551E-18,
1.));
#485=DIRECTION('ref_axis',(1.,-3.33066907387547E-16,-3.33392168039293E-18));
#486=DIRECTION('center_axis',(3.33392168039293E-18,-1.08420217248551E-18,
1.));
#487=DIRECTION('ref_axis',(1.,-3.33066907387547E-16,-3.33392168039293E-18));
#488=DIRECTION('',(-3.33392168039293E-18,1.08420217248551E-18,-1.));
#489=DIRECTION('',(3.33392168039293E-18,-1.08420217248551E-18,1.));
#490=DIRECTION('center_axis',(6.85026732527459E-18,6.84695462590651E-18,
1.));
#491=DIRECTION('ref_axis',(1.,-3.33066907387547E-16,-3.33392168039293E-18));
#492=DIRECTION('',(-3.33392168039293E-18,1.08420217248551E-18,-1.));
#493=DIRECTION('center_axis',(6.85026732527459E-18,6.84695462590651E-18,
1.));
#494=DIRECTION('ref_axis',(1.,-3.33066907387547E-16,-3.33392168039293E-18));
#495=DIRECTION('',(-3.33392168039293E-18,1.08420217248551E-18,-1.));
#496=DIRECTION('',(3.33392168039293E-18,-1.08420217248551E-18,1.));
#497=DIRECTION('center_axis',(6.85026732527459E-18,6.84695462590651E-18,
1.));
#498=DIRECTION('ref_axis',(1.,-3.33066907387547E-16,-3.33392168039293E-18));
#499=DIRECTION('',(-3.33392168039293E-18,1.08420217248551E-18,-1.));
#500=DIRECTION('center_axis',(3.33392168039293E-18,-1.08420217248551E-18,
1.));
#501=DIRECTION('ref_axis',(1.,-3.33066907387547E-16,-3.33392168039293E-18));
#502=DIRECTION('center_axis',(-1.16573417585641E-15,-1.,6.84695462590651E-18));
#503=DIRECTION('ref_axis',(1.,-1.16573417585641E-15,-6.85026732527458E-18));
#504=DIRECTION('',(-1.,1.16573417585641E-15,6.85026732527458E-18));
#505=DIRECTION('',(6.85026732527459E-18,6.84695462590651E-18,1.));
#506=DIRECTION('center_axis',(-1.16573417585641E-15,-1.,6.84695462590651E-18));
#507=DIRECTION('ref_axis',(1.,-1.16573417585641E-15,-6.85026732527458E-18));
#508=DIRECTION('',(6.85026732527459E-18,6.84695462590651E-18,1.));
#509=DIRECTION('',(-1.,1.16573417585641E-15,6.85026732527458E-18));
#510=DIRECTION('center_axis',(6.85026732527459E-18,6.84695462590651E-18,
1.));
#511=DIRECTION('ref_axis',(-1.16573417585641E-15,-1.,6.84695462590651E-18));
#512=DIRECTION('',(1.,-1.16573417585641E-15,-6.85026732527458E-18));
#513=DIRECTION('',(-1.16573417585641E-15,-1.,6.84695462590651E-18));
#514=DIRECTION('center_axis',(6.85026732527459E-18,6.84695462590651E-18,
1.));
#515=DIRECTION('ref_axis',(-1.16573417585641E-15,-1.,6.84695462590651E-18));
#516=DIRECTION('',(1.16573417585641E-15,1.,-6.84695462590651E-18));
#517=DIRECTION('',(1.,-1.16573417585641E-15,-6.85026732527458E-18));
#518=DIRECTION('center_axis',(1.16573417585641E-15,1.,-6.84695462590651E-18));
#519=DIRECTION('ref_axis',(-1.,1.16573417585641E-15,6.85026732527458E-18));
#520=DIRECTION('',(6.85026732527459E-18,6.84695462590651E-18,1.));
#521=DIRECTION('center_axis',(1.16573417585641E-15,1.,-6.84695462590651E-18));
#522=DIRECTION('ref_axis',(-1.,1.16573417585641E-15,6.85026732527458E-18));
#523=DIRECTION('',(6.85026732527459E-18,6.84695462590651E-18,1.));
#524=DIRECTION('center_axis',(-1.,1.16573417585641E-15,6.85026732527458E-18));
#525=DIRECTION('ref_axis',(-1.16573417585641E-15,-1.,6.84695462590651E-18));
#526=DIRECTION('center_axis',(1.,-1.16573417585641E-15,-6.85026732527458E-18));
#527=DIRECTION('ref_axis',(1.16573417585641E-15,1.,-6.84695462590651E-18));
#528=CARTESIAN_POINT('',(0.,0.,0.));
#529=CARTESIAN_POINT('Origin',(-4269.67312828754,2082.18291015624,1.7));
#530=CARTESIAN_POINT('',(-4265.30462333207,2080.85597486052,1.7));
#531=CARTESIAN_POINT('',(-4265.13526284105,2082.35597486052,1.7));
#532=CARTESIAN_POINT('Origin',(-4268.00232316948,2081.92012503188,1.7));
#533=CARTESIAN_POINT('',(-4263.45006358325,2080.85597486052,1.7));
#534=CARTESIAN_POINT('',(-4271.06159593539,2080.85597486052,1.7));
#535=CARTESIAN_POINT('',(-4263.45006358325,2082.35597486052,1.7));
#536=CARTESIAN_POINT('',(-4263.45006358325,2081.51944250838,1.7));
#537=CARTESIAN_POINT('',(-4266.56159593539,2082.35597486052,1.7));
#538=CARTESIAN_POINT('Origin',(-4269.67312828754,2082.18291015624,1.7));
#539=CARTESIAN_POINT('',(-4270.86938349792,2082.35597486052,1.7));
#540=CARTESIAN_POINT('',(-4270.90232316949,2081.92012503188,1.7));
#541=CARTESIAN_POINT('Origin',(-4268.00232316948,2081.92012503188,1.7));
#542=CARTESIAN_POINT('',(-4272.45006358325,2082.35597486052,1.7));
#543=CARTESIAN_POINT('',(-4266.56159593539,2082.35597486052,1.7));
#544=CARTESIAN_POINT('',(-4272.45006358325,2080.85597486052,1.7));
#545=CARTESIAN_POINT('',(-4272.45006358325,2082.26944250838,1.7));
#546=CARTESIAN_POINT('',(-4270.7000230069,2080.85597486052,1.7));
#547=CARTESIAN_POINT('',(-4271.06159593539,2080.85597486052,1.7));
#548=CARTESIAN_POINT('Origin',(-4268.00232316948,2081.92012503188,1.7));
#549=CARTESIAN_POINT('Origin',(-4267.96098668629,2081.93933413153,-5.59835914412866));
#550=CARTESIAN_POINT('',(-4262.46098668629,2081.93933413153,-5.59835914412866));
#551=CARTESIAN_POINT('Origin',(-4267.96098668629,2081.93933413153,-5.59835914412866));
#552=CARTESIAN_POINT('',(-4270.90232316949,2081.92012503188,-5.59835914412866));
#553=CARTESIAN_POINT('Origin',(-4268.00232316948,2081.92012503188,-5.59835914412866));
#554=CARTESIAN_POINT('Origin',(-4267.96098668629,2081.93933413153,-5.59835914412866));
#555=CARTESIAN_POINT('',(-4266.94921813579,2079.70800618607,-5.59835914412866));
#556=CARTESIAN_POINT('',(-4270.45232316948,2081.92012503188,-5.59835914412866));
#557=CARTESIAN_POINT('Origin',(-4268.00232316948,2081.92012503188,-5.59835914412866));
#558=CARTESIAN_POINT('',(-4269.01409171999,2084.15145297735,-5.59835914412866));
#559=CARTESIAN_POINT('Origin',(-4267.96098668629,2081.93933413153,-5.59835914412866));
#560=CARTESIAN_POINT('Origin',(-4268.00232316948,2081.92012503188,-5.59835914412866));
#561=CARTESIAN_POINT('Origin',(-4267.96098668629,2081.93933413153,-5.59835914412866));
#562=CARTESIAN_POINT('',(-4265.51098668629,2081.93933413153,-7.59835914412866));
#563=CARTESIAN_POINT('Origin',(-4267.96098668629,2081.93933413153,-7.59835914412866));
#564=CARTESIAN_POINT('',(-4265.51098668629,2081.93933413153,-5.69227989580088));
#565=CARTESIAN_POINT('',(-4265.51098668629,2081.93933413153,-5.59835914412866));
#566=CARTESIAN_POINT('',(-4269.01409171999,2084.15145297735,-5.69227989580088));
#567=CARTESIAN_POINT('Origin',(-4267.96098668629,2081.93933413153,-5.69227989580088));
#568=CARTESIAN_POINT('',(-4269.01409171999,2084.15145297735,-5.59835914412866));
#569=CARTESIAN_POINT('',(-4266.94921813579,2079.70800618607,-5.69227989580088));
#570=CARTESIAN_POINT('',(-4266.94921813579,2079.70800618607,-5.59835914412866));
#571=CARTESIAN_POINT('Origin',(-4267.96098668629,2081.93933413153,-5.69227989580088));
#572=CARTESIAN_POINT('Origin',(-4267.96098668629,2081.93933413153,-7.59835914412866));
#573=CARTESIAN_POINT('',(-4263.96098668629,2081.93933413153,-7.59835914412866));
#574=CARTESIAN_POINT('Origin',(-4267.96098668629,2081.93933413153,-7.59835914412866));
#575=CARTESIAN_POINT('Origin',(-4267.96098668629,2081.93933413153,-5.59835914412866));
#576=CARTESIAN_POINT('',(-4263.96098668629,2081.93933413153,-15.5983591441287));
#577=CARTESIAN_POINT('Origin',(-4267.96098668629,2081.93933413153,-15.5983591441287));
#578=CARTESIAN_POINT('',(-4263.96098668629,2081.93933413153,-5.59835914412866));
#579=CARTESIAN_POINT('Origin',(-4267.96098668629,2081.93933413153,-5.59835914412866));
#580=CARTESIAN_POINT('',(-4262.46098668629,2081.93933413153,-15.5983591441287));
#581=CARTESIAN_POINT('Origin',(-4267.96098668629,2081.93933413153,-15.5983591441287));
#582=CARTESIAN_POINT('',(-4262.46098668629,2081.93933413153,-5.59835914412866));
#583=CARTESIAN_POINT('Origin',(-4267.96098668629,2081.93933413153,-15.5983591441287));
#584=CARTESIAN_POINT('Origin',(-4268.00232316948,2081.92012503188,-5.69227989580088));
#585=CARTESIAN_POINT('Origin',(-4268.00232316948,2081.92012503188,-5.69227989580088));
#586=CARTESIAN_POINT('Origin',(-4268.00232316948,2081.92012503188,-5.69227989580088));
#587=CARTESIAN_POINT('',(-4270.45232316948,2081.92012503188,9.30772010419912));
#588=CARTESIAN_POINT('Origin',(-4268.00232316948,2081.92012503188,9.30772010419912));
#589=CARTESIAN_POINT('',(-4270.45232316948,2081.92012503188,-5.69227989580088));
#590=CARTESIAN_POINT('Origin',(-4268.00232316948,2081.92012503188,-5.69227989580088));
#591=CARTESIAN_POINT('',(-4270.90232316949,2081.92012503188,9.30772010419912));
#592=CARTESIAN_POINT('Origin',(-4268.00232316948,2081.92012503188,9.30772010419912));
#593=CARTESIAN_POINT('',(-4270.90232316949,2081.92012503188,-5.69227989580088));
#594=CARTESIAN_POINT('',(-4270.7000230069,2080.85597486052,0.));
#595=CARTESIAN_POINT('',(-4270.7000230069,2080.85597486052,-5.69227989580088));
#596=CARTESIAN_POINT('',(-4270.90232316949,2081.92012503188,9.93288762165081E-18));
#597=CARTESIAN_POINT('Origin',(-4268.00232316948,2081.92012503188,0.));
#598=CARTESIAN_POINT('',(-4270.90232316949,2081.92012503188,-5.69227989580088));
#599=CARTESIAN_POINT('',(-4270.86938349792,2082.35597486052,0.));
#600=CARTESIAN_POINT('Origin',(-4268.00232316948,2081.92012503188,0.));
#601=CARTESIAN_POINT('',(-4270.86938349792,2082.35597486052,-5.69227989580088));
#602=CARTESIAN_POINT('',(-4265.13526284105,2082.35597486052,0.));
#603=CARTESIAN_POINT('',(-4265.13526284105,2082.35597486052,-5.69227989580088));
#604=CARTESIAN_POINT('',(-4265.30462333207,2080.85597486052,0.));
#605=CARTESIAN_POINT('Origin',(-4268.00232316948,2081.92012503188,0.));
#606=CARTESIAN_POINT('',(-4265.30462333207,2080.85597486052,-5.69227989580088));
#607=CARTESIAN_POINT('Origin',(-4268.00232316948,2081.92012503188,9.30772010419912));
#608=CARTESIAN_POINT('Origin',(-4272.45006358325,2080.85597486052,-1.47359107898366E-16));
#609=CARTESIAN_POINT('',(-4263.45006358325,2080.85597486052,-2.09011513825842E-16));
#610=CARTESIAN_POINT('',(-4263.45006358325,2080.85597486052,-2.09011513825842E-16));
#611=CARTESIAN_POINT('',(-4263.45006358325,2080.85597486052,-2.09011513825842E-16));
#612=CARTESIAN_POINT('Origin',(-4272.45006358325,2080.85597486052,-1.47359107898366E-16));
#613=CARTESIAN_POINT('',(-4272.45006358325,2080.85597486052,-1.47359107898366E-16));
#614=CARTESIAN_POINT('',(-4272.45006358325,2080.85597486052,-1.47359107898366E-16));
#615=CARTESIAN_POINT('',(-4263.45006358325,2080.85597486052,-2.09011513825842E-16));
#616=CARTESIAN_POINT('Origin',(-4267.95006358326,2081.60597486052,-1.83320526831535E-16));
#617=CARTESIAN_POINT('',(-4263.45006358325,2082.35597486052,-2.19281945764703E-16));
#618=CARTESIAN_POINT('',(-4272.45006358325,2082.35597486052,-1.57629539837227E-16));
#619=CARTESIAN_POINT('',(-4263.45006358325,2082.35597486052,-2.19281945764703E-16));
#620=CARTESIAN_POINT('Origin',(-4267.95006358326,2081.60597486052,-1.83320526831535E-16));
#621=CARTESIAN_POINT('',(-4272.45006358325,2082.35597486052,-1.57629539837227E-16));
#622=CARTESIAN_POINT('',(-4272.45006358325,2080.85597486052,-1.47359107898366E-16));
#623=CARTESIAN_POINT('',(-4272.45006358325,2082.35597486052,-1.57629539837227E-16));
#624=CARTESIAN_POINT('Origin',(-4263.45006358325,2082.35597486052,-2.19281945764703E-16));
#625=CARTESIAN_POINT('',(-4263.45006358325,2082.35597486052,-2.19281945764703E-16));
#626=CARTESIAN_POINT('Origin',(-4263.45006358325,2082.35597486052,-2.19281945764703E-16));
#627=CARTESIAN_POINT('',(-4272.45006358325,2082.35597486052,-1.57629539837227E-16));
#628=CARTESIAN_POINT('Origin',(-4272.45006358325,2082.35597486052,-1.57629539837227E-16));
#629=CARTESIAN_POINT('Origin',(-4263.45006358325,2080.85597486052,-2.09011513825842E-16));
#630=UNCERTAINTY_MEASURE_WITH_UNIT(LENGTH_MEASURE(0.01),#634,
'DISTANCE_ACCURACY_VALUE',
'Maximum model space distance between geometric entities at asserted c
onnectivities');
#631=UNCERTAINTY_MEASURE_WITH_UNIT(LENGTH_MEASURE(0.01),#634,
'DISTANCE_ACCURACY_VALUE',
'Maximum model space distance between geometric entities at asserted c
onnectivities');
#632=(
GEOMETRIC_REPRESENTATION_CONTEXT(3)
GLOBAL_UNCERTAINTY_ASSIGNED_CONTEXT((#630))
GLOBAL_UNIT_ASSIGNED_CONTEXT((#634,#636,#637))
REPRESENTATION_CONTEXT('','3D')
);
#633=(
GEOMETRIC_REPRESENTATION_CONTEXT(3)
GLOBAL_UNCERTAINTY_ASSIGNED_CONTEXT((#631))
GLOBAL_UNIT_ASSIGNED_CONTEXT((#634,#636,#637))
REPRESENTATION_CONTEXT('','3D')
);
#634=(
LENGTH_UNIT()
NAMED_UNIT(*)
SI_UNIT(.MILLI.,.METRE.)
);
#635=(
LENGTH_UNIT()
NAMED_UNIT(*)
SI_UNIT($,.METRE.)
);
#636=(
NAMED_UNIT(*)
PLANE_ANGLE_UNIT()
SI_UNIT($,.RADIAN.)
);
#637=(
NAMED_UNIT(*)
SI_UNIT($,.STERADIAN.)
SOLID_ANGLE_UNIT()
);
#638=SHAPE_DEFINITION_REPRESENTATION(#639,#640);
#639=PRODUCT_DEFINITION_SHAPE('',$,#642);
#640=SHAPE_REPRESENTATION('',(#374),#632);
#641=PRODUCT_DEFINITION_CONTEXT('part definition',#646,'design');
#642=PRODUCT_DEFINITION('2026-05-08-12-33-50-237','FusionComponent',#643,
#641);
#643=PRODUCT_DEFINITION_FORMATION('',$,#648);
#644=PRODUCT_RELATED_PRODUCT_CATEGORY('FusionComponent',
'FusionComponent',(#648));
#645=APPLICATION_PROTOCOL_DEFINITION('international standard',
'automotive_design',2009,#646);
#646=APPLICATION_CONTEXT(
'Core Data for Automotive Mechanical Design Process');
#647=PRODUCT_CONTEXT('part definition',#646,'mechanical');
#648=PRODUCT('2026-05-08-12-33-50-237','FusionComponent',$,(#647));
#649=PRESENTATION_STYLE_ASSIGNMENT((#650));
#650=SURFACE_STYLE_USAGE(.BOTH.,#651);
#651=SURFACE_SIDE_STYLE('',(#652));
#652=SURFACE_STYLE_FILL_AREA(#653);
#653=FILL_AREA_STYLE('Acier - Satin\X\E9',(#654));
#654=FILL_AREA_STYLE_COLOUR('Acier - Satin\X\E9',#655);
#655=COLOUR_RGB('Acier - Satin\X\E9',0.627450980392157,0.627450980392157,
0.627450980392157);
ENDSEC;
END-ISO-10303-21;
