ISO-10303-21;
HEADER;
/* Generated by software containing ST-Developer
 * from STEP Tools, Inc. (www.steptools.com) 
 */

FILE_DESCRIPTION(
/* description */ (''),
/* implementation_level */ '2;1');

FILE_NAME(
/* name */ 'tips_holder_on_board.step',
/* time_stamp */ '2026-05-08T12:27:28+02:00',
/* author */ (''),
/* organization */ (''),
/* preprocessor_version */ 'ST-DEVELOPER v20.1',
/* originating_system */ 'Autodesk Translation Framework v15.8.0.0',
/* authorisation */ '');

FILE_SCHEMA (('AUTOMOTIVE_DESIGN { 1 0 10303 214 3 1 1 }'));
ENDSEC;

DATA;
#10=MECHANICAL_DESIGN_GEOMETRIC_PRESENTATION_REPRESENTATION('',(#13),#693);
#11=SHAPE_REPRESENTATION_RELATIONSHIP('SRR','None',#700,#12);
#12=ADVANCED_BREP_SHAPE_REPRESENTATION('',(#14),#692);
#13=STYLED_ITEM('',(#709),#14);
#14=MANIFOLD_SOLID_BREP('Corps1',#417);
#15=FACE_BOUND('',#68,.T.);
#16=FACE_BOUND('',#75,.T.);
#17=FACE_BOUND('',#78,.T.);
#18=FACE_BOUND('',#81,.T.);
#19=FACE_BOUND('',#88,.T.);
#20=FACE_BOUND('',#89,.T.);
#21=FACE_BOUND('',#91,.T.);
#22=FACE_BOUND('',#92,.T.);
#23=FACE_BOUND('',#93,.T.);
#24=FACE_BOUND('',#94,.T.);
#25=PLANE('',#434);
#26=PLANE('',#435);
#27=PLANE('',#436);
#28=PLANE('',#437);
#29=PLANE('',#438);
#30=PLANE('',#442);
#31=PLANE('',#443);
#32=PLANE('',#444);
#33=PLANE('',#445);
#34=PLANE('',#449);
#35=PLANE('',#454);
#36=PLANE('',#460);
#37=PLANE('',#461);
#38=PLANE('',#462);
#39=PLANE('',#463);
#40=PLANE('',#464);
#41=FACE_OUTER_BOUND('',#63,.T.);
#42=FACE_OUTER_BOUND('',#64,.T.);
#43=FACE_OUTER_BOUND('',#65,.T.);
#44=FACE_OUTER_BOUND('',#66,.T.);
#45=FACE_OUTER_BOUND('',#67,.T.);
#46=FACE_OUTER_BOUND('',#69,.T.);
#47=FACE_OUTER_BOUND('',#70,.T.);
#48=FACE_OUTER_BOUND('',#71,.T.);
#49=FACE_OUTER_BOUND('',#72,.T.);
#50=FACE_OUTER_BOUND('',#73,.T.);
#51=FACE_OUTER_BOUND('',#74,.T.);
#52=FACE_OUTER_BOUND('',#76,.T.);
#53=FACE_OUTER_BOUND('',#77,.T.);
#54=FACE_OUTER_BOUND('',#79,.T.);
#55=FACE_OUTER_BOUND('',#80,.T.);
#56=FACE_OUTER_BOUND('',#82,.T.);
#57=FACE_OUTER_BOUND('',#83,.T.);
#58=FACE_OUTER_BOUND('',#84,.T.);
#59=FACE_OUTER_BOUND('',#85,.T.);
#60=FACE_OUTER_BOUND('',#86,.T.);
#61=FACE_OUTER_BOUND('',#87,.T.);
#62=FACE_OUTER_BOUND('',#90,.T.);
#63=EDGE_LOOP('',(#281,#282,#283,#284));
#64=EDGE_LOOP('',(#285,#286,#287,#288));
#65=EDGE_LOOP('',(#289,#290,#291,#292));
#66=EDGE_LOOP('',(#293,#294,#295,#296));
#67=EDGE_LOOP('',(#297,#298,#299,#300));
#68=EDGE_LOOP('',(#301));
#69=EDGE_LOOP('',(#302,#303,#304,#305,#306,#307,#308,#309));
#70=EDGE_LOOP('',(#310,#311,#312,#313));
#71=EDGE_LOOP('',(#314,#315,#316,#317));
#72=EDGE_LOOP('',(#318,#319,#320,#321));
#73=EDGE_LOOP('',(#322,#323,#324,#325));
#74=EDGE_LOOP('',(#326,#327,#328,#329));
#75=EDGE_LOOP('',(#330));
#76=EDGE_LOOP('',(#331,#332,#333,#334));
#77=EDGE_LOOP('',(#335));
#78=EDGE_LOOP('',(#336));
#79=EDGE_LOOP('',(#337,#338,#339,#340));
#80=EDGE_LOOP('',(#341));
#81=EDGE_LOOP('',(#342));
#82=EDGE_LOOP('',(#343,#344,#345,#346));
#83=EDGE_LOOP('',(#347,#348,#349,#350));
#84=EDGE_LOOP('',(#351,#352,#353,#354));
#85=EDGE_LOOP('',(#355,#356,#357,#358,#359,#360,#361,#362));
#86=EDGE_LOOP('',(#363,#364,#365,#366));
#87=EDGE_LOOP('',(#367,#368,#369,#370));
#88=EDGE_LOOP('',(#371));
#89=EDGE_LOOP('',(#372));
#90=EDGE_LOOP('',(#373,#374,#375,#376,#377,#378,#379,#380,#381,#382,#383,
#384));
#91=EDGE_LOOP('',(#385));
#92=EDGE_LOOP('',(#386));
#93=EDGE_LOOP('',(#387));
#94=EDGE_LOOP('',(#388));
#95=LINE('',#582,#137);
#96=LINE('',#587,#138);
#97=LINE('',#589,#139);
#98=LINE('',#591,#140);
#99=LINE('',#592,#141);
#100=LINE('',#595,#142);
#101=LINE('',#597,#143);
#102=LINE('',#598,#144);
#103=LINE('',#601,#145);
#104=LINE('',#603,#146);
#105=LINE('',#604,#147);
#106=LINE('',#606,#148);
#107=LINE('',#609,#149);
#108=LINE('',#611,#150);
#109=LINE('',#613,#151);
#110=LINE('',#615,#152);
#111=LINE('',#616,#153);
#112=LINE('',#621,#154);
#113=LINE('',#626,#155);
#114=LINE('',#628,#156);
#115=LINE('',#630,#157);
#116=LINE('',#631,#158);
#117=LINE('',#634,#159);
#118=LINE('',#636,#160);
#119=LINE('',#637,#161);
#120=LINE('',#640,#162);
#121=LINE('',#642,#163);
#122=LINE('',#643,#164);
#123=LINE('',#645,#165);
#124=LINE('',#650,#166);
#125=LINE('',#659,#167);
#126=LINE('',#667,#168);
#127=LINE('',#671,#169);
#128=LINE('',#674,#170);
#129=LINE('',#676,#171);
#130=LINE('',#677,#172);
#131=LINE('',#679,#173);
#132=LINE('',#681,#174);
#133=LINE('',#683,#175);
#134=LINE('',#684,#176);
#135=LINE('',#686,#177);
#136=LINE('',#687,#178);
#137=VECTOR('',#471,1.49999999999977);
#138=VECTOR('',#476,10.);
#139=VECTOR('',#477,10.);
#140=VECTOR('',#478,10.);
#141=VECTOR('',#479,10.);
#142=VECTOR('',#482,10.);
#143=VECTOR('',#483,10.);
#144=VECTOR('',#484,10.);
#145=VECTOR('',#487,10.);
#146=VECTOR('',#488,10.);
#147=VECTOR('',#489,10.);
#148=VECTOR('',#492,10.);
#149=VECTOR('',#495,10.);
#150=VECTOR('',#496,10.);
#151=VECTOR('',#497,10.);
#152=VECTOR('',#498,10.);
#153=VECTOR('',#499,10.);
#154=VECTOR('',#504,1.49999999999977);
#155=VECTOR('',#509,10.);
#156=VECTOR('',#510,10.);
#157=VECTOR('',#511,10.);
#158=VECTOR('',#512,10.);
#159=VECTOR('',#515,10.);
#160=VECTOR('',#516,10.);
#161=VECTOR('',#517,10.);
#162=VECTOR('',#520,10.);
#163=VECTOR('',#521,10.);
#164=VECTOR('',#522,10.);
#165=VECTOR('',#525,10.);
#166=VECTOR('',#530,4.25000000000011);
#167=VECTOR('',#541,4.25000000000011);
#168=VECTOR('',#552,5.);
#169=VECTOR('',#557,5.);
#170=VECTOR('',#560,10.);
#171=VECTOR('',#561,10.);
#172=VECTOR('',#562,10.);
#173=VECTOR('',#565,10.);
#174=VECTOR('',#566,10.);
#175=VECTOR('',#567,10.);
#176=VECTOR('',#568,10.);
#177=VECTOR('',#571,10.);
#178=VECTOR('',#572,10.);
#179=CIRCLE('',#432,1.49999999999977);
#180=CIRCLE('',#433,1.49999999999977);
#181=CIRCLE('',#440,1.49999999999977);
#182=CIRCLE('',#441,1.49999999999977);
#183=CIRCLE('',#447,4.25000000000011);
#184=CIRCLE('',#448,4.25000000000011);
#185=CIRCLE('',#450,5.);
#186=CIRCLE('',#452,4.25000000000011);
#187=CIRCLE('',#453,4.25000000000011);
#188=CIRCLE('',#455,5.);
#189=CIRCLE('',#457,5.);
#190=CIRCLE('',#459,5.);
#191=VERTEX_POINT('',#579);
#192=VERTEX_POINT('',#581);
#193=VERTEX_POINT('',#585);
#194=VERTEX_POINT('',#586);
#195=VERTEX_POINT('',#588);
#196=VERTEX_POINT('',#590);
#197=VERTEX_POINT('',#594);
#198=VERTEX_POINT('',#596);
#199=VERTEX_POINT('',#600);
#200=VERTEX_POINT('',#602);
#201=VERTEX_POINT('',#608);
#202=VERTEX_POINT('',#610);
#203=VERTEX_POINT('',#612);
#204=VERTEX_POINT('',#614);
#205=VERTEX_POINT('',#618);
#206=VERTEX_POINT('',#620);
#207=VERTEX_POINT('',#624);
#208=VERTEX_POINT('',#625);
#209=VERTEX_POINT('',#627);
#210=VERTEX_POINT('',#629);
#211=VERTEX_POINT('',#633);
#212=VERTEX_POINT('',#635);
#213=VERTEX_POINT('',#639);
#214=VERTEX_POINT('',#641);
#215=VERTEX_POINT('',#647);
#216=VERTEX_POINT('',#649);
#217=VERTEX_POINT('',#653);
#218=VERTEX_POINT('',#656);
#219=VERTEX_POINT('',#658);
#220=VERTEX_POINT('',#662);
#221=VERTEX_POINT('',#665);
#222=VERTEX_POINT('',#669);
#223=VERTEX_POINT('',#673);
#224=VERTEX_POINT('',#675);
#225=VERTEX_POINT('',#680);
#226=VERTEX_POINT('',#682);
#227=EDGE_CURVE('',#191,#191,#179,.T.);
#228=EDGE_CURVE('',#191,#192,#95,.T.);
#229=EDGE_CURVE('',#192,#192,#180,.T.);
#230=EDGE_CURVE('',#193,#194,#96,.T.);
#231=EDGE_CURVE('',#195,#193,#97,.T.);
#232=EDGE_CURVE('',#196,#195,#98,.T.);
#233=EDGE_CURVE('',#194,#196,#99,.T.);
#234=EDGE_CURVE('',#194,#197,#100,.T.);
#235=EDGE_CURVE('',#198,#196,#101,.T.);
#236=EDGE_CURVE('',#197,#198,#102,.T.);
#237=EDGE_CURVE('',#197,#199,#103,.T.);
#238=EDGE_CURVE('',#200,#198,#104,.T.);
#239=EDGE_CURVE('',#199,#200,#105,.T.);
#240=EDGE_CURVE('',#200,#195,#106,.T.);
#241=EDGE_CURVE('',#193,#201,#107,.T.);
#242=EDGE_CURVE('',#201,#202,#108,.T.);
#243=EDGE_CURVE('',#203,#202,#109,.T.);
#244=EDGE_CURVE('',#204,#203,#110,.T.);
#245=EDGE_CURVE('',#204,#199,#111,.T.);
#246=EDGE_CURVE('',#205,#205,#181,.T.);
#247=EDGE_CURVE('',#205,#206,#112,.T.);
#248=EDGE_CURVE('',#206,#206,#182,.T.);
#249=EDGE_CURVE('',#207,#208,#113,.T.);
#250=EDGE_CURVE('',#209,#208,#114,.T.);
#251=EDGE_CURVE('',#210,#209,#115,.T.);
#252=EDGE_CURVE('',#207,#210,#116,.T.);
#253=EDGE_CURVE('',#211,#207,#117,.T.);
#254=EDGE_CURVE('',#212,#210,#118,.T.);
#255=EDGE_CURVE('',#211,#212,#119,.T.);
#256=EDGE_CURVE('',#213,#211,#120,.T.);
#257=EDGE_CURVE('',#214,#212,#121,.T.);
#258=EDGE_CURVE('',#213,#214,#122,.T.);
#259=EDGE_CURVE('',#214,#209,#123,.T.);
#260=EDGE_CURVE('',#215,#215,#183,.T.);
#261=EDGE_CURVE('',#215,#216,#124,.T.);
#262=EDGE_CURVE('',#216,#216,#184,.T.);
#263=EDGE_CURVE('',#217,#217,#185,.T.);
#264=EDGE_CURVE('',#218,#218,#186,.T.);
#265=EDGE_CURVE('',#218,#219,#125,.T.);
#266=EDGE_CURVE('',#219,#219,#187,.T.);
#267=EDGE_CURVE('',#220,#220,#188,.T.);
#268=EDGE_CURVE('',#221,#221,#189,.T.);
#269=EDGE_CURVE('',#221,#217,#126,.T.);
#270=EDGE_CURVE('',#222,#222,#190,.T.);
#271=EDGE_CURVE('',#222,#220,#127,.T.);
#272=EDGE_CURVE('',#204,#223,#128,.T.);
#273=EDGE_CURVE('',#224,#203,#129,.T.);
#274=EDGE_CURVE('',#223,#224,#130,.T.);
#275=EDGE_CURVE('',#223,#208,#131,.T.);
#276=EDGE_CURVE('',#225,#224,#132,.T.);
#277=EDGE_CURVE('',#226,#225,#133,.T.);
#278=EDGE_CURVE('',#213,#226,#134,.T.);
#279=EDGE_CURVE('',#226,#201,#135,.T.);
#280=EDGE_CURVE('',#202,#225,#136,.T.);
#281=ORIENTED_EDGE('',*,*,#227,.F.);
#282=ORIENTED_EDGE('',*,*,#228,.T.);
#283=ORIENTED_EDGE('',*,*,#229,.T.);
#284=ORIENTED_EDGE('',*,*,#228,.F.);
#285=ORIENTED_EDGE('',*,*,#230,.F.);
#286=ORIENTED_EDGE('',*,*,#231,.F.);
#287=ORIENTED_EDGE('',*,*,#232,.F.);
#288=ORIENTED_EDGE('',*,*,#233,.F.);
#289=ORIENTED_EDGE('',*,*,#234,.F.);
#290=ORIENTED_EDGE('',*,*,#233,.T.);
#291=ORIENTED_EDGE('',*,*,#235,.F.);
#292=ORIENTED_EDGE('',*,*,#236,.F.);
#293=ORIENTED_EDGE('',*,*,#237,.F.);
#294=ORIENTED_EDGE('',*,*,#236,.T.);
#295=ORIENTED_EDGE('',*,*,#238,.F.);
#296=ORIENTED_EDGE('',*,*,#239,.F.);
#297=ORIENTED_EDGE('',*,*,#238,.T.);
#298=ORIENTED_EDGE('',*,*,#235,.T.);
#299=ORIENTED_EDGE('',*,*,#232,.T.);
#300=ORIENTED_EDGE('',*,*,#240,.F.);
#301=ORIENTED_EDGE('',*,*,#227,.T.);
#302=ORIENTED_EDGE('',*,*,#239,.T.);
#303=ORIENTED_EDGE('',*,*,#240,.T.);
#304=ORIENTED_EDGE('',*,*,#231,.T.);
#305=ORIENTED_EDGE('',*,*,#241,.T.);
#306=ORIENTED_EDGE('',*,*,#242,.T.);
#307=ORIENTED_EDGE('',*,*,#243,.F.);
#308=ORIENTED_EDGE('',*,*,#244,.F.);
#309=ORIENTED_EDGE('',*,*,#245,.T.);
#310=ORIENTED_EDGE('',*,*,#246,.F.);
#311=ORIENTED_EDGE('',*,*,#247,.T.);
#312=ORIENTED_EDGE('',*,*,#248,.T.);
#313=ORIENTED_EDGE('',*,*,#247,.F.);
#314=ORIENTED_EDGE('',*,*,#249,.T.);
#315=ORIENTED_EDGE('',*,*,#250,.F.);
#316=ORIENTED_EDGE('',*,*,#251,.F.);
#317=ORIENTED_EDGE('',*,*,#252,.F.);
#318=ORIENTED_EDGE('',*,*,#253,.T.);
#319=ORIENTED_EDGE('',*,*,#252,.T.);
#320=ORIENTED_EDGE('',*,*,#254,.F.);
#321=ORIENTED_EDGE('',*,*,#255,.F.);
#322=ORIENTED_EDGE('',*,*,#256,.T.);
#323=ORIENTED_EDGE('',*,*,#255,.T.);
#324=ORIENTED_EDGE('',*,*,#257,.F.);
#325=ORIENTED_EDGE('',*,*,#258,.F.);
#326=ORIENTED_EDGE('',*,*,#259,.F.);
#327=ORIENTED_EDGE('',*,*,#257,.T.);
#328=ORIENTED_EDGE('',*,*,#254,.T.);
#329=ORIENTED_EDGE('',*,*,#251,.T.);
#330=ORIENTED_EDGE('',*,*,#246,.T.);
#331=ORIENTED_EDGE('',*,*,#260,.F.);
#332=ORIENTED_EDGE('',*,*,#261,.T.);
#333=ORIENTED_EDGE('',*,*,#262,.T.);
#334=ORIENTED_EDGE('',*,*,#261,.F.);
#335=ORIENTED_EDGE('',*,*,#263,.F.);
#336=ORIENTED_EDGE('',*,*,#260,.T.);
#337=ORIENTED_EDGE('',*,*,#264,.F.);
#338=ORIENTED_EDGE('',*,*,#265,.T.);
#339=ORIENTED_EDGE('',*,*,#266,.T.);
#340=ORIENTED_EDGE('',*,*,#265,.F.);
#341=ORIENTED_EDGE('',*,*,#267,.F.);
#342=ORIENTED_EDGE('',*,*,#264,.T.);
#343=ORIENTED_EDGE('',*,*,#268,.F.);
#344=ORIENTED_EDGE('',*,*,#269,.T.);
#345=ORIENTED_EDGE('',*,*,#263,.T.);
#346=ORIENTED_EDGE('',*,*,#269,.F.);
#347=ORIENTED_EDGE('',*,*,#270,.F.);
#348=ORIENTED_EDGE('',*,*,#271,.T.);
#349=ORIENTED_EDGE('',*,*,#267,.T.);
#350=ORIENTED_EDGE('',*,*,#271,.F.);
#351=ORIENTED_EDGE('',*,*,#272,.F.);
#352=ORIENTED_EDGE('',*,*,#244,.T.);
#353=ORIENTED_EDGE('',*,*,#273,.F.);
#354=ORIENTED_EDGE('',*,*,#274,.F.);
#355=ORIENTED_EDGE('',*,*,#250,.T.);
#356=ORIENTED_EDGE('',*,*,#275,.F.);
#357=ORIENTED_EDGE('',*,*,#274,.T.);
#358=ORIENTED_EDGE('',*,*,#276,.F.);
#359=ORIENTED_EDGE('',*,*,#277,.F.);
#360=ORIENTED_EDGE('',*,*,#278,.F.);
#361=ORIENTED_EDGE('',*,*,#258,.T.);
#362=ORIENTED_EDGE('',*,*,#259,.T.);
#363=ORIENTED_EDGE('',*,*,#279,.F.);
#364=ORIENTED_EDGE('',*,*,#277,.T.);
#365=ORIENTED_EDGE('',*,*,#280,.F.);
#366=ORIENTED_EDGE('',*,*,#242,.F.);
#367=ORIENTED_EDGE('',*,*,#243,.T.);
#368=ORIENTED_EDGE('',*,*,#280,.T.);
#369=ORIENTED_EDGE('',*,*,#276,.T.);
#370=ORIENTED_EDGE('',*,*,#273,.T.);
#371=ORIENTED_EDGE('',*,*,#270,.T.);
#372=ORIENTED_EDGE('',*,*,#268,.T.);
#373=ORIENTED_EDGE('',*,*,#245,.F.);
#374=ORIENTED_EDGE('',*,*,#272,.T.);
#375=ORIENTED_EDGE('',*,*,#275,.T.);
#376=ORIENTED_EDGE('',*,*,#249,.F.);
#377=ORIENTED_EDGE('',*,*,#253,.F.);
#378=ORIENTED_EDGE('',*,*,#256,.F.);
#379=ORIENTED_EDGE('',*,*,#278,.T.);
#380=ORIENTED_EDGE('',*,*,#279,.T.);
#381=ORIENTED_EDGE('',*,*,#241,.F.);
#382=ORIENTED_EDGE('',*,*,#230,.T.);
#383=ORIENTED_EDGE('',*,*,#234,.T.);
#384=ORIENTED_EDGE('',*,*,#237,.T.);
#385=ORIENTED_EDGE('',*,*,#229,.F.);
#386=ORIENTED_EDGE('',*,*,#248,.F.);
#387=ORIENTED_EDGE('',*,*,#262,.F.);
#388=ORIENTED_EDGE('',*,*,#266,.F.);
#389=CYLINDRICAL_SURFACE('',#431,1.49999999999977);
#390=CYLINDRICAL_SURFACE('',#439,1.49999999999977);
#391=CYLINDRICAL_SURFACE('',#446,4.25000000000011);
#392=CYLINDRICAL_SURFACE('',#451,4.25000000000011);
#393=CYLINDRICAL_SURFACE('',#456,5.);
#394=CYLINDRICAL_SURFACE('',#458,5.);
#395=ADVANCED_FACE('',(#41),#389,.F.);
#396=ADVANCED_FACE('',(#42),#25,.T.);
#397=ADVANCED_FACE('',(#43),#26,.T.);
#398=ADVANCED_FACE('',(#44),#27,.T.);
#399=ADVANCED_FACE('',(#45,#15),#28,.T.);
#400=ADVANCED_FACE('',(#46),#29,.T.);
#401=ADVANCED_FACE('',(#47),#390,.F.);
#402=ADVANCED_FACE('',(#48),#30,.T.);
#403=ADVANCED_FACE('',(#49),#31,.T.);
#404=ADVANCED_FACE('',(#50),#32,.T.);
#405=ADVANCED_FACE('',(#51,#16),#33,.T.);
#406=ADVANCED_FACE('',(#52),#391,.F.);
#407=ADVANCED_FACE('',(#53,#17),#34,.T.);
#408=ADVANCED_FACE('',(#54),#392,.F.);
#409=ADVANCED_FACE('',(#55,#18),#35,.T.);
#410=ADVANCED_FACE('',(#56),#393,.F.);
#411=ADVANCED_FACE('',(#57),#394,.F.);
#412=ADVANCED_FACE('',(#58),#36,.T.);
#413=ADVANCED_FACE('',(#59),#37,.T.);
#414=ADVANCED_FACE('',(#60),#38,.T.);
#415=ADVANCED_FACE('',(#61,#19,#20),#39,.T.);
#416=ADVANCED_FACE('',(#62,#21,#22,#23,#24),#40,.F.);
#417=CLOSED_SHELL('',(#395,#396,#397,#398,#399,#400,#401,#402,#403,#404,
#405,#406,#407,#408,#409,#410,#411,#412,#413,#414,#415,#416));
#418=DERIVED_UNIT_ELEMENT(#420,1.);
#419=DERIVED_UNIT_ELEMENT(#695,-3.);
#420=(
MASS_UNIT()
NAMED_UNIT(*)
SI_UNIT(.KILO.,.GRAM.)
);
#421=DERIVED_UNIT((#418,#419));
#422=MEASURE_REPRESENTATION_ITEM('density measure',
POSITIVE_RATIO_MEASURE(7850.),#421);
#423=PROPERTY_DEFINITION_REPRESENTATION(#428,#425);
#424=PROPERTY_DEFINITION_REPRESENTATION(#429,#426);
#425=REPRESENTATION('material name',(#427),#692);
#426=REPRESENTATION('density',(#422),#692);
#427=DESCRIPTIVE_REPRESENTATION_ITEM('Acier','Acier');
#428=PROPERTY_DEFINITION('material property','material name',#702);
#429=PROPERTY_DEFINITION('material property','density of part',#702);
#430=AXIS2_PLACEMENT_3D('',#577,#465,#466);
#431=AXIS2_PLACEMENT_3D('',#578,#467,#468);
#432=AXIS2_PLACEMENT_3D('',#580,#469,#470);
#433=AXIS2_PLACEMENT_3D('',#583,#472,#473);
#434=AXIS2_PLACEMENT_3D('',#584,#474,#475);
#435=AXIS2_PLACEMENT_3D('',#593,#480,#481);
#436=AXIS2_PLACEMENT_3D('',#599,#485,#486);
#437=AXIS2_PLACEMENT_3D('',#605,#490,#491);
#438=AXIS2_PLACEMENT_3D('',#607,#493,#494);
#439=AXIS2_PLACEMENT_3D('',#617,#500,#501);
#440=AXIS2_PLACEMENT_3D('',#619,#502,#503);
#441=AXIS2_PLACEMENT_3D('',#622,#505,#506);
#442=AXIS2_PLACEMENT_3D('',#623,#507,#508);
#443=AXIS2_PLACEMENT_3D('',#632,#513,#514);
#444=AXIS2_PLACEMENT_3D('',#638,#518,#519);
#445=AXIS2_PLACEMENT_3D('',#644,#523,#524);
#446=AXIS2_PLACEMENT_3D('',#646,#526,#527);
#447=AXIS2_PLACEMENT_3D('',#648,#528,#529);
#448=AXIS2_PLACEMENT_3D('',#651,#531,#532);
#449=AXIS2_PLACEMENT_3D('',#652,#533,#534);
#450=AXIS2_PLACEMENT_3D('',#654,#535,#536);
#451=AXIS2_PLACEMENT_3D('',#655,#537,#538);
#452=AXIS2_PLACEMENT_3D('',#657,#539,#540);
#453=AXIS2_PLACEMENT_3D('',#660,#542,#543);
#454=AXIS2_PLACEMENT_3D('',#661,#544,#545);
#455=AXIS2_PLACEMENT_3D('',#663,#546,#547);
#456=AXIS2_PLACEMENT_3D('',#664,#548,#549);
#457=AXIS2_PLACEMENT_3D('',#666,#550,#551);
#458=AXIS2_PLACEMENT_3D('',#668,#553,#554);
#459=AXIS2_PLACEMENT_3D('',#670,#555,#556);
#460=AXIS2_PLACEMENT_3D('',#672,#558,#559);
#461=AXIS2_PLACEMENT_3D('',#678,#563,#564);
#462=AXIS2_PLACEMENT_3D('',#685,#569,#570);
#463=AXIS2_PLACEMENT_3D('',#688,#573,#574);
#464=AXIS2_PLACEMENT_3D('',#689,#575,#576);
#465=DIRECTION('axis',(0.,0.,1.));
#466=DIRECTION('refdir',(1.,0.,0.));
#467=DIRECTION('center_axis',(0.,0.,1.));
#468=DIRECTION('ref_axis',(1.,0.,0.));
#469=DIRECTION('center_axis',(0.,0.,-1.));
#470=DIRECTION('ref_axis',(1.,0.,0.));
#471=DIRECTION('',(0.,0.,-1.));
#472=DIRECTION('center_axis',(0.,0.,-1.));
#473=DIRECTION('ref_axis',(1.,0.,0.));
#474=DIRECTION('center_axis',(0.,1.,0.));
#475=DIRECTION('ref_axis',(-1.,0.,0.));
#476=DIRECTION('',(1.,0.,0.));
#477=DIRECTION('',(0.,0.,-1.));
#478=DIRECTION('',(-1.,0.,0.));
#479=DIRECTION('',(0.,0.,1.));
#480=DIRECTION('center_axis',(1.,0.,0.));
#481=DIRECTION('ref_axis',(0.,1.,0.));
#482=DIRECTION('',(0.,-1.,0.));
#483=DIRECTION('',(0.,1.,0.));
#484=DIRECTION('',(0.,0.,1.));
#485=DIRECTION('center_axis',(0.,-1.,0.));
#486=DIRECTION('ref_axis',(1.,0.,0.));
#487=DIRECTION('',(-1.,0.,0.));
#488=DIRECTION('',(1.,0.,0.));
#489=DIRECTION('',(0.,0.,1.));
#490=DIRECTION('center_axis',(0.,0.,1.));
#491=DIRECTION('ref_axis',(1.,0.,0.));
#492=DIRECTION('',(0.,1.,0.));
#493=DIRECTION('center_axis',(1.,0.,0.));
#494=DIRECTION('ref_axis',(0.,1.,0.));
#495=DIRECTION('',(0.,1.,0.));
#496=DIRECTION('',(0.,0.,1.));
#497=DIRECTION('',(0.,1.,0.));
#498=DIRECTION('',(0.,0.,1.));
#499=DIRECTION('',(0.,1.,0.));
#500=DIRECTION('center_axis',(0.,0.,1.));
#501=DIRECTION('ref_axis',(1.,0.,0.));
#502=DIRECTION('center_axis',(0.,0.,-1.));
#503=DIRECTION('ref_axis',(1.,0.,0.));
#504=DIRECTION('',(0.,0.,-1.));
#505=DIRECTION('center_axis',(0.,0.,-1.));
#506=DIRECTION('ref_axis',(1.,0.,0.));
#507=DIRECTION('center_axis',(0.,-1.,0.));
#508=DIRECTION('ref_axis',(1.,0.,0.));
#509=DIRECTION('',(1.,0.,0.));
#510=DIRECTION('',(0.,0.,-1.));
#511=DIRECTION('',(1.,0.,0.));
#512=DIRECTION('',(0.,0.,1.));
#513=DIRECTION('center_axis',(-1.,0.,0.));
#514=DIRECTION('ref_axis',(0.,-1.,0.));
#515=DIRECTION('',(0.,-1.,0.));
#516=DIRECTION('',(0.,-1.,0.));
#517=DIRECTION('',(0.,0.,1.));
#518=DIRECTION('center_axis',(0.,1.,0.));
#519=DIRECTION('ref_axis',(-1.,0.,0.));
#520=DIRECTION('',(-1.,0.,0.));
#521=DIRECTION('',(-1.,0.,0.));
#522=DIRECTION('',(0.,0.,1.));
#523=DIRECTION('center_axis',(0.,0.,1.));
#524=DIRECTION('ref_axis',(1.,0.,0.));
#525=DIRECTION('',(0.,-1.,0.));
#526=DIRECTION('center_axis',(0.,0.,1.));
#527=DIRECTION('ref_axis',(1.,0.,0.));
#528=DIRECTION('center_axis',(0.,0.,-1.));
#529=DIRECTION('ref_axis',(1.,0.,0.));
#530=DIRECTION('',(0.,0.,-1.));
#531=DIRECTION('center_axis',(0.,0.,-1.));
#532=DIRECTION('ref_axis',(1.,0.,0.));
#533=DIRECTION('center_axis',(0.,0.,1.));
#534=DIRECTION('ref_axis',(1.,0.,0.));
#535=DIRECTION('center_axis',(0.,0.,-1.));
#536=DIRECTION('ref_axis',(1.,0.,0.));
#537=DIRECTION('center_axis',(0.,0.,1.));
#538=DIRECTION('ref_axis',(1.,0.,0.));
#539=DIRECTION('center_axis',(0.,0.,-1.));
#540=DIRECTION('ref_axis',(1.,0.,0.));
#541=DIRECTION('',(0.,0.,-1.));
#542=DIRECTION('center_axis',(0.,0.,-1.));
#543=DIRECTION('ref_axis',(1.,0.,0.));
#544=DIRECTION('center_axis',(0.,0.,1.));
#545=DIRECTION('ref_axis',(1.,0.,0.));
#546=DIRECTION('center_axis',(0.,0.,-1.));
#547=DIRECTION('ref_axis',(1.,0.,0.));
#548=DIRECTION('center_axis',(0.,0.,1.));
#549=DIRECTION('ref_axis',(1.,0.,0.));
#550=DIRECTION('center_axis',(0.,0.,-1.));
#551=DIRECTION('ref_axis',(1.,0.,0.));
#552=DIRECTION('',(0.,0.,-1.));
#553=DIRECTION('center_axis',(0.,0.,1.));
#554=DIRECTION('ref_axis',(1.,0.,0.));
#555=DIRECTION('center_axis',(0.,0.,-1.));
#556=DIRECTION('ref_axis',(1.,0.,0.));
#557=DIRECTION('',(0.,0.,-1.));
#558=DIRECTION('center_axis',(0.,-1.,0.));
#559=DIRECTION('ref_axis',(1.,0.,0.));
#560=DIRECTION('',(-1.,0.,0.));
#561=DIRECTION('',(1.,0.,0.));
#562=DIRECTION('',(0.,0.,1.));
#563=DIRECTION('center_axis',(-1.,0.,0.));
#564=DIRECTION('ref_axis',(0.,-1.,0.));
#565=DIRECTION('',(0.,1.,0.));
#566=DIRECTION('',(0.,-1.,0.));
#567=DIRECTION('',(0.,0.,1.));
#568=DIRECTION('',(0.,1.,0.));
#569=DIRECTION('center_axis',(0.,1.,0.));
#570=DIRECTION('ref_axis',(-1.,0.,0.));
#571=DIRECTION('',(1.,0.,0.));
#572=DIRECTION('',(-1.,0.,0.));
#573=DIRECTION('center_axis',(0.,0.,1.));
#574=DIRECTION('ref_axis',(1.,0.,0.));
#575=DIRECTION('center_axis',(0.,0.,1.));
#576=DIRECTION('ref_axis',(1.,0.,0.));
#577=CARTESIAN_POINT('',(0.,0.,0.));
#578=CARTESIAN_POINT('Origin',(-4284.44238833975,2078.37091520018,0.));
#579=CARTESIAN_POINT('',(-4285.94238833975,2078.37091520018,2.));
#580=CARTESIAN_POINT('Origin',(-4284.44238833975,2078.37091520018,2.));
#581=CARTESIAN_POINT('',(-4285.94238833975,2078.37091520018,0.));
#582=CARTESIAN_POINT('',(-4285.94238833975,2078.37091520018,0.));
#583=CARTESIAN_POINT('Origin',(-4284.44238833975,2078.37091520018,0.));
#584=CARTESIAN_POINT('Origin',(-4281.94238833975,2081.02995247189,0.));
#585=CARTESIAN_POINT('',(-4286.94238833975,2081.02995247189,0.));
#586=CARTESIAN_POINT('',(-4281.94238833975,2081.02995247189,0.));
#587=CARTESIAN_POINT('',(-4286.94238833975,2081.02995247189,0.));
#588=CARTESIAN_POINT('',(-4286.94238833975,2081.02995247189,2.));
#589=CARTESIAN_POINT('',(-4286.94238833975,2081.02995247189,0.));
#590=CARTESIAN_POINT('',(-4281.94238833975,2081.02995247189,2.));
#591=CARTESIAN_POINT('',(-4286.94238833975,2081.02995247189,2.));
#592=CARTESIAN_POINT('',(-4281.94238833975,2081.02995247189,0.));
#593=CARTESIAN_POINT('Origin',(-4281.94238833975,2076.02995247189,0.));
#594=CARTESIAN_POINT('',(-4281.94238833975,2076.02995247189,0.));
#595=CARTESIAN_POINT('',(-4281.94238833975,2081.02995247189,0.));
#596=CARTESIAN_POINT('',(-4281.94238833975,2076.02995247189,2.));
#597=CARTESIAN_POINT('',(-4281.94238833975,2081.02995247189,2.));
#598=CARTESIAN_POINT('',(-4281.94238833975,2076.02995247189,0.));
#599=CARTESIAN_POINT('Origin',(-4286.94238833975,2076.02995247189,0.));
#600=CARTESIAN_POINT('',(-4286.94238833975,2076.02995247189,0.));
#601=CARTESIAN_POINT('',(-4281.94238833975,2076.02995247189,0.));
#602=CARTESIAN_POINT('',(-4286.94238833975,2076.02995247189,2.));
#603=CARTESIAN_POINT('',(-4281.94238833975,2076.02995247189,2.));
#604=CARTESIAN_POINT('',(-4286.94238833975,2076.02995247189,0.));
#605=CARTESIAN_POINT('Origin',(-4284.44238833975,2078.52995247189,2.));
#606=CARTESIAN_POINT('',(-4286.94238833975,2075.87900249648,2.));
#607=CARTESIAN_POINT('Origin',(-4286.94238833975,2073.22805252107,0.));
#608=CARTESIAN_POINT('',(-4286.94238833975,2085.22805252107,0.));
#609=CARTESIAN_POINT('',(-4286.94238833975,2076.02995247189,0.));
#610=CARTESIAN_POINT('',(-4286.94238833975,2085.22805252107,20.));
#611=CARTESIAN_POINT('',(-4286.94238833975,2085.22805252107,0.));
#612=CARTESIAN_POINT('',(-4286.94238833975,2073.22805252107,20.));
#613=CARTESIAN_POINT('',(-4286.94238833975,2076.02995247189,20.));
#614=CARTESIAN_POINT('',(-4286.94238833975,2073.22805252107,0.));
#615=CARTESIAN_POINT('',(-4286.94238833975,2073.22805252107,0.));
#616=CARTESIAN_POINT('',(-4286.94238833975,2076.02995247189,0.));
#617=CARTESIAN_POINT('Origin',(-4314.52881898117,2078.44417707603,0.));
#618=CARTESIAN_POINT('',(-4316.02881898117,2078.44417707603,2.));
#619=CARTESIAN_POINT('Origin',(-4314.52881898117,2078.44417707603,2.));
#620=CARTESIAN_POINT('',(-4316.02881898117,2078.44417707603,0.));
#621=CARTESIAN_POINT('',(-4316.02881898117,2078.44417707603,0.));
#622=CARTESIAN_POINT('Origin',(-4314.52881898117,2078.44417707603,0.));
#623=CARTESIAN_POINT('Origin',(-4316.94238833975,2075.94417707603,0.));
#624=CARTESIAN_POINT('',(-4316.94238833975,2075.94417707603,0.));
#625=CARTESIAN_POINT('',(-4311.94238833975,2075.94417707603,0.));
#626=CARTESIAN_POINT('',(-4316.94238833975,2075.94417707603,0.));
#627=CARTESIAN_POINT('',(-4311.94238833975,2075.94417707603,2.));
#628=CARTESIAN_POINT('',(-4311.94238833975,2075.94417707603,0.));
#629=CARTESIAN_POINT('',(-4316.94238833975,2075.94417707603,2.));
#630=CARTESIAN_POINT('',(-4316.94238833975,2075.94417707603,2.));
#631=CARTESIAN_POINT('',(-4316.94238833975,2075.94417707603,0.));
#632=CARTESIAN_POINT('Origin',(-4316.94238833975,2080.94417707603,0.));
#633=CARTESIAN_POINT('',(-4316.94238833975,2080.94417707603,0.));
#634=CARTESIAN_POINT('',(-4316.94238833975,2080.94417707603,0.));
#635=CARTESIAN_POINT('',(-4316.94238833975,2080.94417707603,2.));
#636=CARTESIAN_POINT('',(-4316.94238833975,2080.94417707603,2.));
#637=CARTESIAN_POINT('',(-4316.94238833975,2080.94417707603,0.));
#638=CARTESIAN_POINT('Origin',(-4311.94238833975,2080.94417707603,0.));
#639=CARTESIAN_POINT('',(-4311.94238833975,2080.94417707603,0.));
#640=CARTESIAN_POINT('',(-4311.94238833975,2080.94417707603,0.));
#641=CARTESIAN_POINT('',(-4311.94238833975,2080.94417707603,2.));
#642=CARTESIAN_POINT('',(-4311.94238833975,2080.94417707603,2.));
#643=CARTESIAN_POINT('',(-4311.94238833975,2080.94417707603,0.));
#644=CARTESIAN_POINT('Origin',(-4314.44238833975,2078.44417707603,2.));
#645=CARTESIAN_POINT('',(-4311.94238833975,2081.83611479855,2.));
#646=CARTESIAN_POINT('Origin',(-4293.00006397069,2079.00003097951,0.));
#647=CARTESIAN_POINT('',(-4297.25006397069,2079.00003097951,18.));
#648=CARTESIAN_POINT('Origin',(-4293.00006397069,2079.00003097951,18.));
#649=CARTESIAN_POINT('',(-4297.25006397069,2079.00003097951,0.));
#650=CARTESIAN_POINT('',(-4297.25006397069,2079.00003097951,0.));
#651=CARTESIAN_POINT('Origin',(-4293.00006397069,2079.00003097951,0.));
#652=CARTESIAN_POINT('Origin',(-4293.00006397069,2079.00003097951,18.));
#653=CARTESIAN_POINT('',(-4298.00006397069,2079.00003097951,18.));
#654=CARTESIAN_POINT('Origin',(-4293.00006397069,2079.00003097951,18.));
#655=CARTESIAN_POINT('Origin',(-4305.00006414951,2079.00003097952,0.));
#656=CARTESIAN_POINT('',(-4309.25006414951,2079.00003097952,18.));
#657=CARTESIAN_POINT('Origin',(-4305.00006414951,2079.00003097952,18.));
#658=CARTESIAN_POINT('',(-4309.25006414951,2079.00003097952,0.));
#659=CARTESIAN_POINT('',(-4309.25006414951,2079.00003097952,0.));
#660=CARTESIAN_POINT('Origin',(-4305.00006414951,2079.00003097952,0.));
#661=CARTESIAN_POINT('Origin',(-4305.00006414951,2079.00003097952,18.));
#662=CARTESIAN_POINT('',(-4310.00006414951,2079.00003097952,18.));
#663=CARTESIAN_POINT('Origin',(-4305.00006414951,2079.00003097952,18.));
#664=CARTESIAN_POINT('Origin',(-4293.00006397069,2079.00003097951,0.));
#665=CARTESIAN_POINT('',(-4298.00006397069,2079.00003097951,20.));
#666=CARTESIAN_POINT('Origin',(-4293.00006397069,2079.00003097951,20.));
#667=CARTESIAN_POINT('',(-4298.00006397069,2079.00003097951,0.));
#668=CARTESIAN_POINT('Origin',(-4305.00006414951,2079.00003097952,0.));
#669=CARTESIAN_POINT('',(-4310.00006414951,2079.00003097952,20.));
#670=CARTESIAN_POINT('Origin',(-4305.00006414951,2079.00003097952,20.));
#671=CARTESIAN_POINT('',(-4310.00006414951,2079.00003097952,0.));
#672=CARTESIAN_POINT('Origin',(-4311.94238833975,2073.22805252107,0.));
#673=CARTESIAN_POINT('',(-4311.94238833975,2073.22805252107,0.));
#674=CARTESIAN_POINT('',(-4286.94238833975,2073.22805252107,0.));
#675=CARTESIAN_POINT('',(-4311.94238833975,2073.22805252107,20.));
#676=CARTESIAN_POINT('',(-4286.94238833975,2073.22805252107,20.));
#677=CARTESIAN_POINT('',(-4311.94238833975,2073.22805252107,0.));
#678=CARTESIAN_POINT('Origin',(-4311.94238833975,2085.22805252107,0.));
#679=CARTESIAN_POINT('',(-4311.94238833975,2073.22805252107,0.));
#680=CARTESIAN_POINT('',(-4311.94238833975,2085.22805252107,20.));
#681=CARTESIAN_POINT('',(-4311.94238833975,2073.22805252107,20.));
#682=CARTESIAN_POINT('',(-4311.94238833975,2085.22805252107,0.));
#683=CARTESIAN_POINT('',(-4311.94238833975,2085.22805252107,0.));
#684=CARTESIAN_POINT('',(-4311.94238833975,2073.22805252107,0.));
#685=CARTESIAN_POINT('Origin',(-4286.94238833975,2085.22805252107,0.));
#686=CARTESIAN_POINT('',(-4311.94238833975,2085.22805252107,0.));
#687=CARTESIAN_POINT('',(-4311.94238833975,2085.22805252107,20.));
#688=CARTESIAN_POINT('Origin',(-4299.44238833975,2079.22805252107,20.));
#689=CARTESIAN_POINT('Origin',(-4299.44238833975,2079.22805252107,0.));
#690=UNCERTAINTY_MEASURE_WITH_UNIT(LENGTH_MEASURE(0.01),#694,
'DISTANCE_ACCURACY_VALUE',
'Maximum model space distance between geometric entities at asserted c
onnectivities');
#691=UNCERTAINTY_MEASURE_WITH_UNIT(LENGTH_MEASURE(0.01),#694,
'DISTANCE_ACCURACY_VALUE',
'Maximum model space distance between geometric entities at asserted c
onnectivities');
#692=(
GEOMETRIC_REPRESENTATION_CONTEXT(3)
GLOBAL_UNCERTAINTY_ASSIGNED_CONTEXT((#690))
GLOBAL_UNIT_ASSIGNED_CONTEXT((#694,#696,#697))
REPRESENTATION_CONTEXT('','3D')
);
#693=(
GEOMETRIC_REPRESENTATION_CONTEXT(3)
GLOBAL_UNCERTAINTY_ASSIGNED_CONTEXT((#691))
GLOBAL_UNIT_ASSIGNED_CONTEXT((#694,#696,#697))
REPRESENTATION_CONTEXT('','3D')
);
#694=(
LENGTH_UNIT()
NAMED_UNIT(*)
SI_UNIT(.MILLI.,.METRE.)
);
#695=(
LENGTH_UNIT()
NAMED_UNIT(*)
SI_UNIT($,.METRE.)
);
#696=(
NAMED_UNIT(*)
PLANE_ANGLE_UNIT()
SI_UNIT($,.RADIAN.)
);
#697=(
NAMED_UNIT(*)
SI_UNIT($,.STERADIAN.)
SOLID_ANGLE_UNIT()
);
#698=SHAPE_DEFINITION_REPRESENTATION(#699,#700);
#699=PRODUCT_DEFINITION_SHAPE('',$,#702);
#700=SHAPE_REPRESENTATION('',(#430),#692);
#701=PRODUCT_DEFINITION_CONTEXT('part definition',#706,'design');
#702=PRODUCT_DEFINITION('2026-05-08-12-27-28-253','FusionComponent',#703,
#701);
#703=PRODUCT_DEFINITION_FORMATION('',$,#708);
#704=PRODUCT_RELATED_PRODUCT_CATEGORY('FusionComponent',
'FusionComponent',(#708));
#705=APPLICATION_PROTOCOL_DEFINITION('international standard',
'automotive_design',2009,#706);
#706=APPLICATION_CONTEXT(
'Core Data for Automotive Mechanical Design Process');
#707=PRODUCT_CONTEXT('part definition',#706,'mechanical');
#708=PRODUCT('2026-05-08-12-27-28-253','FusionComponent',$,(#707));
#709=PRESENTATION_STYLE_ASSIGNMENT((#710));
#710=SURFACE_STYLE_USAGE(.BOTH.,#711);
#711=SURFACE_SIDE_STYLE('',(#712));
#712=SURFACE_STYLE_FILL_AREA(#713);
#713=FILL_AREA_STYLE('Acier - Satin\X\E9',(#714));
#714=FILL_AREA_STYLE_COLOUR('Acier - Satin\X\E9',#715);
#715=COLOUR_RGB('Acier - Satin\X\E9',0.627450980392157,0.627450980392157,
0.627450980392157);
ENDSEC;
END-ISO-10303-21;
